<?xml version="1.0" standalone="no"?>
<!DOCTYPE svg PUBLIC "-//W3C//DTD SVG 1.1//EN" "http://www.w3.org/Graphics/SVG/1.1/DTD/svg11.dtd" >
<svg>
<metadata>
Created by FontForge 20090914 at Mon Dec 14 11:10:13 2020
 By www-data
Copyright (c) 1991 Adobe Systems Incorporated.  All Rights Reserved.Barmeno is a trademark of H. Berthold AG.
</metadata>
<defs>
<font id="Barmeno-Medium" horiz-adv-x="542" >
  <font-face 
    font-family="Barmeno"
    font-weight="500"
    font-stretch="normal"
    units-per-em="1000"
    panose-1="2 0 6 3 0 0 0 0 0 0"
    ascent="800"
    descent="-200"
    x-height="517.999"
    cap-height="706.001"
    bbox="-146.999 -250 1096 937"
    underline-thickness="50"
    underline-position="-100"
    unicode-range="U+0020-U+FFFD"
  />
<missing-glyph horiz-adv-x="271" 
 />
    <glyph glyph-name=".notdef" unicode="&#xfffd;" horiz-adv-x="271" 
 />
    <glyph glyph-name="space" unicode=" " horiz-adv-x="271" 
 />
    <glyph glyph-name="exclam" unicode="!" horiz-adv-x="292" 
d="M239 683l-39 -425.003c-0.666992 -9.33301 -2.5 -15.166 -5.5 -17.499s-8.83301 -3.5 -17.5 -3.5c-20 0 -31 0.333008 -33 1c-6 0.666992 -10 7.33398 -12 20.001l-37 427c-0.666992 8.66699 0.333008 14.334 3 17.001s8.33398 4 17.001 4h102
c8.66699 0 14.667 -1.33301 18 -4s4.66602 -9 3.99902 -19zM241 65.9971c-1.33301 -20 -9.16699 -37 -23.5 -51s-31.833 -21 -52.5 -21c-22.667 0 -41 7.66699 -55 23s-21 32.666 -21 51.999c0 20.667 7.5 38.334 22.5 53.001s32.833 22 53.5 22
c21.333 0 39.5 -7.5 54.5 -22.5s22.167 -33.5 21.5 -55.5z" />
    <glyph glyph-name="quotedbl" unicode="&#x22;" horiz-adv-x="396" 
d="M342 687l-39 -252.999h-23l-39 244c-0.666992 4.66699 -1 11 -1 19c0 17.333 5.5 30.333 16.5 39s23.5 13 37.5 13c22 0 36.667 -8 44 -24c4 -10.667 5.33301 -23.334 4 -38.001zM155 687.001l-40.001 -253h-23l-39 244c0 2.66699 -0.166992 6 -0.5 10s-0.5 7 -0.5 9
c0 17.333 5.66699 30.333 17 39s24 13 38 13c20.667 0 35 -7.66699 43 -23c4.66699 -10 6.33398 -23 5.00098 -39z" />
    <glyph glyph-name="numbersign" unicode="#" horiz-adv-x="583" 
d="M559 307v-77h-150l-33 -230h-80l33 230h-111l-32 -230h-81l33 230h-138v77h149l16 107h-141v77h151l31 215h80l-30 -215h110l31 215h78l-29 -215h138v-77h-149l-16 -107h140zM229 307h111l15 107h-111z" />
    <glyph glyph-name="dollar" unicode="$" 
d="M293 648l-0.00195312 -234.001c35.333 -15.333 59.666 -26.166 72.999 -32.499s28 -14.666 44 -24.999s29.667 -21.5 41 -33.5c35.333 -38 53 -82.667 53 -134c0 -56 -18.667 -102.667 -56 -140c-15.333 -15.333 -33.166 -27.833 -53.499 -37.5s-37.166 -16 -50.499 -19
s-30.333 -5.83301 -51 -8.5v-66c0 -6 -0.666992 -9.83301 -2 -11.5s-4.66602 -2.5 -9.99902 -2.5c-22.667 0 -34 4.33301 -34 13v67c-43.333 4 -80 12.667 -110 26s-51.5 29 -64.5 47s-21.833 33.667 -26.5 47s-7 26 -7 38c0 16 5 29.167 15 39.5s22.333 15.5 37 15.5
c10.667 0 20.334 -3 29.001 -9s14.667 -11.833 18 -17.5s7.66602 -13.5 12.999 -23.5c11.333 -23.333 23.333 -41.166 36 -53.499s32.667 -21.833 60 -28.5v243c-26.667 11.333 -46.834 20.333 -60.501 27s-31 16.834 -52 30.501s-36.833 27.167 -47.5 40.5
s-20.167 30.666 -28.5 51.999s-12.5 45 -12.5 71c0 50 16.667 93.333 50 130s83.666 57 150.999 61v67c0 6 1 9.83301 3 11.5s6 2.5 12 2.5c10.667 0 17.667 -0.166992 21 -0.5s5.83301 -1.33301 7.5 -3s2.5 -4.83398 2.5 -9.50098v-68c55.333 -4 99.5 -19.667 132.5 -47
s49.5 -55.333 49.5 -84c0 -16.667 -5 -29.5 -15 -38.5s-21.667 -13.5 -35 -13.5c-10 0 -18.667 2.5 -26 7.5s-13.166 10.667 -17.499 17s-10.5 17.166 -18.5 32.499c-10.667 16.667 -20.667 28.667 -30 36s-22.666 13.333 -39.999 18zM292.998 288.999v-225.999
c36 2 62.167 13 78.5 33s24.5 43 24.5 69c0 18.667 -3.5 35.5 -10.5 50.5s-17.167 27.5 -30.5 37.5s-24 17.167 -32 21.5s-18 9.16602 -30 14.499zM246.998 432v217.998c-20 -2 -36.833 -7 -50.5 -15s-23.5 -17.667 -29.5 -29s-10.167 -21.666 -12.5 -30.999
s-3.5 -18.333 -3.5 -27c0 -16.667 3 -31.667 9 -45s14.667 -24.666 26 -33.999s21 -16.333 29 -21s18.667 -10 32 -16z" />
    <glyph glyph-name="percent" unicode="%" horiz-adv-x="792" 
d="M304 487c0 -69.333 -12 -125.333 -36 -168s-57.667 -64 -101 -64c-42 0 -75.5 20.333 -100.5 61s-37.5 97.334 -37.5 170.001c0 73.333 12.833 130.166 38.5 170.499s59.167 60.5 100.5 60.5c42.667 0 76 -21.167 100 -63.5s36 -97.833 36 -166.5zM224 493
c0 116.667 -19.333 175 -58 175c-38 0 -57 -57 -57 -171c0 -124.667 19.333 -187 58 -187c38 0 57 61 57 183zM763 222c0 -69.333 -12.1689 -125.333 -36.502 -168s-58.166 -64 -101.499 -64c-41.333 0 -74.666 20 -99.999 60s-38 97 -38 171s12.833 131 38.5 171
s59.167 60 100.5 60c43.333 0 77 -21 101 -63s36 -97.667 36 -167zM682.998 228c0 116.667 -19.667 175 -59 175c-38 0 -57 -57 -57 -171c0 -124.667 19.333 -187 58 -187s58 61 58 183zM597.998 677l-347 -658.001c-4.66699 -8.66699 -8.5 -14 -11.5 -16
s-8.16699 -3 -15.5 -3c-17.333 0 -28 0.333008 -32 1s-6 3.33398 -6 8.00098s2.33301 11.334 7 20.001l348 658c6 13.333 14.667 20 26 20c26 0 39 -3.33301 39 -10c0 -2.66699 -2.66699 -9.33398 -8 -20.001z" />
    <glyph glyph-name="ampersand" unicode="&#x26;" horiz-adv-x="667" 
d="M495 24l-80.002 104.005c-10 -16 -17.833 -28.167 -23.5 -36.5s-15.5 -20.333 -29.5 -36s-27.333 -27.834 -40 -36.501s-28.834 -16.5 -48.501 -23.5s-40.5 -10.5 -62.5 -10.5c-54 0 -97.333 17.667 -130 53s-49 75.666 -49 120.999c0 65.333 32.333 122.666 97 171.999
c10.667 7.33301 40.334 26 89.001 56c-28 39.333 -48.167 71.833 -60.5 97.5s-18.5 52.167 -18.5 79.5c0 46 16.833 83.667 50.5 113s81.167 44 142.5 44c55.333 0 98.166 -13.167 128.499 -39.5s45.5 -59.833 45.5 -100.5c0 -38.667 -12.833 -72 -38.5 -100
s-63.167 -56.667 -112.5 -86l88 -114c51.333 76 104 114 158 114c22 0 37 -5.5 45 -16.5s12 -22.5 12 -34.5c0 -6.66699 -1.16699 -13.167 -3.5 -19.5s-8.16602 -12.833 -17.499 -19.5s-21.666 -10.334 -36.999 -11.001c-29.333 -1.33301 -50.333 -5 -63 -11
s-30.667 -23.333 -54 -52l152 -196c7.33301 -8.66699 11 -15.667 11 -21c0 -9.33301 -6.66699 -14 -20 -14h-85c-12.667 0 -21.167 1.16699 -25.5 3.5s-11.166 9.16602 -20.499 20.499zM373.998 181.005l-116.001 152.999c-22 -14 -38.833 -25.333 -50.5 -34
s-24 -22.5 -37 -41.5s-19.5 -39.167 -19.5 -60.5c0 -27.333 9.5 -52.166 28.5 -74.499s43.5 -33.5 73.5 -33.5c20 0 38.833 6 56.5 18s30.334 23.167 38.001 33.5s16.5 23.5 26.5 39.5zM315.997 446.004c62 39.333 93.001 80 93.001 122
c0 24.667 -7.83301 44.834 -23.5 60.501s-34.834 23.5 -57.501 23.5c-20 0 -38 -6.83301 -54 -20.5s-24 -32.834 -24 -57.501c0 -14 3.33301 -28.5 10 -43.5s13.5 -27.5 20.5 -37.5s18.833 -25.667 35.5 -47z" />
    <glyph glyph-name="quotesingle" unicode="'" horiz-adv-x="208" 
d="M155 687l-40 -252.999h-23l-39 244c0 2.66699 -0.166992 6 -0.5 10s-0.5 7 -0.5 9c0 17.333 5.66699 30.333 17 39s24 13 38 13c21.333 0 35.666 -8 42.999 -24c4.66699 -10.667 6.33398 -23.334 5.00098 -38.001z" />
    <glyph glyph-name="parenleft" unicode="(" horiz-adv-x="313" 
d="M295 805c-83.333 -118 -124.998 -267.335 -124.998 -448.002c0 -86 10 -167.333 30 -244c20.667 -78 51 -145.333 91 -202c12 -17.333 18 -28.666 18 -33.999s-2.16699 -10.166 -6.5 -14.499s-9.5 -6.5 -15.5 -6.5c-14 0 -34.5 13.667 -61.5 41s-48.833 52.333 -65.5 75
c-76.667 104 -115 233.333 -115 388c0 143.333 36 265.333 108 366c15.333 22 37.166 48.333 65.499 79s50.166 46 65.499 46c14 0 21 -7 21 -21c0 -6 -3.33301 -14.333 -10 -25z" />
    <glyph glyph-name="parenright" unicode=")" horiz-adv-x="313" 
d="M18 -99c83.333 118 125.001 267.332 125.001 447.999c0 86 -10 167.333 -30 244c-20.667 78.667 -51 146.334 -91 203.001c-12 16.667 -18 28 -18 34c0 5.33301 2.16699 10.166 6.5 14.499s9.5 6.5 15.5 6.5c14 0 34.5 -13.667 61.5 -41s48.833 -52.333 65.5 -75
c76.667 -104.667 115 -234 115 -388c0 -143.333 -36 -265.666 -108 -366.999c-14.667 -21.333 -36.334 -47.333 -65.001 -78s-50.667 -46 -66 -46c-14 0 -21 7 -21 21c0 6.66699 3.33301 14.667 10 24z" />
    <glyph glyph-name="asterisk" unicode="*" horiz-adv-x="333" 
d="M146 580c3.33301 16.667 4.99805 27.999 4.99805 33.999c0 15.333 -5 23 -15 23c-11.333 0 -25 -11 -41 -33c-10 -15.333 -17.333 -25.333 -22 -30s-10.667 -7 -18 -7c-17.333 0 -26 13.667 -26 41c0 10.667 2.66699 19 8 25s10 9.5 14 10.5s9.66699 2.16699 17 3.5
c38.667 5.33301 58 15 58 29c0 13.333 -18.667 23.333 -56 30c-10.667 2 -18.167 3.83301 -22.5 5.5s-8.5 5.83398 -12.5 12.501s-6 16 -6 28c0 23.333 8.66699 35 26 35c6.66699 0 12 -1.83301 16 -5.5s10.667 -12.5 20 -26.5c18.667 -26 34.667 -39 48 -39
c8.66699 0 13 7.66699 13 23c0 13.333 -2 27 -6 41c-5.33301 20.667 -8 35.667 -8 45c0 26.667 9.66699 40 29 40c18.667 0 28 -13.667 28 -41c0 -4 -2 -18 -6 -42s-6 -38.333 -6 -43c0 -15.333 4.66699 -23 14 -23c12 0 27.333 12.667 46 38
c6.66699 9.33301 11.334 15.666 14.001 18.999s5.83398 6.33301 9.50098 9s7.83398 4 12.501 4c16.667 0 25 -12 25 -36c0 -16 -3.83301 -26.667 -11.5 -32s-20.834 -9.66602 -39.501 -12.999c-30.667 -4.66699 -46 -14 -46 -28c0 -12.667 15.667 -22 47 -28
c12 -2 20.833 -4 26.5 -6s11 -6.33301 16 -13s7.5 -16 7.5 -28c0 -23.333 -8.33301 -35 -25 -35c-7.33301 0 -13 2 -17 6s-10.667 12.667 -20 26c-18.667 25.333 -33.667 38 -45 38c-9.33301 0 -14 -8 -14 -24c0 -10 1.66699 -23 5 -39c5.33301 -23.333 8 -38 8 -44
c0 -26 -10 -39 -30 -39c-8.66699 0 -15.667 3.5 -21 10.5s-8 16.167 -8 27.5c0 8.66699 3 25.667 9 51z" />
    <glyph glyph-name="plus" unicode="+" horiz-adv-x="500" 
d="M468 331v-80h-179v-179h-80v179h-178v80h178v179h80v-179h179z" />
    <glyph glyph-name="comma" unicode="," horiz-adv-x="250" 
d="M79 29c-18 15.333 -27.002 32.332 -27.002 50.999s7 33.834 21 45.501s30 17.5 48 17.5c22.667 0 41.834 -9 57.501 -27s23.5 -42.667 23.5 -74c0 -45.333 -16.167 -87 -48.5 -125s-59.5 -57 -81.5 -57c-7.33301 0 -13.166 2.16699 -17.499 6.5s-6.5 9.5 -6.5 15.5
c0 8 8 21.667 24 41c20 28.667 30 50 30 64s-7.66699 28 -23 42z" />
    <glyph glyph-name="hyphen" unicode="-" horiz-adv-x="313" 
d="M275 307l-0.000976562 -55.001c0 -7.33301 -1.16699 -12.333 -3.5 -15s-7.16602 -4 -14.499 -4h-179c-8 0 -13.167 1.33301 -15.5 4s-3.5 8.33398 -3.5 17.001v51c0 12.667 6 19 18 19h179c7.33301 0 12.333 -1 15 -3s4 -6.66699 4 -14z" />
    <glyph glyph-name="period" unicode="." horiz-adv-x="250" 
d="M198 66c-0.666992 -20 -7.83301 -36.999 -21.5 -50.999s-30.834 -21 -51.501 -21s-38.167 7.16699 -52.5 21.5s-21.5 32.166 -21.5 53.499c0 22.667 7.66699 40.667 23 54s32 20 50 20c20.667 0 38.334 -7.5 53.001 -22.5s21.667 -33.167 21 -54.5z" />
    <glyph glyph-name="slash" unicode="/" horiz-adv-x="458" 
d="M445 807l-355.001 -938c-4.66699 -8.66699 -9 -13 -13 -13c-1.33301 0 -4 0.666992 -8 2l-46 18c-8.66699 2.66699 -13 7 -13 13c0 2 0.666992 5 2 9l357 938c4.66699 8.66699 9.33398 13 14.001 13c2.66699 0 19 -5.66699 49 -17c10 -3.33301 15 -8 15 -14
c0 -3.33301 -0.666992 -7 -2 -11z" />
    <glyph glyph-name="zero" unicode="0" 
d="M491 355c0 -110 -19.168 -199.334 -57.501 -268.001s-92.5 -103 -162.5 -103c-66 0 -119.167 32.333 -159.5 97s-60.5 155.334 -60.5 272.001c0 118 20.333 209.167 61 273.5s94 96.5 160 96.5c70 0 123.833 -34 161.5 -102s56.834 -156.667 57.501 -266z
M364.999 364.999c0 74.667 -6.33301 137.999 -19 189.999c-14 62 -39.333 93 -76 93c-20 0 -37 -10 -51 -30s-23.667 -46.667 -29 -80s-9 -62.666 -11 -87.999s-3 -52 -3 -80c0 -78 6.33301 -145 19 -201c14.667 -66.667 40 -100 76 -100c24.667 0 43.667 13.667 57 41
c24.667 47.333 37 132.333 37 255z" />
    <glyph glyph-name="one" unicode="1" 
d="M251 23l-0.000976562 525.999c-83.333 -28.667 -140.333 -43 -171 -43c-13.333 0 -23.166 3.33301 -29.499 10s-9.5 14 -9.5 22c0 16.667 10 27.334 30 32.001c51.333 14.667 92.833 29.834 124.5 45.501s64.167 38.5 97.5 68.5c22 20.667 39 31 51 31
c20.667 0 31 -12.667 31 -38v-656c0 -8.66699 -1.66699 -14.334 -5 -17.001s-9 -4 -17 -4h-79c-8.66699 0 -14.667 1.5 -18 4.5s-5 9.16699 -5 18.5z" />
    <glyph glyph-name="two" unicode="2" 
d="M378 328l-167.999 -212.999h246c9.33301 0 15.5 -1.33301 18.5 -4s4.5 -8.33398 4.5 -17.001v-72c0 -8.66699 -1.16699 -14.5 -3.5 -17.5s-7.83301 -4.5 -16.5 -4.5h-387c-20 0 -30 7.66699 -30 23c0 6.66699 4.66699 16.667 14 30l209 275
c20 27.333 34.833 48.5 44.5 63.5s18.5 32.667 26.5 53s12 40.166 12 59.499c0 31.333 -9.33301 58 -28 80s-43.334 33 -74.001 33c-54 0 -90 -31.667 -108 -95c-2.66699 -10 -5 -17.667 -7 -23s-6 -10.666 -12 -15.999s-13.333 -8 -22 -8c-11.333 0 -20.5 4.33301 -27.5 13
s-10.5 21 -10.5 37c0 50 19.167 95.333 57.5 136s90.5 61 156.5 61c61.333 0 110 -18.167 146 -54.5s54 -79.833 54 -130.5c0 -26 -5.66699 -53 -17 -81s-22.333 -50 -33 -66s-25.667 -36.667 -45 -62z" />
    <glyph glyph-name="three" unicode="3" 
d="M345 405c32 -15.333 58.3311 -33.668 78.998 -55.001c39.333 -42 59 -91.333 59 -148c0 -25.333 -4.16699 -50.333 -12.5 -75s-21.333 -48 -39 -70s-42.167 -39.667 -73.5 -53s-67.666 -20 -108.999 -20c-60.667 0 -111 15.5 -151 46.5s-60 64.5 -60 100.5
c0 16.667 5.5 30.667 16.5 42s23.833 17 38.5 17c22 0 40 -12.667 54 -38c11.333 -19.333 20.166 -33.333 26.499 -42s17.333 -18 33 -28s33.167 -15 52.5 -15c30.667 0 55.167 10.5 73.5 31.5s27.5 46.833 27.5 77.5c0 74.667 -53.333 127.667 -160 159
c-7.33301 2 -12.666 3.83301 -15.999 5.5s-6.83301 4.66699 -10.5 9s-5.5 9.5 -5.5 15.5c0 5.33301 1.66699 10.166 5 14.499s6.5 7.33301 9.5 9s7.83301 4.16699 14.5 7.5c19.333 8 34.166 14.5 44.499 19.5s23.333 13 39 24s27.167 24 34.5 39s11 32.167 11 51.5
c0 26.667 -8.5 49.334 -25.5 68.001s-39.833 28 -68.5 28c-19.333 0 -36.333 -4.66699 -51 -14s-24.667 -18.166 -30 -26.499s-11.666 -19.833 -18.999 -34.5c-4.66699 -9.33301 -8.16699 -16 -10.5 -20s-6.16602 -8.16699 -11.499 -12.5s-11.333 -6.5 -18 -6.5
c-9.33301 0 -17.5 3.83301 -24.5 11.5s-10.5 18.5 -10.5 32.5c0 39.333 18 77 54 113s85.333 54 148 54c56 0 101.5 -15.333 136.5 -46s52.5 -69.667 52.5 -117c0 -61.333 -34.333 -113 -103 -155z" />
    <glyph glyph-name="four" unicode="4" 
d="M456 154l-52.0029 -0.000976562v-139c0 -8 -1.16699 -13.5 -3.5 -16.5s-8.16602 -4.5 -17.499 -4.5h-81c-7.33301 0 -12.166 1.33301 -14.499 4s-3.5 8 -3.5 16v140h-218c-27.333 0 -41 10.667 -41 32c0 7.33301 5.66699 21 17 41l280 460c12 18.667 26.333 28 43 28
c26 0 39 -15 39 -45v-443h51c8 0 13.5 -1.16699 16.5 -3.5s4.5 -7.16602 4.5 -14.499c0 -28 -0.333008 -43 -1 -45c-1.33301 -6.66699 -7.66602 -10 -18.999 -10zM127.997 226.999h160v290z" />
    <glyph glyph-name="five" unicode="5" 
d="M431 592h-254.001l-15 -183c44.667 16 84.334 24 119.001 24c60 0 110.333 -19.833 151 -59.5s61 -94.5 61 -164.5c0 -64 -20.5 -117.5 -61.5 -160.5s-98.5 -64.5 -172.5 -64.5c-62 0 -112.5 15 -151.5 45s-58.5 63.333 -58.5 100c0 19.333 5.83301 34 17.5 44
s24.167 15 37.5 15c18.667 0 35 -10.333 49 -31c11.333 -20 20.666 -35 27.999 -45s18.5 -19.833 33.5 -29.5s31.833 -14.5 50.5 -14.5c32 0 57.667 11.167 77 33.5s29 50.833 29 85.5c0 41.333 -13.667 76.5 -41 105.5s-63 43.5 -107 43.5c-22.667 0 -53 -5.66699 -91 -17
c-14 -4.66699 -23 -7 -27 -7c-19.333 0 -29 10.333 -29 31c0 3.33301 0.333008 10.333 1 21l25 320c0.666992 9.33301 3 15.333 7 18s10.667 4 20 4h302c8.66699 0 14.667 -1.5 18 -4.5s5 -8.5 5 -16.5v-69c0 -6 -0.333008 -10.5 -1 -13.5s-2.66699 -5.5 -6 -7.5
s-8.66602 -3 -15.999 -3z" />
    <glyph glyph-name="six" unicode="6" 
d="M177 356c47.333 32.667 93.333 49.002 138 49.002c51.333 0 94.333 -18 129 -54s52 -86 52 -150c0 -63.333 -19.5 -115.333 -58.5 -156s-91.5 -61 -157.5 -61c-62 0 -113.333 19.667 -154 59c-52 49.333 -78 124 -78 224c0 60.667 9.33301 117 28 169
s42.167 95.167 70.5 129.5s59.666 63.666 93.999 87.999s66.833 42 97.5 53s58.334 16.5 83.001 16.5c11.333 0 20.833 -2.66699 28.5 -8s11.5 -13 11.5 -23s-3.16699 -17.333 -9.5 -22s-16.5 -9.66699 -30.5 -15c-138 -50.667 -219.333 -150.334 -244 -299.001z
M170 289.002c-0.666992 -6 -1 -16.667 -1 -32c0 -28 2.83301 -55.333 8.5 -82s17.667 -51.334 36 -74.001s41.5 -34 69.5 -34s50.833 10.833 68.5 32.5s26.5 50.167 26.5 85.5c0 34.667 -9.33301 66.334 -28 95.001s-47.334 43 -86.001 43
c-31.333 0 -62.666 -11.333 -93.999 -34z" />
    <glyph glyph-name="seven" unicode="7" 
d="M131 45l243.002 549h-290c-8.66699 0 -14.334 1.5 -17.001 4.5s-4 8.83301 -4 17.5v70c0 8 1.33301 13.5 4 16.5s8.66699 4.5 18 4.5h382c22 0 33 -8.33301 33 -25c0 -7.33301 -4.66699 -21.333 -14 -42c-98.667 -223.333 -169 -421.666 -211 -594.999
c-4 -20 -7.83301 -32.5 -11.5 -37.5s-11.834 -7.5 -24.501 -7.5h-93c-15.333 0 -23 5.66699 -23 17c0 5.33301 2.66699 14.666 8 27.999z" />
    <glyph glyph-name="eight" unicode="8" 
d="M347 391l44.501 -31.502c9.66699 -7 22.5 -17.833 38.5 -32.5s27.667 -28.167 35 -40.5s14.166 -27.666 20.499 -45.999s9.5 -37.833 9.5 -58.5c0 -55.333 -20.5 -102.166 -61.5 -140.499s-97.5 -57.5 -169.5 -57.5c-71.333 0 -125.333 18.333 -162 55
s-55 79.667 -55 129c0 23.333 3.66699 44.833 11 64.5s18.833 37.834 34.5 54.501s29.667 30 42 40s29.5 22.667 51.5 38c-22 16 -39.667 30.333 -53 43s-26.5 31.834 -39.5 57.501s-19.5 53.5 -19.5 83.5c0 50 17.5 91.5 52.5 124.5s85.167 49.5 150.5 49.5
c61.333 0 108.5 -14.5 141.5 -43.5s49.5 -66.833 49.5 -113.5c0 -21.333 -3.16699 -40.833 -9.5 -58.5s-16.333 -33.834 -30 -48.501s-26 -26.334 -37 -35.001s-25.833 -19.667 -44.5 -33zM247.001 320.998c-22 -18 -38 -31.834 -48 -41.501s-19.333 -22.667 -28 -39
s-13 -33.833 -13 -52.5c0 -29.333 9.66699 -56.666 29 -81.999s47.666 -38 84.999 -38c31.333 0 56.5 9.16699 75.5 27.5s28.5 41.5 28.5 69.5c0 17.333 -2.83301 33 -8.5 47s-15.667 27.833 -30 41.5s-27.166 24.5 -38.499 32.5zM288.001 432.997
c51.333 31.333 77.001 70.667 77.001 118c0 28 -9 51.5 -27 70.5s-40.667 28.5 -68 28.5c-24.667 0 -45.834 -7.66699 -63.501 -23s-26.5 -36 -26.5 -62c0 -48 36 -92 108 -132z" />
    <glyph glyph-name="nine" unicode="9" 
d="M362 357c-48.667 -34 -94.667 -51 -138 -51c-52 0 -95 18.5 -129 55.5s-51 86.833 -51 149.5c0 60.667 19.167 111.167 57.5 151.5s91.833 60.5 160.5 60.5c75.333 0 132.333 -25 171 -75s58 -118 58 -204c0 -66 -10.167 -126.333 -30.5 -181s-45.5 -98.667 -75.5 -132
s-62.833 -61.5 -98.5 -84.5s-68.167 -39.167 -97.5 -48.5s-54.333 -14 -75 -14c-24.667 0 -37 10 -37 30c0 10 3.5 17.5 10.5 22.5s23.833 12.5 50.5 22.5c65.333 25.333 117 64 155 116s61 112.667 69 182zM369 424c2 60 -6 112.167 -24 156.5s-47.667 66.5 -89 66.5
c-28.667 0 -51.667 -11.167 -69 -33.5s-26 -50.5 -26 -84.5c0 -36 9.66699 -68.167 29 -96.5s48 -42.5 86 -42.5c31.333 0 62.333 11.333 93 34z" />
    <glyph glyph-name="colon" unicode=":" horiz-adv-x="292" 
d="M241 66c-0.666992 -20.667 -8 -37.834 -22 -51.501s-31.333 -20.5 -52 -20.5s-38.334 7.33301 -53.001 22s-22 32.334 -22 53.001c0 22.667 7.83301 40.667 23.5 54s32.834 20 51.501 20c20 0 37.5 -7.5 52.5 -22.5s22.167 -33.167 21.5 -54.5zM241 338
c-0.666992 -20.667 -8.16797 -37.832 -22.501 -51.499s-31.5 -20.5 -51.5 -20.5c-21.333 0 -39.166 7.16699 -53.499 21.5s-21.5 32.166 -21.5 53.499c0 22.667 8 40.667 24 54s33 20 51 20c20 0 37.5 -7.33301 52.5 -22s22.167 -33 21.5 -55z" />
    <glyph glyph-name="semicolon" unicode=";" horiz-adv-x="292" 
d="M121 29c-18 15.333 -27 32.666 -27 51.999c0 18.667 6.83301 33.834 20.5 45.501s29.167 17.5 46.5 17.5c22 0 40.833 -9 56.5 -27s23.5 -43 23.5 -75c0 -44.667 -15.833 -86.167 -47.5 -124.5s-58.167 -57.5 -79.5 -57.5c-8 0 -14 2.16699 -18 6.5s-6 9.5 -6 15.5
c0 7.33301 7.66699 21 23 41c20 27.333 30 49 30 65c0 13.333 -7.33301 27 -22 41zM244 338c-0.666992 -20.667 -8.16895 -37.833 -22.502 -51.5s-31.5 -20.5 -51.5 -20.5c-21.333 0 -39.166 7 -53.499 21s-21.5 32 -21.5 54c0 23.333 7.83301 41.5 23.5 54.5
s32.5 19.5 50.5 19.5c20.667 0 38.334 -7.5 53.001 -22.5s22 -33.167 22 -54.5z" />
    <glyph glyph-name="less" unicode="&#x3c;" horiz-adv-x="500" 
d="M500 155v-87l-500 242v86l500 242v-87l-401 -198z" />
    <glyph glyph-name="equal" unicode="=" horiz-adv-x="500" 
d="M500 238v-78h-500v78h500zM500 419v-78h-500v78h500z" />
    <glyph glyph-name="greater" unicode="&#x3e;" horiz-adv-x="500" 
d="M500 310l-500 -242v87l401 198l-401 198v87l500 -242v-86z" />
    <glyph glyph-name="question" unicode="?" horiz-adv-x="417" 
d="M177 260l-15.0059 132.001c0 2 -0.166992 4.5 -0.5 7.5s-0.5 5.16699 -0.5 6.5c0 15.333 8 28 24 38c20.667 13.333 36 24 46 32s20.167 20.333 30.5 37s15.5 34.667 15.5 54c0 22 -6.66699 41 -20 57s-31.333 24 -54 24c-12 0 -22.167 -2 -30.5 -6
s-15.166 -10.167 -20.499 -18.5s-8.83301 -14.333 -10.5 -18s-4.16699 -10.167 -7.5 -19.5c-4 -12.667 -7.33301 -22.167 -10 -28.5s-8 -12.833 -16 -19.5s-18 -10 -30 -10c-15.333 0 -28.333 5.5 -39 16.5s-16 25.5 -16 43.5c0 35.333 16.667 66.666 50 93.999
s81 41 143 41c60.667 0 105.834 -14.333 135.501 -43s44.5 -61 44.5 -97c0 -19.333 -4.66699 -37.833 -14 -55.5s-18.666 -31.5 -27.999 -41.5s-24.666 -24.333 -45.999 -43c-26 -23.333 -42.5 -45.5 -49.5 -66.5s-11.833 -53.833 -14.5 -98.5
c-1.33301 -18 -3.16602 -29 -5.49902 -33s-8.16602 -6 -17.499 -6h-30c-4.66699 0.666992 -8 2.16699 -10 4.5s-3.33301 7.83301 -4 16.5zM283.994 66.001c-0.666992 -20 -8.16699 -37 -22.5 -51s-31.833 -21 -52.5 -21c-21.333 0 -39 7.66699 -53 23s-21 33 -21 53
c0 20.667 7.33301 38.167 22 52.5s32 21.5 52 21.5c21.333 0 39.333 -7.5 54 -22.5s21.667 -33.5 21 -55.5z" />
    <glyph glyph-name="at" unicode="@" horiz-adv-x="896" 
d="M787 76l32.998 -40c-111.333 -106.667 -233.333 -160 -366 -160c-30.667 0 -62.167 3.16699 -94.5 9.5s-66.166 18.166 -101.499 35.499s-66.666 39 -93.999 65s-50 60.667 -68 104s-27 92.333 -27 147c0 60 11.333 118.5 34 175.5s53.834 107.667 93.501 152
s88.667 80 147 107s120.5 40.5 186.5 40.5c88.667 0 160.334 -25.833 215.001 -77.5s82 -122.167 82 -211.5s-23.667 -170.5 -71 -243.5s-100.333 -109.5 -159 -109.5c-53.333 0 -81.333 28.333 -84 85c-40 -56 -87.667 -84 -143 -84c-14 0 -27.667 2.33301 -41 7
s-27.333 12.5 -42 23.5s-26.334 28 -35.001 51s-13 50.833 -13 83.5c0 72 21.333 137 64 195s92 87 148 87c52 0 90 -28.333 114 -85l15 62h68l-33 -150c-18.667 -91.333 -28 -149.333 -28 -174c0 -14 3.16699 -24.5 9.5 -31.5s13.166 -10.5 20.499 -10.5
c30.667 0 63.667 30 99 90s53 127 53 201c0 77.333 -22.833 136.333 -68.5 177s-105.167 61 -178.5 61c-104 0 -196.167 -41.667 -276.5 -125s-120.5 -183.666 -120.5 -300.999c0 -96 31.667 -170.167 95 -222.5s141.333 -78.5 234 -78.5c121.333 0 232.333 48.333 333 145z
M540.998 348c0.666992 35.333 -7.49902 61.667 -24.499 79s-36.167 26 -57.5 26c-42 0 -76 -23.333 -102 -70s-39 -95.334 -39 -146.001c0 -21.333 3 -39.333 9 -54s13.667 -25.167 23 -31.5s17.666 -10.666 24.999 -12.999s14.333 -3.5 21 -3.5c38 0 71.5 21.5 100.5 64.5
s43.833 92.5 44.5 148.5z" />
    <glyph glyph-name="A" unicode="A" horiz-adv-x="604" 
d="M458 18l-73 203.001h-203l-71 -202c-3.33301 -8 -6.33301 -13.167 -9 -15.5s-8.33398 -3.5 -17.001 -3.5h-66c-12.667 0 -19 4.33301 -19 13c0 4.66699 2 11 6 19l244 655c2.66699 7.33301 5.5 12.333 8.5 15s8.16699 4 15.5 4h58c7.33301 0 12.333 -0.833008 15 -2.5
s5.66699 -5.83398 9 -12.501l244 -664c2.66699 -5.33301 4 -10 4 -14c0 -8.66699 -5.66699 -13 -17 -13h-101c-8.66699 0 -14.667 1 -18 3s-6.66602 7 -9.99902 15zM207 296.001h153l-77 231z" />
    <glyph glyph-name="B" unicode="B" horiz-adv-x="583" 
d="M58 43l0.000976562 622.997c0 10.667 1.33301 18.334 4 23.001s8 8.33398 16 11.001c28 9.33301 81.333 14 160 14c90.667 0 157 -13 199 -39c50.667 -30.667 76 -75.334 76 -134.001c0 -67.333 -35.667 -119 -107 -155c-2.66699 -1.33301 -6.5 -3 -11.5 -5
s-8.83301 -3.33301 -11.5 -4c2 -0.666992 5.5 -1.5 10.5 -2.5s8.83301 -1.83301 11.5 -2.5c48.667 -12.667 85.167 -35.667 109.5 -69s36.5 -71.333 36.5 -114c0 -78 -37.667 -133.667 -113 -167c-46.667 -19.333 -113.334 -29 -200.001 -29c-76 0 -128.667 4.33301 -158 13
c-9.33301 2.66699 -15.333 6.33398 -18 11.001s-4 13.334 -4 26.001zM191.001 631.997l0.000976562 -229.002c26.667 -1.33301 50 -1 70 1c25.333 2.66699 46.666 9 63.999 19s29.5 21.833 36.5 35.5s11.667 25.334 14 35.001s3.5 18.834 3.5 27.501
c0 26.667 -5.5 48.667 -16.5 66s-25.5 29 -43.5 35s-32 9.83301 -42 11.5s-20.667 2.5 -32 2.5c-16.667 0 -34.667 -1.33301 -54 -4zM191.002 333.995l-0.000976562 -255c20 -2.66699 41.667 -4 65 -4c48.667 0 86.834 10 114.501 30s41.5 51 41.5 93
c0 92 -59.667 138 -179 138c-9.33301 0 -23.333 -0.666992 -42 -2z" />
    <glyph glyph-name="C" unicode="C" horiz-adv-x="604" 
d="M479 548c-10 15.333 -17.8311 26.667 -23.498 34s-14.167 16.5 -25.5 27.5s-23.666 18.833 -36.999 23.5s-28.666 7 -45.999 7c-48 0 -88 -22.167 -120 -66.5s-48 -105.166 -48 -182.499c0 -94 20.5 -168.167 61.5 -222.5s92.167 -81.5 153.5 -81.5
c40.667 0 81 13.667 121 41c17.333 12 29.666 18 36.999 18c8.66699 0 16.167 -3 22.5 -9s9.5 -14 9.5 -24c0 -26.667 -20.833 -54.834 -62.5 -84.501s-95.167 -44.5 -160.5 -44.5c-54 0 -102.333 10.333 -145 31s-76.834 48.667 -102.501 84s-45.167 74.833 -58.5 118.5
s-20 90.167 -20 139.5c0 104.667 28.833 191.667 86.5 261s136.5 104 236.5 104c68 0 124 -15.833 168 -47.5s66 -64.5 66 -98.5c0 -16.667 -5.83301 -30.5 -17.5 -41.5s-25.834 -16.5 -42.501 -16.5c-22.667 0 -40.334 10 -53.001 30z" />
    <glyph glyph-name="D" unicode="D" horiz-adv-x="667" 
d="M58 36l0.000976562 629.001c0 16 5.66699 26 17 30c32.667 12.667 89.334 19 170.001 19c117.333 0 209.666 -30.333 276.999 -91c73.333 -65.333 110 -155.333 110 -270c0 -102.667 -31.667 -186.667 -95 -252c-72 -72.667 -177 -109 -315 -109
c-72 0 -120 4.33301 -144 13c-12.667 3.33301 -19.334 13.666 -20.001 30.999zM194.001 627.001l0.000976562 -545c9.33301 -0.666992 19.666 -1 30.999 -1c96 0 167 31 213 93c33.333 44.667 50 105.667 50 183c0 72 -17.333 133 -52 183c-45.333 60 -111.333 90 -198 90
c-3.33301 0 -18 -1 -44 -3z" />
    <glyph glyph-name="E" unicode="E" horiz-adv-x="479" 
d="M392 323l-199.002 -0.00195312v-232h237c6 0 10.333 -0.333008 13 -1s5 -2.5 7 -5.5s3 -7.5 3 -13.5v-58c-1.33301 -5.33301 -3.5 -8.83301 -6.5 -10.5s-8.5 -2.5 -16.5 -2.5h-348c-9.33301 0 -15.666 1.33301 -18.999 4s-5 9 -5 19v656
c0 10.667 1.66699 17.834 5 21.501s9.66602 5.83398 18.999 6.50098h348c6 0 10.333 -0.166992 13 -0.5s5 -2 7 -5s3 -7.5 3 -13.5v-49c0.666992 -9.33301 -0.666016 -15.333 -3.99902 -18s-9.66602 -4 -18.999 -4h-237v-206h200c8 0 13.5 -1.16699 16.5 -3.5
s4.5 -7.5 4.5 -15.5v-49c0 -8.66699 -1.5 -14.167 -4.5 -16.5s-8.83301 -3.5 -17.5 -3.5z" />
    <glyph glyph-name="F" unicode="F" horiz-adv-x="458" 
d="M384 323l-191.001 0.000976562v-302c0 -8.66699 -1.66699 -14.334 -5 -17.001s-9 -4 -17 -4h-91c-9.33301 -0 -15.333 1.33301 -18 4s-4 8.66699 -4 18v661c0 8.66699 1.5 14.667 4.5 18s8.83301 5.33301 17.5 6h343c8.66699 0 14.5 -1 17.5 -3s4.5 -7 4.5 -15v-49
c0 -8.66699 -1.16699 -14.667 -3.5 -18s-8.16602 -5 -17.499 -5h-231v-206h191c8.66699 0 14.5 -1 17.5 -3s4.5 -7 4.5 -15c0 -36 -0.333008 -55.333 -1 -58c-1.33301 -8 -8.33301 -12 -21 -12z" />
    <glyph glyph-name="G" unicode="G" horiz-adv-x="646" 
d="M477 161l-0.000976562 127h-106c-13.333 0 -20.666 4 -21.999 12c-0.666992 2.66699 -1 20 -1 52c0 8 1.66699 13 5 15s9.33301 3 18 3h212c9.33301 0 15.333 -1.66699 18 -5s4 -10 4 -20v-226c-0.666992 -25.333 -6.33398 -44.333 -17.001 -57
c-17.333 -20.667 -44.5 -38.834 -81.5 -54.501s-82.5 -23.5 -136.5 -23.5c-49.333 0 -93.5 7.33301 -132.5 22s-71 33.834 -96 57.501s-45.667 51.834 -62 84.501s-27.833 65.834 -34.5 99.501s-10 68.834 -10 105.501c0 108.667 29.833 197.5 89.5 266.5
s138.5 103.5 236.5 103.5c75.333 0 135 -17.167 179 -51.5s66 -67.833 66 -100.5c0 -17.333 -5.66699 -31.5 -17 -42.5s-25.333 -16.5 -42 -16.5c-11.333 0 -21.5 2.83301 -30.5 8.5s-15.5 11 -19.5 16s-9.33301 13.167 -16 24.5c-10 15.333 -18.667 27.5 -26 36.5
s-19.666 18.333 -36.999 28s-37 14.5 -59 14.5c-52 0 -94.667 -23.333 -128 -70s-50 -113.334 -50 -200.001s17.167 -157.334 51.5 -212.001s83.5 -82 147.5 -82c31.333 0 56 6.33301 74 19c10 7.33301 16.333 15.666 19 24.999s4 23 4 41z" />
    <glyph glyph-name="H" unicode="H" horiz-adv-x="625" 
d="M431 22v300.999h-238v-302c0 -8.66699 -1.5 -14.334 -4.5 -17.001s-8.5 -4 -16.5 -4h-93c-8 0 -13.667 1.33301 -17 4s-5 8.33398 -5 17.001v666c0 8 1.66699 13.333 5 16s9 4 17 4h93c8 0 13.5 -1.33301 16.5 -4s4.5 -8 4.5 -16v-276h238v274c0 6 0.333008 10.333 1 13
s2.5 4.83398 5.5 6.50098s7.5 2.5 13.5 2.5h94c8.66699 0 14.5 -1.16699 17.5 -3.5s4.5 -7.83301 4.5 -16.5v-667c0 -6 -1 -10.5 -3 -13.5s-4.16699 -4.83301 -6.5 -5.5s-6.16602 -1 -11.499 -1h-94c-8.66699 0 -14.334 1.5 -17.001 4.5s-4 8.83301 -4 17.5z" />
    <glyph glyph-name="I" unicode="I" horiz-adv-x="250" 
d="M194 685v-663.001c0 -8.66699 -1.83301 -14.5 -5.5 -17.5s-9.16699 -4.5 -16.5 -4.5h-93c-8 0.666992 -13.667 2.33398 -17 5.00098s-5 8.33398 -5 17.001v663c0.666992 8 2.16699 13.5 4.5 16.5s7.83301 4.5 16.5 4.5h95c8 0 13.5 -1.33301 16.5 -4
s4.5 -8.33398 4.5 -17.001z" />
    <glyph glyph-name="J" unicode="J" horiz-adv-x="250" 
d="M191 685l-0.00390625 -580.997c0 -19.333 -0.333008 -34 -1 -44c-2.66699 -49.333 -13 -93.833 -31 -133.5s-39.833 -70.834 -65.5 -93.501s-52 -40 -79 -52s-52.833 -18 -77.5 -18c-18 0 -30.5 3.66699 -37.5 11s-10.5 15 -10.5 23c0 14 8.33301 24 25 30
c30.667 12 54.334 25.667 71.001 41c20.667 19.333 36.334 43.666 47.001 72.999s16.834 52.833 18.501 70.5s2.83398 40.834 3.50098 69.501v604c0 8 1.33301 13.667 4 17s8 4.66602 16 3.99902h94c8.66699 0 14.5 -1.33301 17.5 -4s4.83301 -8.33398 5.5 -17.001z" />
    <glyph glyph-name="K" unicode="K" horiz-adv-x="562" 
d="M512 671l-203.002 -272l246 -367c4.66699 -8 7 -14 7 -18c0 -9.33301 -6 -14 -18 -14h-109c-10.667 0 -17.667 1 -21 3s-8.33301 8 -15 18l-209 326v-325c0 -8.66699 -1.66699 -14.5 -5 -17.5s-8.66602 -4.5 -15.999 -4.5h-90c-4.66699 -0 -8.33398 0.333008 -11.001 1
s-5 2.5 -7 5.5s-3 7.5 -3 13.5v665c0 8 1.66699 13.5 5 16.5s9 4.5 17 4.5h89c8.66699 0.666992 14.334 -0.5 17.001 -3.5s4 -8.5 4 -16.5v-281l208 281c6.66699 9.33301 11.834 15 15.501 17s10.5 3 20.5 3h70c12.667 1.33301 19 -3 19 -13
c0 -4.66699 -3.66699 -12 -11 -22z" />
    <glyph glyph-name="L" unicode="L" horiz-adv-x="458" 
d="M193 686l0.00195312 -594h229c8.66699 0 14.167 -1.33301 16.5 -4s3.5 -8 3.5 -16v-52c-0.666992 -8.66699 -2.33398 -14.167 -5.00098 -16.5s-8.33398 -3.5 -17.001 -3.5h-342c-7.33301 0 -12.5 1.16699 -15.5 3.5s-4.5 7.83301 -4.5 16.5v666c0 8 1.5 13.333 4.5 16
s8.5 4 16.5 4h93c8 0 13.5 -1.33301 16.5 -4s4.5 -8 4.5 -16z" />
    <glyph glyph-name="M" unicode="M" horiz-adv-x="792" 
d="M608 23l0.000976562 477.998l-197 -483c-4 -9.33301 -7.5 -15.333 -10.5 -18s-8.16699 -4 -15.5 -4c-12.667 0 -22 7.66699 -28 23l-197 482v-480c0 -8 -1.66699 -13.5 -5 -16.5s-8.66602 -4.5 -15.999 -4.5h-60c-8.66699 0 -14.334 1.5 -17.001 4.5s-4 9.16699 -4 18.5
v662c0 8 1.5 13.5 4.5 16.5s8.5 4.5 16.5 4.5h95c9.33301 0 15.666 -1.16699 18.999 -3.5s7 -8.16602 11 -17.499l194 -456l188 455c4 10 7.66699 16.167 11 18.5s9.66602 3.5 18.999 3.5h97c8.66699 0 14.334 -1.16699 17.001 -3.5s4 -7.5 4 -15.5v-666
c0 -9.33301 -1.5 -15.166 -4.5 -17.499s-9.5 -3.5 -19.5 -3.5h-80c-9.33301 0 -15.333 1.5 -18 4.5s-4 9.16699 -4 18.5z" />
    <glyph glyph-name="N" unicode="N" horiz-adv-x="667" 
d="M187 688l319 -447.001v445c0 7.33301 1.33301 12.5 4 15.5s8 4.5 16 4.5h63c8 0.666992 13.333 -0.5 16 -3.5s4 -8.5 4 -16.5v-666c0 -8 -1.5 -13.333 -4.5 -16s-8.5 -4 -16.5 -4h-56c-8.66699 1.33301 -17.334 8.33301 -26.001 21l-344 485v-484
c0 -8.66699 -1.33301 -14.5 -4 -17.5s-8 -4.5 -16 -4.5h-63c-8.66699 0 -14.5 1.16699 -17.5 3.5s-4.5 7.83301 -4.5 16.5v665c0 8.66699 1.66699 14.334 5 17.001s9 4 17 4h76c8.66699 0 14.834 -1 18.501 -3s8.16699 -7 13.5 -15z" />
    <glyph glyph-name="O" unicode="O" horiz-adv-x="708" 
d="M673 372c4.66699 -112 -23.166 -204.668 -83.499 -278.001s-138.5 -110 -234.5 -110c-90 0 -165.667 32.333 -227 97s-92 155 -92 271c0 107.333 28.667 196 86 266s135.666 105 234.999 105c95.333 0 170.833 -33.667 226.5 -101s85.5 -150.666 89.5 -249.999z
M532 369.999c-1.33301 80 -16.334 142.998 -45.001 188.998c-33.333 52 -77.666 78 -132.999 78c-27.333 0 -52.333 -6.66699 -75 -20c-68 -40 -102 -124.667 -102 -254c0 -37.333 2.66699 -71 8 -101c6.66699 -38 17.5 -70.167 32.5 -96.5s31.667 -45.166 50 -56.499
s34.5 -19.166 48.5 -23.499s27.333 -6.5 40 -6.5c58 0 103.667 29 137 87c27.333 49.333 40.333 117.333 39 204z" />
    <glyph glyph-name="P" unicode="P" 
d="M57 22l0.000976562 646c0 10 1 16.833 3 20.5s6.33301 6.83398 13 9.50098c29.333 10.667 87.666 16 174.999 16c188.667 0 283 -70 283 -210c0 -73.333 -26.167 -128 -78.5 -164s-119.5 -54 -201.5 -54c-12.667 0 -32 1 -58 3v-268
c0 -8.66699 -1.66699 -14.334 -5 -17.001s-9 -4 -17 -4h-92c-9.33301 0.666992 -15.333 2.5 -18 5.5s-4 8.5 -4 16.5zM193.001 632v-264c12 -2 25.667 -3 41 -3c105.333 0 158 46 158 138c0 88.667 -50.667 133 -152 133c-15.333 0 -31 -1.33301 -47 -4z" />
    <glyph glyph-name="Q" unicode="Q" horiz-adv-x="708" 
d="M450 -3c24 -82.667 96.334 -139.999 217.001 -171.999c14.667 -3.33301 25 -7 31 -11s9 -11 9 -21c0 -7.33301 -2.66699 -14 -8 -20s-14.333 -9 -27 -9c-7.33301 0 -20 1.5 -38 4.5s-43 9.33301 -75 19s-63.167 22 -93.5 37s-60.333 36.833 -90 65.5s-52.167 61 -67.5 97
c-48 8 -90 23.667 -126 47s-64.333 51.833 -85 85.5s-36.167 69.667 -46.5 108s-15.5 78.5 -15.5 120.5c0 118.667 30.333 210.667 91 276s137 98 229 98c94 0 170.333 -34 229 -102s88 -156 88 -264c0 -26 -1.83301 -51.667 -5.5 -77s-10.667 -52.5 -21 -81.5
s-23.5 -55.667 -39.5 -80s-37.333 -47.333 -64 -69s-57.334 -38.834 -92.001 -51.501zM531.001 360.001c0 85.333 -15.999 152.668 -47.999 202.001c-32.667 50.667 -75.667 76 -129 76c-55.333 0 -100 -26.333 -134 -79c-29.333 -46.667 -44 -114.334 -44 -203.001
c0 -87.333 14.667 -156 44 -206c33.333 -55.333 77.666 -83 132.999 -83c58.667 0 105 29.667 139 89c27.333 49.333 40.333 117.333 39 204z" />
    <glyph glyph-name="R" unicode="R" horiz-adv-x="562" 
d="M58 21l-0.000976562 644.997c0 11.333 1 19 3 23s6.66699 7.33301 14 10c27.333 10 82.333 15 165 15c95.333 0 164.333 -17 207 -51c43.333 -35.333 65 -84.333 65 -147c0 -50 -15.5 -90.667 -46.5 -122s-67.5 -53.666 -109.5 -66.999l187 -294
c5.33301 -8 8 -14.333 8 -19c0 -9.33301 -6.66699 -14 -20 -14h-101c-10 0.666992 -16.667 2 -20 4s-7.66602 7.33301 -12.999 16l-150 256c-9.33301 17.333 -21.333 26 -36 26c-14 0 -21 -8.66699 -21 -26v-252c0 -9.33301 -1.5 -15.666 -4.5 -18.999s-9.16699 -5 -18.5 -5
h-87c-8 0 -13.667 1.33301 -17 4s-5 8.33398 -5 17.001zM189.999 632.997l-0.000976562 -269c31.333 -0.666992 53 -0.333984 65 0.999023c34.667 4 63.667 17 87 39s35 54.333 35 97c0 25.333 -3.83301 47.166 -11.5 65.499s-16.5 31.833 -26.5 40.5
s-22.667 15.334 -38 20.001s-27.166 7.33398 -35.499 8.00098s-18.5 1 -30.5 1c-10 0 -25 -1 -45 -3z" />
    <glyph glyph-name="S" unicode="S" 
d="M292 430l46.9951 -23.002c18 -9.33301 32 -16.833 42 -22.5s23.833 -15.5 41.5 -29.5s31.167 -27.667 40.5 -41s18 -31 26 -53s12 -45.667 12 -71c0 -63.333 -21.667 -113.5 -65 -150.5s-98.666 -55.5 -165.999 -55.5c-72.667 0 -129 18.167 -169 54.5
s-60 72.833 -60 109.5c0 20 6.16699 35.167 18.5 45.5s25.833 15.5 40.5 15.5c12.667 0 23.834 -3.5 33.501 -10.5s16.5 -13.5 20.5 -19.5s9.66699 -15.333 17 -28c26 -54 62 -81 108 -81c27.333 0 49.833 8.66699 67.5 26s26.5 40 26.5 68c0 17.333 -2.66699 32.333 -8 45
s-15.166 24.834 -29.499 36.501s-27.166 21 -38.499 28s-30 17.167 -56 30.5l-55 28c-15.333 8.66699 -28.166 16.5 -38.499 23.5s-24.333 18.667 -42 35s-31.334 36.166 -41.001 59.499s-14.5 49 -14.5 77c0 59.333 19.833 106.666 59.5 141.999s91.167 53 154.5 53
c61.333 0 111.833 -14.167 151.5 -42.5s59.5 -58.5 59.5 -90.5c0 -16.667 -5.5 -30.5 -16.5 -41.5s-24.5 -16.5 -40.5 -16.5c-10.667 0 -20.167 2.5 -28.5 7.5s-14.333 9.83301 -18 14.5s-8.5 12 -14.5 22c-8 12.667 -15 22.834 -21 30.501s-16 15.834 -30 24.501
s-29.333 13 -46 13c-25.333 0 -46.166 -8.5 -62.499 -25.5s-24.5 -38.167 -24.5 -63.5c0 -15.333 2.66699 -29.166 8 -41.499s14.333 -23.5 27 -33.5s24.5 -18 35.5 -24s27.167 -14.333 48.5 -25z" />
    <glyph glyph-name="T" unicode="T" horiz-adv-x="500" 
d="M470 617h-152.001v-593c0 -8.66699 -1.5 -14.834 -4.5 -18.501s-8.5 -5.5 -16.5 -5.5h-91c-9.33301 0.666992 -15.666 2.5 -18.999 5.5s-5 9.16699 -5 18.5v593h-151c-8.66699 0 -14.5 1.66699 -17.5 5s-4.5 9 -4.5 17v47c0 8.66699 1.66699 14.334 5 17.001s9 4 17 4
h439c8 0 13.667 -1.16699 17 -3.5s5 -7.5 5 -15.5v-49c0 -8 -1.5 -13.667 -4.5 -17s-8.83301 -5 -17.5 -5z" />
    <glyph glyph-name="U" unicode="U" horiz-adv-x="583" 
d="M534 687l0.000976562 -480.003c-1.33301 -49.333 -8.33301 -86.333 -21 -111c-3.33301 -6.66699 -6.83301 -13.167 -10.5 -19.5s-11.334 -15.666 -23.001 -27.999s-24.834 -22.666 -39.501 -30.999s-34.834 -16 -60.501 -23s-54.167 -10.5 -85.5 -10.5
c-113.333 0 -187.666 37.333 -222.999 112c-14 29.333 -21 69 -21 119v472c0 8 1.33301 13.167 4 15.5s7.66699 3.5 15 3.5h98c8.66699 0 14.334 -1 17.001 -3s4 -7.33301 4 -16v-457c0 -12.667 0.5 -23.334 1.5 -32.001s3.66699 -20.667 8 -36s10.5 -27.666 18.5 -36.999
s20 -17.833 36 -25.5s35 -11.5 57 -11.5c78 0 117 44 117 132v465c0 8.66699 1.33301 14.334 4 17.001s8 4 16 4h67c8 0 13.5 -1.16699 16.5 -3.5s4.5 -7.5 4.5 -15.5z" />
    <glyph glyph-name="V" unicode="V" horiz-adv-x="562" 
d="M145 687l153.001 -464l153 464c2.66699 8 5.5 13.167 8.5 15.5s8.5 3.5 16.5 3.5h66c14 0 21 -4.33301 21 -13c0 -2.66699 -1.66699 -8 -5 -16l-228 -658c-3.33301 -8 -6.33301 -13.167 -9 -15.5s-8.33398 -3.5 -17.001 -3.5h-48c-4.66699 0.666992 -8 2 -10 4
s-4.33301 6.66699 -7 14l-235 659c-2.66699 8.66699 -4 14 -4 16c-0 8.66699 6.33301 13 19 13h99c8.66699 0 14.667 -1 18 -3s6.33301 -7.33301 9 -16z" />
    <glyph glyph-name="W" unicode="W" horiz-adv-x="833" 
d="M557 19l-142.997 427.003l-134 -426c-2.66699 -8 -5 -13 -7 -15s-5.33301 -3.33301 -10 -4c-2 -0.666992 -17 -1 -45 -1c-9.33301 0 -15.666 1.16699 -18.999 3.5s-6.33301 7.5 -9 15.5l-187 656c-2 7.33301 -3 12.666 -3 15.999c0 10 6.33301 15 19 15h94
c8.66699 0 14.5 -1.16699 17.5 -3.5s5.83301 -8.5 8.5 -18.5l115 -456l140 458c2.66699 8 5 13.333 7 16s5.66699 4 11 4h38c3.33301 -0.666992 5.66602 -2.33398 6.99902 -5.00098s3.66602 -8.66699 6.99902 -18l142 -455l116 458c2 8 4.5 13.333 7.5 16s8.16699 4 15.5 4
h68c13.333 0 20 -4.33301 20 -13c0 -2 -1 -8 -3 -18l-184 -655c-2.66699 -8 -5.33398 -13.333 -8.00098 -16s-7.33398 -4 -14.001 -4h-49c-5.33301 0.666992 -9 2.16699 -11 4.5s-4.33301 7.16602 -7 14.499z" />
    <glyph glyph-name="X" unicode="X" 
d="M393 20l-134.999 236l-139 -236c-5.33301 -8.66699 -9.5 -14.167 -12.5 -16.5s-8.5 -3.5 -16.5 -3.5h-69c-13.333 0 -20 4 -20 12c0 3.33301 3 9.66602 9 18.999l193 331l-171 316c-3.33301 6.66699 -5 11.334 -5 14.001c0 9.33301 6.33301 14 19 14h90c10 0 17 -1 21 -3
s8.33301 -7.33301 13 -16l110 -195l113 195c5.33301 8.66699 9.5 14 12.5 16s9.16699 3 18.5 3h69c12 0 18 -4.33301 18 -13c0 -3.33301 -2 -9 -6 -17l-168 -289l197 -356c4 -9.33301 6 -15 6 -17c0 -9.33301 -6.33301 -14 -19 -14h-96c-8.66699 0 -14.834 1 -18.501 3
s-8.16699 7.66699 -13.5 17z" />
    <glyph glyph-name="Y" unicode="Y" 
d="M533 675l-195 -361v-295c0 -8.66699 -1.66699 -14 -5 -16s-9 -3 -17 -3h-97c-8 -0 -13.333 1.33301 -16 4s-4 7.66699 -4 15v300l-191 356c-5.33301 8.66699 -8 14.667 -8 18c0 8.66699 6 13 18 13h107c8.66699 0 14.5 -1 17.5 -3s6.16699 -6.66699 9.5 -14l135 -258
l138 256c4.66699 8 8.5 13.167 11.5 15.5s8.5 3.5 16.5 3.5h69c12.667 0 19 -4 19 -12c0 -4 -2.66699 -10.333 -8 -19z" />
    <glyph glyph-name="Z" unicode="Z" horiz-adv-x="500" 
d="M474 675l-278.002 -584.002h257c4.66699 0 7.83398 -0.166992 9.50098 -0.5s3.66699 -0.833008 6 -1.5s3.83301 -2.16699 4.5 -4.5s1 -5.5 1 -9.5v-59c0 -5.33301 -1 -9.16602 -3 -11.499s-4.16699 -3.66602 -6.5 -3.99902s-6.16602 -0.5 -11.499 -0.5h-408
c-17.333 0 -26 4 -26 12c0 2 2.33301 8 7 18l279 587h-241c-8 0 -13.167 1.33301 -15.5 4s-3.5 8 -3.5 16v50c0 7.33301 1.33301 12.333 4 15s8 4 16 4h394c12.667 0 19 -4.66699 19 -14c0 -3.33301 -1.33301 -9 -4 -17z" />
    <glyph glyph-name="bracketleft" unicode="[" horiz-adv-x="292" 
d="M163 780v-853.999h91c7.33301 0 12.166 -1.16699 14.499 -3.5s3.5 -7.16602 3.5 -14.499c0 -18 -0.833008 -29 -2.5 -33s-7.16699 -6 -16.5 -6h-172c-7.33301 0 -12.5 1 -15.5 3s-4.5 6.66699 -4.5 14v933c0 7.33301 1.33301 12.166 4 14.499s7.66699 3.5 15 3.5h174
c8.66699 0 13.834 -1.83301 15.501 -5.5s2.5 -13.834 2.5 -30.501c0 -8 -1 -13.5 -3 -16.5s-7 -4.5 -15 -4.5h-91z" />
    <glyph glyph-name="backslash" unicode="\" horiz-adv-x="458" 
d="M436 -124l-46.001 -18.001c-4 -1.33301 -7 -2 -9 -2c-4 0 -8.33301 4.33301 -13 13l-354 938c-2 3.33301 -3 7 -3 11c0 6 5 10.667 15 14c32 11.333 48.333 17 49 17c4.66699 0 9.33398 -4.33301 14.001 -13l357 -938c1.33301 -4 2 -7 2 -9
c0 -5.33301 -4 -9.66602 -12 -12.999z" />
    <glyph glyph-name="bracketright" unicode="]" horiz-adv-x="292" 
d="M129 -74v854.999h-91c-7.33301 0 -12.166 1.16699 -14.499 3.5s-3.5 7.16602 -3.5 14.499c0 18 0.833008 29 2.5 33s7.16699 6 16.5 6h172c7.33301 0 12.5 -1 15.5 -3s4.5 -6.66699 4.5 -14v-934c0 -7.33301 -1.33301 -12.166 -4 -14.499s-7.66699 -3.5 -15 -3.5h-174
c-8.66699 0 -13.834 1.83301 -15.501 5.5s-2.5 13.834 -2.5 30.501c0 8 1 13.5 3 16.5s7 4.5 15 4.5h91z" />
    <glyph glyph-name="asciicircum" unicode="^" horiz-adv-x="729" 
d="M407 706l180 -369h-97l-124 259l-128 -259h-96l188 369h77z" />
    <glyph glyph-name="underscore" unicode="_" horiz-adv-x="500" 
d="M510 -75v-50h-520v50h520z" />
    <glyph glyph-name="grave" unicode="`" horiz-adv-x="271" 
d="M121 708l79 -84.999c9.33301 -10.667 14 -20.334 14 -29.001s-2.5 -15.167 -7.5 -19.5s-10.5 -6.5 -16.5 -6.5c-7.33301 0 -15.666 4 -24.999 12l-90 68c-12.667 12.667 -19 25.667 -19 39c0 11.333 3.16699 20.833 9.5 28.5s14.166 11.5 23.499 11.5
c10 0 20.667 -6.33301 32 -19z" />
    <glyph glyph-name="a" unicode="a" horiz-adv-x="458" 
d="M410 356l-0.00390625 -249.999c-0.666992 -24.667 -3.66699 -43.167 -9 -55.5s-17 -23.5 -35 -33.5c-36 -20 -85 -30 -147 -30c-9.33301 0 -18 0.333008 -26 1s-20.667 2 -38 4s-32.5 6.16699 -45.5 12.5s-26.5 14.333 -40.5 24s-24.833 23.167 -32.5 40.5
s-11.5 37 -11.5 59c0 40 14.667 74 44 102c14 14 32.5 26.333 55.5 37s44.833 19 65.5 25s54.667 15.333 102 28v51c0 12.667 -0.5 22.834 -1.5 30.501s-3.16699 17 -6.5 28s-9.5 19.167 -18.5 24.5s-20.5 8 -34.5 8c-11.333 0 -21.166 -1.66699 -29.499 -5
s-15.333 -8.83301 -21 -16.5s-9.5 -13.167 -11.5 -16.5s-4.66699 -9 -8 -17c-2.66699 -8.66699 -5.16699 -15 -7.5 -19s-5.5 -8.83301 -9.5 -14.5s-9.16699 -9.83398 -15.5 -12.501s-14.166 -4 -23.499 -4c-15.333 0 -28.166 4.83301 -38.499 14.5s-15.5 22.5 -15.5 38.5
c0 32 18.667 60.167 56 84.5s85 36.5 143 36.5c22 0 41.833 -2.16699 59.5 -6.5s32 -9.33301 43 -15s20.333 -13.834 28 -24.501s13.334 -20.167 17.001 -28.5s6.5 -19.666 8.5 -33.999s3.16699 -25.333 3.5 -33s0.5 -18.834 0.5 -33.501zM291.996 122.001v140.001
c-20 -6 -35.167 -10.833 -45.5 -14.5s-23 -9.16699 -38 -16.5s-26.167 -14.5 -33.5 -21.5s-13.833 -16.333 -19.5 -28s-8.5 -24.834 -8.5 -39.501c0 -25.333 7.33301 -46 22 -62s35 -24 61 -24c41.333 0 62 22 62 66z" />
    <glyph glyph-name="b" unicode="b" horiz-adv-x="521" 
d="M176 744l0.000976562 -274c42.667 40.667 89 61 139 61c54 0 96.333 -22.333 127 -67s46 -103.334 46 -176.001c0 -91.333 -22.5 -164.333 -67.5 -219s-106.5 -82 -184.5 -82c-65.333 0 -116.333 15.667 -153 47c-14 12 -22.5 24.167 -25.5 36.5s-4.5 34.833 -4.5 67.5
v606c0 8 1.33301 13.5 4 16.5s8 4.5 16 4.5h79c9.33301 0 15.666 -1.16699 18.999 -3.5s5 -8.16602 5 -17.499zM176.001 406v-239.999c0 -22.667 0.666992 -37.334 2 -44.001c3.33301 -20.667 12 -35.334 26 -44.001s28.333 -13 43 -13c32 0 59.667 17.167 83 51.5
s35 82.5 35 144.5c0 16.667 -1.16699 33.5 -3.5 50.5s-6.66602 36.333 -12.999 58s-17.333 39.334 -33 53.001s-34.834 20.5 -57.501 20.5c-24 0 -51.333 -12.333 -82 -37z" />
    <glyph glyph-name="c" unicode="c" horiz-adv-x="458" 
d="M323 380c-5.33301 12 -9.66797 20.9961 -13.001 26.9961s-8.5 13.167 -15.5 21.5s-14.833 14.5 -23.5 18.5s-18.667 6 -30 6c-30 0 -54.667 -15.333 -74 -46s-29 -68.334 -29 -113.001c0 -54 12.333 -100 37 -138s56.334 -57 95.001 -57c40 0 73.667 22.333 101 67
c5.33301 8 9 13.333 11 16s4.83301 5.33398 8.5 8.00098s7.83398 4 12.501 4c17.333 0 26 -11.667 26 -35c0 -16 -3.66699 -33.333 -11 -52s-18 -37.167 -32 -55.5s-33.833 -33.666 -59.5 -45.999s-54.167 -18.5 -85.5 -18.5c-66.667 0 -118.167 26 -154.5 78
s-54.5 115.667 -54.5 191c0 34.667 4.33301 67.834 13 99.501s21.5 60.834 38.5 87.501s40.5 48 70.5 64s64.333 24 103 24c52 0 93.167 -14.333 123.5 -43s45.5 -57.667 45.5 -87c0 -17.333 -5.33301 -31.166 -16 -41.499s-23.334 -15.5 -38.001 -15.5
c-22 0 -38.333 12 -49 36z" />
    <glyph glyph-name="d" unicode="d" horiz-adv-x="521" 
d="M469 744l0.00195312 -640.999c0 -34 -10.667 -58.667 -32 -74c-16.667 -12.667 -41 -22.834 -73 -30.501s-64.333 -11.5 -97 -11.5c-74.667 0 -132.5 22.667 -173.5 68s-61.5 108.666 -61.5 189.999c0 76 19.667 142.833 59 200.5s93.666 86.5 162.999 86.5
c30.667 0 61 -9 91 -27v237c0 8.66699 1.5 14.834 4.5 18.501s9.16699 5.5 18.5 5.5h77c9.33301 0 15.666 -1.5 18.999 -4.5s5 -8.83301 5 -17.5zM345.002 143.001l-0.000976562 296c-21.333 16.667 -43 25 -65 25c-38 0 -68 -18.833 -90 -56.5s-33 -84.5 -33 -140.5
c0 -62 11.5 -110.667 34.5 -146s53.5 -53 91.5 -53c14.667 0 26.5 2.16699 35.5 6.5s15.333 11 19 20s5.83398 16.667 6.50098 23s1 14.833 1 25.5z" />
    <glyph glyph-name="e" unicode="e" horiz-adv-x="479" 
d="M414 303l-276.999 -40.999c4 -32.667 11.167 -60.5 21.5 -83.5s22.5 -40 36.5 -51s27.333 -18.833 40 -23.5s26 -7 40 -7c46 0 85.667 22 119 66c8.66699 12 15 19.833 19 23.5s9 5.5 15 5.5c6.66699 0 12.667 -2.83301 18 -8.5s8 -13.167 8 -22.5
c0 -6.66699 -1.66699 -16.167 -5 -28.5s-9.83301 -27.166 -19.5 -44.499s-21.5 -33.333 -35.5 -48s-33.167 -27.167 -57.5 -37.5s-51.166 -15.5 -80.499 -15.5c-67.333 0 -121.5 23.833 -162.5 71.5s-61.5 114.834 -61.5 201.501c0 47.333 6.5 89.166 19.5 125.499
s30.5 64.666 52.5 84.999s45.833 35.5 71.5 45.5s52.5 15 80.5 15c36.667 0 68.5 -7.33301 95.5 -22s47 -32.834 60 -54.501s22.5 -42 28.5 -61s9 -35.833 9 -50.5c0 -10.667 -2.33301 -19.167 -7 -25.5s-8.83398 -10 -12.501 -11s-8.83398 -2.16699 -15.501 -3.5z
M132.001 324.001l192.001 31c-2 30.667 -11.333 55.167 -28 73.5s-36.334 27.5 -59.001 27.5c-32.667 0 -57.667 -12.5 -75 -37.5s-27.333 -56.5 -30 -94.5z" />
    <glyph glyph-name="f" unicode="f" horiz-adv-x="292" 
d="M276 462l-75.0039 0.00195312v-439c0 -10 -1.66699 -16.333 -5 -19s-8.66602 -4 -15.999 -4h-80c-8.66699 -0.666992 -14.5 0.666016 -17.5 3.99902s-4.5 9.66602 -4.5 18.999v439h-54c-8 0 -13.333 0.833008 -16 2.5s-4 6.5 -4 14.5c0 18 0.833008 29 2.5 33
s7.5 6 17.5 6h54c3.33301 71.333 15 126.333 35 165c13.333 24.667 31.833 46 55.5 64s50.834 27 81.501 27c18.667 0 33.334 -4.5 44.001 -13.5s16 -21.5 16 -37.5c0 -14.667 -4.66699 -25.834 -14 -33.501s-19.333 -11.5 -30 -11.5c-2 0 -8.16699 0.666992 -18.5 2
s-16.5 2 -18.5 2c-15.333 0 -27.833 -6 -37.5 -18s-14.5 -29.667 -14.5 -53c0 -39.333 7.33301 -70.333 22 -93h77c4.66699 0 8.16699 -0.166992 10.5 -0.5s4.5 -1.66602 6.5 -3.99902s3 -5.83301 3 -10.5c0 -19.333 -0.333008 -30 -1 -32
c-1.33301 -6 -7.66602 -9 -18.999 -9z" />
    <glyph glyph-name="g" unicode="g" horiz-adv-x="500" 
d="M484 463l-78 -21.0029c18 -32 27 -63.667 27 -95c0 -56 -19.167 -98.5 -57.5 -127.5s-82.166 -43.5 -131.499 -43.5c-14.667 0 -34 2 -58 6c-19.333 -22.667 -29 -39.334 -29 -50.001c0 -13.333 7.16699 -22 21.5 -26s39.833 -7 76.5 -9l91 -4
c12 -1.33301 22 -2.5 30 -3.5s20 -3 36 -6s29.167 -7.5 39.5 -13.5s21.166 -13.333 32.499 -22s20 -20.334 26 -35.001s9 -31 9 -49c0 -20 -5 -40.667 -15 -62s-25.667 -43.166 -47 -65.499s-52.833 -40.666 -94.5 -54.999s-90.167 -21.5 -145.5 -21.5
c-53.333 0 -99.333 9.33301 -138 28s-58 48.334 -58 89.001c0 46 31.333 87.667 94 125c-8.66699 2.66699 -16 5.33398 -22 8.00098s-13.333 6.83398 -22 12.501s-15.167 13 -19.5 22s-6.5 19.5 -6.5 31.5c0 33.333 30 74.333 90 123c-10.667 6 -18.5 10.833 -23.5 14.5
s-12 10.5 -21 20.5s-17.167 21.667 -24.5 35c-13.333 27.333 -20 56.333 -20 87c0 50.667 17.167 92.5 51.5 125.5s80.833 49.5 139.5 49.5c30 0 60 -5.33301 90 -16c24.667 -8.66699 44.334 -13 59.001 -13c6 0 23.167 2.5 51.5 7.5s42.833 7.5 43.5 7.5
c5.33301 0.666992 8.66602 -1.33301 9.99902 -6c5.33301 -16 8 -28 8 -36c0 -5.33301 -5 -9.33301 -15 -12zM172 -12.0029v1c-16 -15.333 -27.333 -28 -34 -38s-10 -22 -10 -36c0 -24.667 12.167 -43.667 36.5 -57s55.5 -20 93.5 -20c37.333 0 71.5 8.5 102.5 25.5
s46.5 37.833 46.5 62.5c0 10.667 -2.33301 19.5 -7 26.5s-11.667 12.333 -21 16s-16 6 -20 7s-10.667 2.16699 -20 3.5s-38 3 -86 5s-75 3.33301 -81 4zM318 375.997c-5.33301 27.333 -15.334 49.166 -30.001 65.499s-32.667 24.5 -54 24.5s-39.666 -7.83301 -54.999 -23.5
s-23 -38.167 -23 -67.5c0 -35.333 8.83301 -64.833 26.5 -88.5s39.167 -35.5 64.5 -35.5c24 0 42.333 8.33301 55 25s19 38.334 19 65.001c0 11.333 -1 23 -3 35z" />
    <glyph glyph-name="h" unicode="h" horiz-adv-x="521" 
d="M342 22l0.00390625 316.001c0 33.333 -4.33301 57 -13 71c-14.667 23.333 -36.334 35 -65.001 35s-57.334 -13 -86.001 -39v-381c0 -8.66699 -1.33301 -14.834 -4 -18.501s-8.33398 -5.5 -17.001 -5.5h-83c-8 -0 -13.5 1.33301 -16.5 4s-4.5 9 -4.5 19v722
c0 13.333 7 20 21 20h83c8.66699 0 14.334 -1.16699 17.001 -3.5s4 -7.5 4 -15.5v-272c42 38 89.667 57 143 57s93 -19.333 119 -58c18.667 -27.333 28 -64 28 -110v-339c0 -10 -1.33301 -16.5 -4 -19.5s-8.33398 -4.5 -17.001 -4.5h-81
c-10.667 0 -17.334 1.16699 -20.001 3.5s-4 8.5 -4 18.5z" />
    <glyph glyph-name="i" unicode="i" horiz-adv-x="229" 
d="M179 496l0.000976562 -474.001c0 -8.66699 -1.33301 -14.5 -4 -17.5s-8.66699 -4.5 -18 -4.5h-87c-7.33301 0 -12 1.33301 -14 4s-3 8.33398 -3 17.001v476c0 8 1.16699 13.5 3.5 16.5s7.5 4.5 15.5 4.5h85c9.33301 0 15.166 -1.5 17.499 -4.5
s3.83301 -8.83301 4.5 -17.5zM181.001 652.999c0.666992 -18.667 -5.16797 -33.834 -17.501 -45.501s-28.166 -17.5 -47.499 -17.5c-20.667 0 -37.167 5.5 -49.5 16.5s-18.5 25.5 -18.5 43.5s6 33 18 45s28.667 18 50 18c20.667 0 36.5 -5.66699 47.5 -17
s16.833 -25.666 17.5 -42.999z" />
    <glyph glyph-name="j" unicode="j" horiz-adv-x="229" 
d="M178 495v-362.999c-0.666992 -35.333 -1.5 -61.5 -2.5 -78.5s-4.16699 -39.333 -9.5 -67s-12.666 -52.834 -21.999 -75.501c-21.333 -49.333 -49 -86.5 -83 -111.5s-64.667 -37.5 -92 -37.5c-11.333 0 -19.833 2.83301 -25.5 8.5s-8.5 12.167 -8.5 19.5
c0 11.333 6 20.666 18 27.999c40 26.667 66 59.834 78 99.501s18.667 106.167 20 199.5v378c0 9.33301 1.5 15.5 4.5 18.5s9.16699 4.5 18.5 4.5h83c9.33301 0 15.166 -1.66699 17.499 -5s3.5 -9.33301 3.5 -18zM182 653.001c0.666992 -18 -5.16699 -33 -17.5 -45
s-28.5 -18 -48.5 -18s-36.167 5.5 -48.5 16.5s-18.5 25.5 -18.5 43.5s6 33 18 45s28.333 18 49 18s36.667 -6 48 -18s17.333 -26 18 -42z" />
    <glyph glyph-name="k" unicode="k" horiz-adv-x="500" 
d="M474 485l-174.999 -186.999l206 -268c6 -8.66699 9 -14.334 9 -17.001c0 -8.66699 -6.66699 -13 -20 -13h-104c-9.33301 -0 -15.833 0.833008 -19.5 2.5s-8.16699 5.83398 -13.5 12.501l-180 240v-236c0 -8.66699 -1.5 -14 -4.5 -16s-8.83301 -3 -17.5 -3h-80
c-8.66699 0 -14.334 1.33301 -17.001 4s-4 8 -4 16v726c0 8 1.5 13.167 4.5 15.5s8.16699 3.5 15.5 3.5h81c6 0 10.167 -0.166992 12.5 -0.5s4.5 -1.83301 6.5 -4.5s3 -7 3 -13v-449l180 200c8 8.66699 14.167 14.167 18.5 16.5s11.5 3.5 21.5 3.5h68
c13.333 0 20 -4.33301 20 -13c0 -4.66699 -3.66699 -11.334 -11 -20.001z" />
    <glyph glyph-name="l" unicode="l" horiz-adv-x="229" 
d="M52 21v725.002c0 8 1.5 13.167 4.5 15.5s9.16699 3.5 18.5 3.5h79c9.33301 0 15.333 -1 18 -3s4 -7.33301 4 -16v-725c0 -8.66699 -1.5 -14.334 -4.5 -17.001s-8.83301 -4 -17.5 -4h-79c-9.33301 0 -15.5 1.16699 -18.5 3.5s-4.5 8.16602 -4.5 17.499z" />
    <glyph glyph-name="m" unicode="m" horiz-adv-x="792" 
d="M52 21l0.00390625 396.004c0.666992 22.667 2.16699 38 4.5 46s9.5 16.333 21.5 25c18.667 14 44.834 24.667 78.501 32s64.167 11 91.5 11c30.667 0 57.667 -3.83301 81 -11.5s39 -14.667 47 -21s17 -14.5 27 -24.5c22 22 48.333 37.333 79 46
c25.333 7.33301 54.666 11 87.999 11c51.333 0 91 -11 119 -33c32.667 -26.667 49 -71 49 -133v-344c0 -8 -1.33301 -13.5 -4 -16.5s-8 -4.5 -16 -4.5h-83c-8.66699 0 -14.334 1.5 -17.001 4.5s-4 8.83301 -4 17.5v327c0 11.333 -0.166992 20.666 -0.5 27.999
s-2 16.666 -5 27.999s-7 20.166 -12 26.499s-12.833 12 -23.5 17s-23.334 7.5 -38.001 7.5c-22.667 0 -41.334 -6.66699 -56.001 -20c-10 -8.66699 -16.167 -17.834 -18.5 -27.501s-3.5 -24.167 -3.5 -43.5v-343c0 -8.66699 -1.33301 -14.5 -4 -17.5s-8 -4.5 -16 -4.5h-80
c-8.66699 -0 -14.834 1.33301 -18.501 4s-5.5 8.33398 -5.5 17.001v334c0 69.333 -26 104 -78 104c-22.667 0 -41 -6.66699 -55 -20c-16 -14.667 -24 -39.334 -24 -74.001v-343c0 -8.66699 -1.5 -14.5 -4.5 -17.5s-8.83301 -4.5 -17.5 -4.5h-80
c-9.33301 0 -15.333 1.5 -18 4.5s-4 8.5 -4 16.5z" />
    <glyph glyph-name="n" unicode="n" horiz-adv-x="521" 
d="M467 373l0.000976562 -352.001c0 -8.66699 -1.5 -14.334 -4.5 -17.001s-8.83301 -4 -17.5 -4h-80c-9.33301 0 -15.333 1.66699 -18 5s-4 9.33301 -4 18v338c0 14 -0.666992 25.333 -2 34s-4.33301 19 -9 31s-13.334 21.167 -26.001 27.5s-29 9.5 -49 9.5
c-53.333 0 -80 -28 -80 -84v-355c0 -10 -1.66699 -16.5 -5 -19.5s-9.66602 -4.5 -18.999 -4.5h-79c-8 0 -13.5 1.33301 -16.5 4s-4.5 8.33398 -4.5 17.001v395c0 16 0.666992 28 2 36s5.5 16.333 12.5 25s17.833 16.334 32.5 23.001c45.333 20.667 101.666 31 168.999 31
c70 0 120.667 -13 152 -39c14 -11.333 24.667 -24.833 32 -40.5s11.5 -28.667 12.5 -39s1.5 -23.5 1.5 -39.5z" />
    <glyph glyph-name="o" unicode="o" 
d="M509 265c1.33301 -77.333 -19.5 -143 -62.5 -197s-101.833 -81 -176.5 -81c-72 0 -129.667 25.667 -173 77s-65 116.333 -65 195c0 79.333 22 144.5 66 195.5s102 76.5 174 76.5c51.333 0 95.5 -14.167 132.5 -42.5s63.333 -61.833 79 -100.5s24.167 -79.667 25.5 -123z
M379 271c-2.66699 58 -14.5 103.503 -35.5 136.503s-46.833 49.5 -77.5 49.5c-32.667 0 -58.334 -17.333 -77.001 -52s-28 -78.334 -28 -131.001c0 -56.667 10.833 -104.834 32.5 -144.501s48.834 -59.5 81.501 -59.5c32 0 58 19.167 78 57.5s28.667 86.166 26 143.499z" />
    <glyph glyph-name="p" unicode="p" horiz-adv-x="521" 
d="M54 -214l-0.000976562 614.999c0 36 4 59.333 12 70c10.667 15.333 34.334 29.166 71.001 41.499s76.334 18.5 119.001 18.5c71.333 0 126.666 -19.667 165.999 -59c44.667 -43.333 67 -107 67 -191c0 -48 -7.66699 -93.667 -23 -137s-40.333 -80.166 -75 -110.499
s-75.667 -45.5 -123 -45.5c-34 0 -64.333 8.66699 -91 26v-228c0 -8 -1.5 -13.5 -4.5 -16.5s-8.16699 -4.5 -15.5 -4.5h-78c-9.33301 0 -15.833 1.33301 -19.5 4s-5.5 8.33398 -5.5 17.001zM176.999 387.999l0.000976562 -297c25.333 -15.333 49 -23 71 -23
c36 0 64 18.333 84 55s30 83 30 139c0 65.333 -11.833 114.333 -35.5 147s-52.834 49 -87.501 49c-18.667 0 -33 -4.33301 -43 -13s-15.667 -17 -17 -25s-2 -18.667 -2 -32z" />
    <glyph glyph-name="q" unicode="q" horiz-adv-x="521" 
d="M345 -214l0.00195312 258c-44 -38 -87.333 -57 -130 -57c-57.333 0 -102.166 23.5 -134.499 70.5s-48.5 104.833 -48.5 173.5c0 33.333 4.5 66.5 13.5 99.5s22.833 65 41.5 96s45.334 56.167 80.001 75.5s74.667 29 120 29c60 0 108.667 -14.333 146 -43
c15.333 -12 25 -24.833 29 -38.5s6 -33.167 6 -58.5v-605c0 -6 -0.833008 -10.5 -2.5 -13.5s-3.83398 -4.83301 -6.50098 -5.5s-7.33398 -1 -14.001 -1h-77c-6.66699 0 -11.334 0.333008 -14.001 1s-4.83398 2.5 -6.50098 5.5s-2.5 7.5 -2.5 13.5zM345.002 119
l-0.00195312 251.002c0 12 -0.5 21.667 -1.5 29s-3.33301 16.166 -7 26.499s-10.167 18.166 -19.5 23.499s-21.666 8 -36.999 8c-39.333 0 -69.666 -20.167 -90.999 -60.5s-32 -87.5 -32 -141.5c0 -47.333 9.5 -88 28.5 -122s45.5 -51 79.5 -51c27.333 0 54 12.333 80 37z
" />
    <glyph glyph-name="r" unicode="r" horiz-adv-x="375" 
d="M178 408l0.000976562 -387.002c-0.666992 -8 -2.33398 -13.5 -5.00098 -16.5s-8 -4.5 -16 -4.5h-82c-8.66699 0 -14.5 1.33301 -17.5 4s-4.5 8.33398 -4.5 17.001v418c0 16 1.83301 28 5.5 36s11.5 15 23.5 21c42 23.333 103 35 183 35s120 -25 120 -75
c0 -15.333 -4.83301 -28.166 -14.5 -38.499s-22.5 -15.5 -38.5 -15.5c-8.66699 0 -16.167 1.83301 -22.5 5.5s-11 7.5 -14 11.5s-7.83301 11 -14.5 21c-14 18.667 -30.667 28 -50 28c-12 0 -22 -1.83301 -30 -5.5s-13.5 -9 -16.5 -16s-4.83301 -13 -5.5 -18
s-1 -11.833 -1 -20.5z" />
    <glyph glyph-name="s" unicode="s" horiz-adv-x="437" 
d="M233 321l49.998 -23c16 -7.33301 29 -14.166 39 -20.499s22 -15.666 36 -27.999s24.667 -27.333 32 -45s11 -37.834 11 -60.501c0 -16 -2.5 -32.167 -7.5 -48.5s-13.667 -33.166 -26 -50.499s-31 -31.333 -56 -42s-55.167 -16 -90.5 -16
c-61.333 0 -107.666 13.5 -138.999 40.5s-47 53.833 -47 80.5c0 15.333 4.83301 28.166 14.5 38.499s21.834 15.5 36.501 15.5c8.66699 0 16.834 -2.16699 24.501 -6.5s13.167 -8.66602 16.5 -12.999l15 -19.5c10.667 -14.667 18.667 -25.334 24 -32.001
s13.166 -13 23.499 -19s21.833 -9 34.5 -9c18 0 33 5.83301 45 17.5s18 26.5 18 44.5c0 22 -10.667 42.667 -32 62c-8.66699 6 -42 23 -100 51c-73.333 34 -110 82.667 -110 146c0 40 14.333 74.5 43 103.5s72.334 43.5 131.001 43.5c54.667 0 96 -11.667 124 -35
s42 -47.333 42 -72c0 -14 -4.5 -25.667 -13.5 -35s-20.5 -14 -34.5 -14s-24.833 3.5 -32.5 10.5s-15.167 17.167 -22.5 30.5c-17.333 32.667 -40 49 -68 49c-18.667 0 -33.334 -6.33301 -44.001 -19s-16 -26.334 -16 -41.001c0 -15.333 4.66699 -29 14 -41
s18.5 -20.5 27.5 -25.5s21.5 -10.833 37.5 -17.5z" />
    <glyph glyph-name="t" unicode="t" horiz-adv-x="292" 
d="M267 463l-77.9971 0.00195312v-309c0 -62 22.667 -94 68 -96c10.667 0 18.5 -0.333008 23.5 -1s9.66699 -3 14 -7s6.5 -10 6.5 -18c0 -12.667 -10.333 -23.167 -31 -31.5s-42.334 -12.5 -65.001 -12.5c-48 0 -84.333 14.667 -109 44c-19.333 23.333 -29 57.333 -29 102
v329h-48c-8.66699 0 -13.834 2 -15.501 6s-2.5 15 -2.5 33c0 10.667 5.66699 16 17 16h49v56c0 9.33301 1.16699 16.166 3.5 20.499s7.16602 9.16602 14.499 14.499l72 46c8.66699 5.33301 14.667 8 18 8c9.33301 0 14 -9.33301 14 -28v-117h76
c4.66699 0 8 -0.166992 10 -0.5s4 -1.5 6 -3.5s3 -5.33301 3 -10c0 -19.333 -0.833008 -31 -2.5 -35s-6.5 -6 -14.5 -6z" />
    <glyph glyph-name="u" unicode="u" horiz-adv-x="521" 
d="M469 497l-0.000976562 -373c0 -26 -2.16699 -45.833 -6.5 -59.5s-15.166 -26.5 -32.499 -38.5c-42.667 -26 -100.334 -39 -173.001 -39c-45.333 0 -82.833 5.16699 -112.5 15.5s-50.667 24.833 -63 43.5s-20.333 35.5 -24 50.5s-5.5 32.833 -5.5 53.5v349
c0 12.667 7 19 21 19h82c8 0.666992 13.667 -0.5 17 -3.5s5 -8.5 5 -16.5v-335c0 -12 0.666992 -21.833 2 -29.5s4.33301 -17.167 9 -28.5s13.5 -20 26.5 -26s29.5 -9 49.5 -9c18.667 0 34 2.33301 46 7s20.333 11.834 25 21.501s7.5 18 8.5 25s1.5 16.167 1.5 27.5v346
c0 8 1.5 13.5 4.5 16.5s8.5 4.5 16.5 4.5h79c8.66699 0 14.834 -1.33301 18.501 -4s5.5 -8.33398 5.5 -17.001z" />
    <glyph glyph-name="v" unicode="v" horiz-adv-x="458" 
d="M135 500l109.996 -344.002l109 347c2.66699 6.66699 5.33398 10.834 8.00098 12.501s7.66699 2.5 15 2.5h64c11.333 0 17 -4 17 -12c0 -4.66699 -1.33301 -10 -4 -16l-164 -473c-3.33301 -7.33301 -6.16602 -12 -8.49902 -14s-7.16602 -3 -14.499 -3h-69
c-8 0 -13.167 0.833008 -15.5 2.5s-4.83301 6.16699 -7.5 13.5l-171 472c-2.66699 8.66699 -4 14.334 -4 17.001c0 8.66699 6 13 18 13h93c8 0 13.333 -1 16 -3s5.33398 -7 8.00098 -15z" />
    <glyph glyph-name="w" unicode="w" horiz-adv-x="688" 
d="M429 19l-84.999 268.002l-85 -270c-2.66699 -7.33301 -5.16699 -12 -7.5 -14s-7.16602 -3 -14.499 -3h-63c-7.33301 0 -12.333 1.16699 -15 3.5s-5.33398 7.16602 -8.00098 14.499l-147 468c-2.66699 8.66699 -4 14.667 -4 18c0 9.33301 6.66699 14 20 14h83
c6.66699 0 11.5 -0.333008 14.5 -1s5.83301 -2.5 8.5 -5.5s4.66699 -7.5 6 -13.5l92 -335l101 335c4 11.333 8.33301 17.666 13 18.999c1.33301 0.666992 12.666 1 33.999 1c5.33301 0 9 -1 11 -3s4.33301 -7 7 -15l104 -337l92 335c2 8 4.33301 13.333 7 16s7.66699 4 15 4
h59c13.333 0 20 -4 20 -12c0 -2.66699 -1.33301 -8.66699 -4 -18l-145 -469c-2.66699 -8 -5.16699 -13.167 -7.5 -15.5s-6.83301 -3.5 -13.5 -3.5h-64c-7.33301 0 -12.5 1.16699 -15.5 3.5s-5.83301 7.5 -8.5 15.5z" />
    <glyph glyph-name="x" unicode="x" horiz-adv-x="437" 
d="M297 16l-88 152.999l-102 -153c-5.33301 -7.33301 -9.16602 -11.833 -11.499 -13.5s-7.5 -2.5 -15.5 -2.5h-62c-11.333 0 -17 3.66699 -17 11c0 2.66699 2.66699 8.33398 8 17.001l149 226l-137 232c-4.66699 8 -7 14.333 -7 19c0 8.66699 6 13 18 13h87
c8 0 13.5 -1 16.5 -3s6.83301 -6.66699 11.5 -14l83 -140l90 140c4 6 7 9.83301 9 11.5s4.33301 3 7 4s7 1.5 13 1.5h56c12 0 18 -4 18 -12c0 -4.66699 -3 -11 -9 -19l-133 -208l148 -250c5.33301 -9.33301 8 -15.333 8 -18c0 -7.33301 -5.66699 -11 -17 -11h-93
c-10 0 -16.333 0.666992 -19 2s-6.33398 6 -11.001 14z" />
    <glyph glyph-name="y" unicode="y" horiz-adv-x="479" 
d="M474 485l-200.001 -554.001c-6.66699 -17.333 -12.334 -31.5 -17.001 -42.5s-12.5 -25.667 -23.5 -44s-22.667 -33 -35 -44s-28.166 -20.833 -47.499 -29.5s-40.666 -13 -63.999 -13c-29.333 0 -51.333 6 -66 18s-22 26.667 -22 44c0 15.333 5.16699 28.166 15.5 38.499
s23.166 15.5 38.499 15.5c4.66699 0 14.5 -1.83301 29.5 -5.5s25.167 -5.5 30.5 -5.5c19.333 0 35.5 8.83301 48.5 26.5s26.833 48.834 41.5 93.501l-193 503c-3.33301 9.33301 -5 15.333 -5 18c0 9.33301 6.33301 14 19 14h92c6.66699 0 11.334 -0.666992 14.001 -2
s4.66699 -3 6 -5s3.33301 -7 6 -15l118 -346l111 346c3.33301 9.33301 6.5 15.333 9.5 18s9.16699 4 18.5 4h60c13.333 0 20 -4.66699 20 -14c0 -3.33301 -1.66699 -9.66602 -5 -18.999z" />
    <glyph glyph-name="z" unicode="z" horiz-adv-x="417" 
d="M382 486l-200.001 -415h186c13.333 0 20 -5.33301 20 -16c0 -28.667 -0.333008 -44 -1 -46c-1.33301 -6 -7.66602 -9 -18.999 -9h-325c-12 0 -18 4 -18 12c0 2.66699 2.33301 9.33398 7 20.001l203 415h-173c-7.33301 0 -12.333 1 -15 3s-4 6.33301 -4 13
c0 27.333 0.333008 41.666 1 42.999c0.666992 8 6.66699 12 18 12h304c14.667 0 22 -4.66699 22 -14c0 -4 -2 -10 -6 -18z" />
    <glyph glyph-name="braceleft" unicode="{" horiz-adv-x="292" 
d="M175 643v-61.0029c0 -26.667 -0.166992 -45.834 -0.5 -57.501s-1 -26.834 -2 -45.501s-2.66699 -32 -5 -40s-5.66602 -17.833 -9.99902 -29.5s-9.66602 -20.167 -15.999 -25.5s-14 -10.666 -23 -15.999s-19.833 -9.33301 -32.5 -12v-4
c14.667 -3.33301 27.334 -8.16602 38.001 -14.499s19.167 -14.166 25.5 -23.499s11.333 -20.333 15 -33s6.16699 -26.667 7.5 -42s2.33301 -32.5 3 -51.5s0.666992 -39.5 0 -61.5v-62c0 -22.667 0.166992 -39.167 0.5 -49.5s1.83301 -22.833 4.5 -37.5
s6.66699 -25.167 12 -31.5s13 -12.5 23 -18.5s22.667 -9.66699 38 -11c11.333 -1.33301 18.166 -2.66602 20.499 -3.99902s3.5 -6 3.5 -14c0 -16 -1.66699 -25.333 -5 -28c-2.66699 -0.666992 -8.33398 -1 -17.001 -1c-20 0 -38 1.16699 -54 3.5s-30 5.16602 -42 8.49902
s-22.667 8.83301 -32 16.5s-17 14.334 -23 20.001s-11 14.167 -15 25.5s-7.16699 20.666 -9.5 27.999s-4 18.5 -5 33.5s-1.66699 26.5 -2 34.5s-0.5 20.667 -0.5 38v96c0 24.667 -0.5 44.334 -1.5 59.001s-3.66699 29.5 -8 44.5s-11 26.667 -20 35
s-20.833 13.833 -35.5 16.5c-10 2 -16 4.66699 -18 8s-3 12.333 -3 27c0.666992 6.66699 2 10.667 4 12s8 3 18 5c15.333 3.33301 27.666 9.5 36.999 18.5s15.833 21.833 19.5 38.5s5.83398 31.167 6.50098 43.5s1 30.5 1 54.5v95c0 45.333 2 79.166 6 101.499
s13.667 42.5 29 60.5c28 31.333 72 47 132 47c25.333 0 38 -4 38 -12v-22c0 -5.33301 -1.33301 -8.66602 -4 -9.99902s-9.33398 -2.33301 -20.001 -3c-15.333 -1.33301 -28 -5 -38 -11s-17.667 -12.5 -23 -19.5s-9.33301 -18 -12 -33s-4.16699 -27.667 -4.5 -38
s-0.5 -26.166 -0.5 -47.499z" />
    <glyph glyph-name="bar" unicode="|" horiz-adv-x="229" 
d="M154 750v-1000h-80v1000h80z" />
    <glyph glyph-name="braceright" unicode="}" horiz-adv-x="292" 
d="M117 582v61.0029c0 21.333 -0.166992 37.166 -0.5 47.499s-1.83301 23 -4.5 38s-6.66699 26 -12 33s-13 13.5 -23 19.5s-22.667 9.66699 -38 11c-10.667 0.666992 -17.334 1.66699 -20.001 3s-4 4.66602 -4 9.99902v22c0 8 12.667 12 38 12c60 0 104 -15.667 132 -47
c15.333 -18 25 -38.167 29 -60.5s6 -56.166 6 -101.499v-95c0 -24 0.333008 -42.167 1 -54.5s2.83398 -26.833 6.50098 -43.5s10.167 -29.5 19.5 -38.5s21.666 -15.167 36.999 -18.5c10 -2 16 -3.66699 18 -5s3.33301 -5.33301 4 -12c0 -14.667 -1 -23.667 -3 -27
s-8 -6 -18 -8c-14.667 -2.66699 -26.5 -8.16699 -35.5 -16.5s-15.667 -20 -20 -35s-7 -29.833 -8 -44.5s-1.5 -34.334 -1.5 -59.001v-96c0 -17.333 -0.166992 -30 -0.5 -38s-1 -19.5 -2 -34.5s-2.66699 -26.167 -5 -33.5s-5.5 -16.666 -9.5 -27.999s-9 -19.833 -15 -25.5
s-13.667 -12.334 -23 -20.001s-20 -13.167 -32 -16.5s-26 -6.16602 -42 -8.49902s-34 -3.5 -54 -3.5c-8.66699 0 -14.334 0.333008 -17.001 1c-3.33301 2.66699 -5 12 -5 28c0 8 1.16699 12.667 3.5 14s9.16602 2.66602 20.499 3.99902c15.333 1.33301 28 5 38 11
s17.667 12.167 23 18.5s9.33301 16.833 12 31.5s4.16699 27.167 4.5 37.5s0.5 26.833 0.5 49.5v62c-0.666992 22 -0.666992 42.5 0 61.5s1.66699 36.167 3 51.5s3.83301 29.333 7.5 42s8.66699 23.667 15 33s14.833 17.166 25.5 23.499s23.334 11.166 38.001 14.499v4
c-12.667 2.66699 -23.5 6.66699 -32.5 12s-16.667 10.666 -23 15.999s-11.666 13.833 -15.999 25.5s-7.66602 21.5 -9.99902 29.5s-4 21.333 -5 40s-1.66699 33.834 -2 45.501s-0.5 30.834 -0.5 57.501z" />
    <glyph glyph-name="asciitilde" unicode="~" horiz-adv-x="729" 
d="M567 366l38 -71.001c-41.333 -53.333 -87 -80 -137 -80c-20 0 -53 10.333 -99 31c-52.667 26 -89.334 39 -110.001 39c-18 0 -32.667 -4.33301 -44 -13s-28.333 -26.667 -51 -54l-40 71c10 14.667 19.333 26.834 28 36.501s22.834 20 42.501 31s40.5 16.5 62.5 16.5
c27.333 0 64.333 -11 111 -33c50.667 -24 85 -36 103 -36c31.333 0 63.333 20.667 96 62z" />
    <glyph glyph-name="exclamdown" unicode="&#xa1;" horiz-adv-x="292" 
d="M53 23l39.001 425.001c0.666992 9.33301 2.5 15.166 5.5 17.499s8.5 3.5 16.5 3.5h33c7.33301 0 11.333 -6.66699 12 -20l38 -427c0.666992 -9.33301 -0.333008 -15.333 -3 -18s-8.33398 -4 -17.001 -4h-103c-8.66699 -0 -14.5 1.33301 -17.5 4s-4.16699 9 -3.5 19z
M51.001 641.001c0.666992 20 8.33301 36.833 23 50.5s32.334 20.5 53.001 20.5c22 0 40 -7.66699 54 -23s21 -32.666 21 -51.999c0 -20.667 -7.33301 -38.334 -22 -53.001s-32.334 -22 -53.001 -22c-21.333 0 -39.5 7.66699 -54.5 23s-22.167 34 -21.5 56z" />
    <glyph glyph-name="cent" unicode="&#xa2;" horiz-adv-x="458" 
d="M260 463l-0.000976562 -372.006c44 0.666992 79 20.667 105 60c9.33301 14.667 16 24.167 20 28.5s9.33301 6.5 16 6.5s12.5 -2.66699 17.5 -8s7.5 -13 7.5 -23c0 -31.333 -14.333 -65.666 -43 -102.999c-29.333 -37.333 -70.333 -59 -123 -65v-67
c0 -5.33301 -1 -8.66602 -3 -9.99902s-5.66699 -2.33301 -11 -3c-12 0 -19.167 0.5 -21.5 1.5s-3.83301 4.83301 -4.5 11.5v67c-57.333 8.66699 -103 36.834 -137 84.501s-51 108.834 -51 183.501c0 74 17 136.667 51 188s79.667 81 137 89v69c0 8 4.33301 12 13 12
c12.667 0 20.334 -0.5 23.001 -1.5s4 -4.5 4 -10.5v-68c51.333 -2 92.333 -17.167 123 -45.5s46 -56.166 46 -83.499c0 -16 -5 -28 -15 -36s-20.667 -12 -32 -12c-9.33301 0 -17.333 2.5 -24 7.5s-11.5 10.167 -14.5 15.5s-6.83301 13.333 -11.5 24
c-8.66699 18.667 -17.667 32.334 -27 41.001s-24.333 15 -45 19zM219.999 101.994v359.001c-62 -18 -93 -72.667 -93 -164c0 -42.667 7.5 -82.334 22.5 -119.001s38.5 -62 70.5 -76z" />
    <glyph glyph-name="sterling" unicode="&#xa3;" horiz-adv-x="625" 
d="M429 355h-124.006c8.66699 -36.667 13 -70 13 -100c0 -15.333 -0.666992 -29 -2 -41c12 -8.66699 26 -20 42 -34l45 -39c11.333 -9.33301 25.333 -18.666 42 -27.999s31.334 -14 44.001 -14c17.333 0 33.333 7.33301 48 22c7.33301 7.33301 12.166 12.333 14.499 15
s5.33301 5 9 7s7.5 3 11.5 3c10 0 17.667 -4 23 -12c3.33301 -6 5 -13 5 -21c0 -26 -10.667 -54 -32 -84s-53.333 -45 -96 -45c-24 0 -47.833 6.66699 -71.5 20s-41.667 26.166 -54 38.499s-30.166 31.5 -53.499 57.5c-30 -77.333 -76.333 -116 -139 -116
c-37.333 0 -66.833 12.833 -88.5 38.5s-32.5 56.167 -32.5 91.5c0 41.333 13.667 76.5 41 105.5s61.333 43.5 102 43.5c16.667 0 36.667 -3.66699 60 -11c-4.66699 32.667 -14.667 67 -30 103h-108c-7.33301 0.666992 -12 1.66699 -14 3s-3.33301 5.66602 -4 12.999
c0 18 0.833008 29 2.5 33s6.83398 6.33301 15.501 7h83c-22.667 52.667 -34 96.334 -34 131.001c0 54 18.333 97.5 55 130.5s85.667 49.5 147 49.5c34 0 64.833 -5.5 92.5 -16.5s49.334 -25 65.001 -42s27.667 -34.167 36 -51.5s12.5 -33.333 12.5 -48
c0 -18 -5.16699 -31.833 -15.5 -41.5s-22.5 -14.5 -36.5 -14.5c-8.66699 0 -16.167 1.33301 -22.5 4s-11.666 7 -15.999 13s-7.5 10.833 -9.5 14.5s-4.66699 9.5 -8 17.5c-4.66699 14.667 -8.66699 25.834 -12 33.501s-8.66602 17 -15.999 28s-16.833 19 -28.5 24
s-25.167 7.5 -40.5 7.5c-25.333 0 -45.166 -8.83301 -59.499 -26.5s-21.5 -41.834 -21.5 -72.501c0 -26.667 8.66699 -73.334 26 -140.001h134c13.333 0 20 -4.66699 20 -14c0 -19.333 -0.833008 -31.166 -2.5 -35.499s-7.5 -6.5 -17.5 -6.5zM239.994 156
c-28 22.667 -52.333 34.001 -73 34.001c-18 0 -32.5 -5.83301 -43.5 -17.5s-16.5 -25.834 -16.5 -42.501c0 -19.333 6 -34.5 18 -45.5s25.333 -16.5 40 -16.5c36 0 61 29.333 75 88z" />
    <glyph glyph-name="currency" unicode="&#xa4;" horiz-adv-x="667" 
d="M624 570l-74.999 -75.002c12 -20 20.667 -35 26 -45s10.666 -24.667 15.999 -44s8 -40.666 8 -63.999c0 -25.333 -2.66699 -48.333 -8 -69s-10.833 -36.167 -16.5 -46.5s-14.5 -24.833 -26.5 -43.5l76 -77l-61 -59l-75 76c-20.667 -12.667 -35.834 -21.5 -45.501 -26.5
s-24.334 -10.167 -44.001 -15.5s-41.167 -8 -64.5 -8c-24.667 0 -47.167 2.66699 -67.5 8s-35.666 10.833 -45.999 16.5s-24.5 14.5 -42.5 26.5l-76 -76l-60 60l76 75c-12 18.667 -20.833 33.167 -26.5 43.5s-11.167 25.833 -16.5 46.5s-8 43.334 -8 68.001
c0 52.667 17 104 51 154l-75 75l60 60l75 -75c49.333 34 101.666 51 156.999 51c23.333 0 44.833 -2.66699 64.5 -8s34.834 -10.833 45.501 -16.5s25.334 -14.5 44.001 -26.5l75 75zM519.001 339.998c0.666992 56 -17.667 101.333 -55 136s-80.333 52 -129 52
c-52.667 0 -97.167 -17.833 -133.5 -53.5s-54.5 -80.167 -54.5 -133.5c0 -56 18.5 -101.667 55.5 -137s80.5 -53 130.5 -53c51.333 0 95 17.5 131 52.5s54.333 80.5 55 136.5z" />
    <glyph glyph-name="yen" unicode="&#xa5;" 
d="M338 314l-0.000976562 -41h133c10.667 0 17 -2.16699 19 -6.5s3 -16.833 3 -37.5c0 -8 -1.5 -13 -4.5 -15s-8.83301 -3 -17.5 -3h-133v-192c0 -8.66699 -1.66699 -14 -5 -16s-9 -3 -17 -3h-97c-8 -0 -13.333 1.33301 -16 4s-4 7.66699 -4 15v192h-128
c-8.66699 0 -14.5 1.16699 -17.5 3.5s-4.83301 7.5 -5.5 15.5c0 20 1 32.167 3 36.5s8 6.5 18 6.5h130v47l-17 31h-111c-8.66699 0 -14.5 1.16699 -17.5 3.5s-4.83301 7.5 -5.5 15.5c0 20 1 32.167 3 36.5s8 6.5 18 6.5h80l-141 262c-5.33301 10 -8 16 -8 18
c0 9.33301 6 14 18 14h107c8.66699 0 14.334 -1 17.001 -3s6 -6.66699 10 -14l135 -259l138 256c4.66699 8.66699 8.5 14.167 11.5 16.5s8.5 3.5 16.5 3.5h69c12.667 0 19 -4.33301 19 -13c0 -4 -2.66699 -10.333 -8 -19l-142 -262h80c10.667 0 17 -2.16699 19 -6.5
s3 -16.833 3 -37.5c0 -8 -1.5 -13 -4.5 -15s-8.83301 -3 -17.5 -3h-113z" />
    <glyph glyph-name="brokenbar" unicode="&#xa6;" horiz-adv-x="229" 
d="M75 -175v350h80v-350h-80zM155 325h-80v350h80v-350z" />
    <glyph glyph-name="section" unicode="&#xa7;" horiz-adv-x="479" 
d="M211 122l-43.999 20.002c-16.667 8 -30.667 15.333 -42 22s-25.333 16.667 -42 30s-29.5 29.166 -38.5 47.499s-13.5 38.833 -13.5 61.5c0 25.333 6.33301 49 19 71s24.334 37.667 35.001 47s24.667 20 42 32c-36 36 -54 75.667 -54 119c0 45.333 15.333 81.833 46 109.5
s72.667 41.5 126 41.5c54 0 96.667 -13.167 128 -39.5s47 -54.5 47 -84.5c0 -18.667 -5.16699 -32.667 -15.5 -42s-21.833 -14 -34.5 -14c-22.667 0 -40.667 14.333 -54 43c-5.33301 10.667 -9.5 18.5 -12.5 23.5s-7.66699 11.5 -14 19.5s-13.5 13.833 -21.5 17.5
s-17.333 5.5 -28 5.5c-20 0 -35.5 -6.66699 -46.5 -20s-16.5 -28.666 -16.5 -45.999c0 -28 9.16699 -49.333 27.5 -64s50.166 -32 95.499 -52c21.333 -9.33301 38 -17.333 50 -24s27 -16.667 45 -30s31.5 -28.833 40.5 -46.5s13.5 -37.5 13.5 -59.5
c0 -53.333 -30.333 -102 -91 -146c49.333 -39.333 74 -86 74 -140c0 -45.333 -16 -84 -48 -116s-76 -48 -132 -48c-60.667 0 -108.5 15.667 -143.5 47s-52.5 63.333 -52.5 96c0 16.667 5 31 15 43s23.333 18 40 18c11.333 0 21.333 -3.16699 30 -9.5s14.667 -12.5 18 -18.5
s7 -14 11 -24s7.66699 -17.833 11 -23.5s8.5 -13.334 15.5 -23.001s15.667 -16.834 26 -21.501s22.166 -7 35.499 -7c17.333 0 32.5 6 45.5 18s19.5 28.667 19.5 50c0 14.667 -2.83301 28 -8.5 40s-15 23 -28 33s-24.333 17.667 -34 23s-23.5 12.333 -41.5 21z
M302.001 198.002c32.667 27.333 49 56.332 49 86.999c0 24 -8.66699 42.833 -26 56.5s-44 27.834 -80 42.501c-28 12 -50.667 23 -68 33c-32 -27.333 -48 -56 -48 -86c0 -32.667 22.333 -61 67 -85c4.66699 -2 22 -9.83301 52 -23.5z" />
    <glyph glyph-name="dieresis" unicode="&#xa8;" horiz-adv-x="271" 
d="M107 656c0.666992 -17.333 -4.83203 -32.334 -16.499 -45.001s-28.167 -19 -49.5 -19c-19.333 0 -35 5.83301 -47 17.5s-18 26.5 -18 44.5c0 18.667 6.66699 33.667 20 45s29 17 47 17c17.333 0 32.166 -5.66699 44.499 -17s18.833 -25.666 19.5 -42.999z
M295.001 655.999c0.666992 -17.333 -4.66699 -32.334 -16 -45.001s-27.666 -19 -48.999 -19c-20 0 -36 5.83301 -48 17.5s-18 26.167 -18 43.5c0 18.667 6.66699 33.834 20 45.501s29 17.5 47 17.5c17.333 0 32.166 -5.5 44.499 -16.5s18.833 -25.5 19.5 -43.5z" />
    <glyph glyph-name="copyright" unicode="&#xa9;" horiz-adv-x="833" 
d="M557 258l56.001 -49c-51.333 -60.667 -114 -91 -188 -91c-70.667 0 -128 22.5 -172 67.5s-66 101.167 -66 168.5s22.333 123.833 67 169.5s101 68.5 169 68.5c33.333 0 64.166 -6 92.499 -18s48 -23 59 -33s23.833 -23 38.5 -39l-56 -53
c-14 14.667 -25.333 25.667 -34 33s-22 15 -40 23s-37.333 12 -58 12c-43.333 0 -80.833 -14.833 -112.5 -44.5s-47.5 -69.5 -47.5 -119.5c0 -46.667 15.5 -85 46.5 -115s68.833 -45 113.5 -45c50 0 94 21.667 132 65zM772.001 351
c-0.666992 -98.667 -35.167 -182.332 -103.5 -250.999s-152.5 -103 -252.5 -103c-96.667 0 -180 33.667 -250 101s-105 152.666 -105 255.999c0 99.333 34.5 183.333 103.5 252s152.833 103 251.5 103c102 0 187 -35 255 -105s101.667 -154.333 101 -253zM740.001 352.002
c0 90.667 -30.666 167.5 -91.999 230.5s-138 94.5 -230 94.5c-91.333 0 -168.333 -31.5 -231 -94.5s-94 -139.167 -94 -228.5c0 -92 31.667 -169.167 95 -231.5s139.666 -93.5 228.999 -93.5c92 0 168.833 31.667 230.5 95s92.5 139.333 92.5 228z" />
    <glyph glyph-name="ordfeminine" unicode="&#xaa;" horiz-adv-x="292" 
d="M259 605l0.000976562 -156c-0.666992 -10.667 -1.5 -18.834 -2.5 -24.501s-3.5 -11.334 -7.5 -17.001s-10 -10.5 -18 -14.5c-22 -12.667 -52.667 -19 -92 -19c-9.33301 0 -18.5 0.666992 -27.5 2s-21.833 4.33301 -38.5 9s-30 13.667 -40 27s-15 30.333 -15 51
c0 14.667 3 27.834 9 39.501s13 21.167 21 28.5s20.5 14.5 37.5 21.5s31.667 12.333 44 16s30.5 8.5 54.5 14.5c0 34.667 -1.83301 57.834 -5.5 69.501s-14.167 17.5 -31.5 17.5c-20.667 0 -34.667 -11.333 -42 -34c-2.66699 -6.66699 -5 -11.667 -7 -15
s-5.5 -6.83301 -10.5 -10.5s-11.167 -5.5 -18.5 -5.5c-10 0 -18.333 3 -25 9s-10 14 -10 24c0 20.667 11.667 38.667 35 54s53 23 89 23c24 0 43.5 -3.33301 58.5 -10s25.167 -16.667 30.5 -30s8.66602 -24.333 9.99902 -33s2 -21 2 -37zM184.001 459l0.000976562 86
c-20 -6 -35 -11 -45 -15s-19.667 -11.167 -29 -21.5s-14 -22.833 -14 -37.5s4.33301 -27 13 -37s21 -15 37 -15c11.333 0 20.166 2.5 26.499 7.5s9.83301 9.66699 10.5 14s1 10.5 1 18.5z" />
    <glyph glyph-name="guillemotleft" unicode="&#xab;" horiz-adv-x="437" 
d="M332 249l53 -95c4 -8 6 -14.333 6 -19c0 -6 -2 -11.333 -6 -16s-9 -7 -15 -7c-8.66699 0 -17.667 6.33301 -27 19c-44 60 -81.667 103 -113 129c-14.667 12 -22 22.333 -22 31c0 8 5.66699 17 17 27c34.667 29.333 69 66 103 110c13.333 18 22 28.833 26 32.5
s9 5.5 15 5.5c5.33301 0 10.333 -2 15 -6s7 -9.33301 7 -16c0 -4 -2.33301 -10.667 -7 -20l-53 -95c-8.66699 -17.333 -13 -30 -13 -38s4.66699 -22 14 -42zM157 249l52 -95c4.66699 -9.33301 7 -15.666 7 -18.999c0 -6 -2.16699 -11.333 -6.5 -16s-9.5 -7 -15.5 -7
c-7.33301 0 -16.333 6.33301 -27 19c-40 56 -77.667 99 -113 129c-14 11.333 -21 21.666 -21 30.999s5.66699 18.333 17 27c36 31.333 70 68 102 110c14 18 23 28.833 27 32.5s8.66699 5.5 14 5.5c6 0 11.167 -2 15.5 -6s6.5 -9.33301 6.5 -16
c0 -5.33301 -2.33301 -12 -7 -20l-53 -95c-8.66699 -16 -13 -28.667 -13 -38s5 -23.333 15 -42z" />
    <glyph glyph-name="logicalnot" unicode="&#xac;" horiz-adv-x="667" 
d="M587 1v252h-587v79h667v-331h-80z" />
    <glyph glyph-name="registered" unicode="&#xae;" horiz-adv-x="833" 
d="M266 580h146.002c49.333 0 84.333 -3.66699 105 -11c23.333 -8 41.166 -21.667 53.499 -41s18.5 -40.333 18.5 -63c0 -54.667 -30.667 -90 -92 -106c19.333 -8.66699 33.666 -19.334 42.999 -32.001s16.333 -33.334 21 -62.001c5.33301 -37.333 10 -64.166 14 -80.499
s10.667 -34.166 20 -53.499h-91c-8.66699 17.333 -16.667 50 -24 98c-6.66699 48.667 -17 78.167 -31 88.5s-48.333 15.5 -103 15.5v-202h-80v449zM347.002 518v-120.999h66c12.667 0 22.667 0.333008 30 1s17 2.66699 29 6s21.167 9.66602 27.5 18.999s9.5 21.333 9.5 36
c0 26 -10.667 43.667 -32 53c-10.667 4 -37 6 -79 6h-51zM773.002 352.001c-0.666992 -99.333 -35.332 -183.332 -103.999 -251.999s-153 -103 -253 -103c-95.333 0 -178.333 33.667 -249 101s-106 152.333 -106 255c0 101.333 34.833 186 104.5 254s153.167 102 250.5 102
c102 0 187.167 -34.833 255.5 -104.5s102.166 -153.834 101.499 -252.501zM741.004 352.002c0.666992 89.333 -30.167 165.833 -92.5 229.5s-139.166 95.5 -230.499 95.5c-90.667 0 -167.5 -31.667 -230.5 -95s-94.5 -139.666 -94.5 -228.999
c0 -90.667 31.667 -167.334 95 -230.001s139.666 -94 228.999 -94c90.667 0 167.167 31.333 229.5 94s93.833 139 94.5 229z" />
    <glyph glyph-name="macron" unicode="&#xaf;" horiz-adv-x="271" 
d="M3 689l262.999 0.000976562c12.667 0 19.667 -3.66699 21 -11c0.666992 -2 1 -17.333 1 -46c0 -8 -1.66699 -13 -5 -15s-9.33301 -3 -18 -3h-259c-13.333 0 -20.666 3.66699 -21.999 11c-0.666992 2 -1 17.333 -1 46c0 7.33301 1.33301 12.166 4 14.499s8 3.5 16 3.5z
" />
    <glyph glyph-name="degree" unicode="&#xb0;" horiz-adv-x="354" 
d="M177 755c44.667 0 82.667 -15.667 114 -47s47 -69.333 47 -114s-15.667 -82.667 -47 -114s-69.333 -47 -114 -47s-82.834 15.667 -114.501 47s-47.5 69.333 -47.5 114s15.833 82.667 47.5 114s69.834 47 114.501 47zM177 675c-22 0 -40.667 -7.66699 -56 -23
s-23 -34 -23 -56s7.66699 -40.667 23 -56s34 -23 56 -23s40.667 7.66699 56 23s23 34 23 56s-7.66699 40.667 -23 56s-34 23 -56 23z" />
    <glyph glyph-name="plusminus" unicode="&#xb1;" horiz-adv-x="500" 
d="M291 342v-181h-79v181h-181v79h181v179h79v-179h178v-79h-178zM469 79v-79h-438v79h438z" />
    <glyph glyph-name="twosuperior" unicode="&#xb2;" horiz-adv-x="333" 
d="M234 470l-102.999 -131h150c4 0 7 -0.166992 9 -0.5s3.66699 -1.5 5 -3.5s2 -5 2 -9v-47c0 -9.33301 -5.33301 -14 -16 -14h-238c-13.333 0 -20 5 -20 15c0 5.33301 3 12 9 20l130 170c12.667 18 21.667 31.167 27 39.5s10.666 19.166 15.999 32.499s8 26 8 38
c0 18.667 -5.66699 34.834 -17 48.501s-26.333 20.5 -45 20.5c-33.333 0 -55.333 -19.333 -66 -58c-2 -6.66699 -3.5 -11.5 -4.5 -14.5s-3.5 -6.33301 -7.5 -10s-8.66699 -5.5 -14 -5.5c-16.667 0 -25 10.667 -25 32c0 32 12 60.667 36 86s56.667 38 98 38
c37.333 0 67.5 -11.333 90.5 -34s34.5 -50 34.5 -82c0 -16 -3.5 -32.833 -10.5 -50.5s-13.5 -31 -19.5 -40s-15.667 -22.5 -29 -40.5z" />
    <glyph glyph-name="threesuperior" unicode="&#xb3;" horiz-adv-x="333" 
d="M216 518c20 -10 35.665 -21 46.998 -33c24.667 -26 37 -57 37 -93s-12.167 -67.833 -36.5 -95.5s-60.833 -41.5 -109.5 -41.5c-38.667 0 -70.5 9.66699 -95.5 29s-37.5 40.666 -37.5 63.999c0 10.667 3.5 19.5 10.5 26.5s15.167 10.5 24.5 10.5c14 0 25.667 -8 35 -24
c6 -10 11 -18 15 -24s10.833 -12.167 20.5 -18.5s20.5 -9.5 32.5 -9.5c18.667 0 33.667 6.33301 45 19s17 28.667 17 48c0 43.333 -27.667 74.333 -83 93c-16 4.66699 -26 8.5 -30 11.5s-6 7.16699 -6 12.5c0 8 6.33301 14.667 19 20s22 9.5 28 12.5
s13.833 7.83301 23.5 14.5s16.834 14.5 21.501 23.5s7 19.5 7 31.5c0 16.667 -5.16699 30.667 -15.5 42s-24.166 17 -41.499 17c-12 0 -22.333 -2.83301 -31 -8.5s-14.667 -11 -18 -16s-7.33301 -12.167 -12 -21.5c-7.33301 -16 -16 -24 -26 -24
c-15.333 0 -23 9.33301 -23 28c0 24.667 11.333 48.334 34 71.001s53.667 34 93 34c35.333 0 63.833 -9.83301 85.5 -29.5s32.5 -44.167 32.5 -73.5c0 -40.667 -21 -72.667 -63 -96z" />
    <glyph glyph-name="acute" unicode="&#xb4;" horiz-adv-x="271" 
d="M194 648l-89 -68c-9.33301 -8 -17.666 -12 -24.999 -12c-6 0 -11.5 2.16699 -16.5 6.5s-7.5 10.833 -7.5 19.5c0 10 4.66699 19.667 14 29l79 85c11.333 12.667 22 19 32 19c9.33301 0 17.166 -3.83301 23.499 -11.5s9.5 -17.167 9.5 -28.5c0 -14 -6.66699 -27 -20 -39z
" />
    <glyph glyph-name="mu" unicode="&#xb5;" horiz-adv-x="521" 
d="M366 518h78.998c8.66699 0 14.834 -1.33301 18.501 -4s5.5 -8.33398 5.5 -17.001v-373c0 -26 -2.16699 -45.833 -6.5 -59.5s-15.166 -26.5 -32.499 -38.5c-41.333 -26 -99 -39 -173 -39c-30 0 -58 2.66699 -84 8v-208c0 -8 -1.5 -13.5 -4.5 -16.5
s-8.16699 -4.5 -15.5 -4.5h-76c-8.66699 0 -15 1.16699 -19 3.5s-6 7.83301 -6 16.5v713c0 12.667 7 19 21 19h82c8 0.666992 13.667 -0.5 17 -3.5s5 -8.5 5 -16.5v-335c0 -12 0.666992 -21.833 2 -29.5s4.33301 -17.167 9 -28.5s13.5 -20 26.5 -26s29.5 -9 49.5 -9
c18.667 0 34 2.33301 46 7s20.333 11.834 25 21.501s7.5 18 8.5 25s1.5 16.167 1.5 27.5v346c0 8 1.5 13.5 4.5 16.5s8.5 4.5 16.5 4.5z" />
    <glyph glyph-name="paragraph" unicode="&#xb6;" horiz-adv-x="667" 
d="M309 706l229.999 0.000976562v-54h-34v-818h-58v818h-145v-818h-57v485c-17.333 4 -30.333 7.33301 -39 10s-19.5 7.5 -32.5 14.5s-24.833 16.167 -35.5 27.5c-34 34.667 -51 79.667 -51 135c0 41.333 10 78 30 110c12.667 20 27.334 36.5 44.001 49.5s35 22.167 55 27.5
s36 8.66602 48 9.99902s27 2.33301 45 3z" />
    <glyph glyph-name="periodcentered" unicode="&#xb7;" horiz-adv-x="250" 
d="M198 274c-0.666992 -20.667 -8.00098 -37.832 -22.001 -51.499s-31 -20.5 -51 -20.5c-20.667 0 -38.167 7.16699 -52.5 21.5s-21.5 32.166 -21.5 53.499c0 22.667 7.66699 40.667 23 54s32 20 50 20c20.667 0 38.334 -7.33301 53.001 -22s21.667 -33 21 -55z" />
    <glyph glyph-name="cedilla" unicode="&#xb8;" horiz-adv-x="271" 
d="M111 3l52.998 -0.000976562l-15 -75c16.667 0 31.334 -2.33301 44.001 -7s21.834 -10 27.501 -16s10.167 -13 13.5 -21s5.33301 -14 6 -18s1 -7.66699 1 -11c0 -24 -10.167 -44.667 -30.5 -62s-47.5 -26 -81.5 -26c-19.333 0 -40.666 3.33301 -63.999 10
s-35 16.667 -35 30c0 12.667 6.33301 19 19 19c2.66699 0 9 -1 19 -3c17.333 -4 33.666 -6 48.999 -6c14.667 0 27 3.33301 37 10s15 16.334 15 29.001c0 22 -16.333 33 -49 33c-15.333 0 -22 7.33301 -20 22z" />
    <glyph glyph-name="onesuperior" unicode="&#xb9;" horiz-adv-x="333" 
d="M153 280v326c-54 -18 -88.667 -27 -104 -27c-17.333 0 -26 7.33301 -26 22c0 10 9 17.667 27 23c50.667 14 94 36.667 130 68c13.333 13.333 24 20 32 20c14 0 21 -8.33301 21 -25v-408c0 -9.33301 -5 -14 -15 -14h-49c-6 0 -10.167 1 -12.5 3s-3.5 6 -3.5 12z" />
    <glyph glyph-name="ordmasculine" unicode="&#xba;" horiz-adv-x="354" 
d="M327 548c1.33301 -48.667 -11.666 -89.832 -38.999 -123.499s-64 -50.5 -110 -50.5s-82.5 16.167 -109.5 48.5s-40.5 73.166 -40.5 122.499s13.833 90 41.5 122s63.834 48 108.501 48c47.333 0 83.666 -16.833 108.999 -50.5s38.666 -72.5 39.999 -116.5z
M244.001 552.002c-1.33301 35.333 -8.5 63.332 -21.5 83.999s-29.167 31 -48.5 31c-20 0 -35.667 -10.833 -47 -32.5s-17 -48.5 -17 -80.5c0 -35.333 6.66699 -65.166 20 -89.499s30 -36.5 50 -36.5s36 11.833 48 35.5s17.333 53.167 16 88.5z" />
    <glyph glyph-name="guillemotright" unicode="&#xbb;" horiz-adv-x="437" 
d="M105 329l-52 94.998c-4.66699 6.66699 -7 13.334 -7 20.001c0 6 2 11.167 6 15.5s9.33301 6.5 16 6.5c8 0 16.667 -6.33301 26 -19c1.33301 -1.33301 5 -6 11 -14l13.5 -18l14 -18c6.33301 -8 12 -14.833 17 -20.5l17.5 -19.5
c6.66699 -7.33301 13.5 -14.166 20.5 -20.499l20.5 -18.5c14 -12 21 -22.333 21 -31c0 -9.33301 -5.66699 -18.333 -17 -27c-34.667 -29.333 -68.667 -66 -102 -110c-14 -18 -23 -28.833 -27 -32.5s-8.66699 -5.5 -14 -5.5c-6 0 -11.167 2.16699 -15.5 6.5
s-6.5 9.5 -6.5 15.5c0 6.66699 2.33301 13.334 7 20.001l52 96c9.33301 15.333 14 27.666 14 36.999s-5 23.333 -15 42zM281 328.998l-53.001 95c-4 8 -6 14.667 -6 20c0 6 2 11.167 6 15.5s9 6.5 15 6.5c8.66699 0 17.667 -6.33301 27 -19
c40.667 -56 78.334 -99 113.001 -129c14.667 -12 22 -22 22 -30c0 -10 -5.66699 -19 -17 -27c-38 -34 -72.333 -71 -103 -111c-13.333 -18 -22 -28.833 -26 -32.5s-9 -5.5 -15 -5.5s-11.167 2.16699 -15.5 6.5s-6.5 9.5 -6.5 15.5c0 4 2.33301 10.667 7 20l53 96
c8.66699 14.667 13 27 13 37c0 8 -4.66699 22 -14 42z" />
    <glyph glyph-name="onequarter" unicode="&#xbc;" horiz-adv-x="792" 
d="M153 280v326c-54 -18 -88.667 -27 -104 -27c-17.333 0 -26 7.33301 -26 22c0 10 9 17.667 27 23c50.667 14 94 36.667 130 68c13.333 13.333 24 20 32 20c14 0 21 -8.33301 21 -25v-408c0 -9.33301 -5 -14 -15 -14h-49c-6 0 -10.167 1 -12.5 3s-3.5 6 -3.5 12zM709 418
l0.000976562 -274c26 0 39.667 -0.666992 41 -2c2.66699 -2 4 -9.33301 4 -22s-1 -20 -3 -22c-2 -1.33301 -16 -2 -42 -2v-85c0 -6 -0.833008 -9.83301 -2.5 -11.5s-5.83398 -2.5 -12.501 -2.5h-49c-6 0 -9.66699 0.833008 -11 2.5s-2.33301 5.5 -3 11.5v85h-135
c-16.667 0 -25 7 -25 21c0 6.66699 3.66699 15.667 11 27l173 285c8.66699 12 18 18 28 18c17.333 0 26 -9.66699 26 -29zM538.001 144h96v174zM599.001 677l-346 -658.002c-4.66699 -8.66699 -8.5 -14 -11.5 -16s-8.16699 -3 -15.5 -3c-18 0 -29 0.333008 -33 1
s-6 3.33398 -6 8.00098c0 2.66699 2.33301 9.33398 7 20.001l348 658c4.66699 8 8.5 13.167 11.5 15.5s8.16699 3.5 15.5 3.5c25.333 0 38 -3.33301 38 -10c0 -2.66699 -2.66699 -9 -8 -19z" />
    <glyph glyph-name="onehalf" unicode="&#xbd;" horiz-adv-x="792" 
d="M153 280v326c-52 -17.333 -86.667 -26 -104 -26s-26 7 -26 21c0 11.333 9 19 27 23c53.333 15.333 96.666 38.333 129.999 69c12.667 12.667 23.334 19 32.001 19c14 0 21 -8 21 -24v-409c0 -9.33301 -5 -14 -15 -14h-49c-6 0 -10.167 1 -12.5 3s-3.5 6 -3.5 12zM693 205
l-102.999 -131h150c10.667 0 16 -4.33301 16 -13v-47c0 -9.33301 -5.33301 -14 -16 -14h-238c-13.333 0 -20 5 -20 15c0 5.33301 3 12 9 20l130 170c12.667 18 21.667 31.167 27 39.5s10.666 19.166 15.999 32.499s8 26 8 38c0 18.667 -5.66699 34.834 -17 48.501
s-26.333 20.5 -45 20.5c-33.333 0 -55.333 -19.333 -66 -58c-2 -6.66699 -3.5 -11.5 -4.5 -14.5s-3.5 -6.33301 -7.5 -10s-9 -5.5 -15 -5.5c-16 0 -24 10.667 -24 32c0 32 12 60.667 36 86s56.667 38 98 38c37.333 0 67.5 -11.333 90.5 -34s34.5 -50 34.5 -82
c0 -16 -3.5 -32.833 -10.5 -50.5s-13.5 -31 -19.5 -40s-15.667 -22.5 -29 -40.5zM583.001 677l-346.999 -658.002c-4.66699 -8.66699 -8.33398 -14 -11.001 -16s-8 -3 -16 -3c-18 0 -28.833 0.333008 -32.5 1s-5.5 3.33398 -5.5 8.00098s2.33301 11.334 7 20.001l348 658
c4.66699 8.66699 8.66699 14.167 12 16.5s8.33301 3.5 15 3.5c18 0 28.833 -0.5 32.5 -1.5s5.5 -4.16699 5.5 -9.5c0 -2 -2.66699 -8.33301 -8 -19z" />
    <glyph glyph-name="threequarters" unicode="&#xbe;" horiz-adv-x="792" 
d="M216 518c20 -10 35.665 -21 46.998 -33c24.667 -26 37 -57 37 -93s-12.167 -67.833 -36.5 -95.5s-60.833 -41.5 -109.5 -41.5c-38.667 0 -70.5 9.66699 -95.5 29s-37.5 40.666 -37.5 63.999c0 10.667 3.5 19.5 10.5 26.5s15.167 10.5 24.5 10.5c14 0 25.667 -8 35 -24
c6 -10 11 -18 15 -24s10.833 -12.167 20.5 -18.5s20.5 -9.5 32.5 -9.5c18.667 0 33.667 6.33301 45 19s17 28.667 17 48c0 43.333 -27.667 74.333 -83 93c-15.333 5.33301 -25 9.16602 -29 11.499s-6 6.5 -6 12.5c0 8.66699 6 15.334 18 20.001
c12.667 5.33301 22 9.5 28 12.5s13.833 7.83301 23.5 14.5s16.834 14.5 21.501 23.5s7 19.5 7 31.5c0 16.667 -5.16699 30.667 -15.5 42s-24.166 17 -41.499 17c-12 0 -22.333 -2.83301 -31 -8.5s-14.667 -11 -18 -16s-7.33301 -12.167 -12 -21.5
c-7.33301 -16 -16 -24 -26 -24c-15.333 0 -23 9.33301 -23 28c0 24.667 11.333 48.334 34 71.001s53.667 34 93 34c35.333 0 63.833 -9.83301 85.5 -29.5s32.5 -44.167 32.5 -73.5c0 -40.667 -21 -72.667 -63 -96zM708.998 418l0.000976562 -274
c26 0 39.667 -0.666992 41 -2c2.66699 -2 4 -9.33301 4 -22s-1 -20 -3 -22c-2 -1.33301 -16 -2 -42 -2v-85c0 -6 -0.833008 -9.83301 -2.5 -11.5s-5.83398 -2.5 -12.501 -2.5h-49c-6 0 -9.66699 0.833008 -11 2.5s-2.33301 5.5 -3 11.5v85h-135c-16.667 0 -25 7 -25 21
c0 6.66699 3.66699 15.667 11 27l173 285c8.66699 12 18 18 28 18c17.333 0 26 -9.66699 26 -29zM537.999 144h96v173zM624.999 677l-346.999 -658.002c-4.66699 -8.66699 -8.33398 -14 -11.001 -16s-7.66699 -3 -15 -3c-18 0 -29 0.333008 -33 1s-6 3.33398 -6 8.00098
c0 2.66699 2.33301 9.33398 7 20.001l348 658c4.66699 8.66699 8.66699 14.167 12 16.5s8.33301 3.5 15 3.5c18 0 28.833 -0.5 32.5 -1.5s5.5 -4.16699 5.5 -9.5c0 -2 -2.66699 -8.33301 -8 -19z" />
    <glyph glyph-name="questiondown" unicode="&#xbf;" horiz-adv-x="417" 
d="M239 446l15.001 -132c0 -2 0.166992 -4.5 0.5 -7.5s0.5 -5.16699 0.5 -6.5c0 -15.333 -8 -28 -24 -38c-20.667 -13.333 -36 -24 -46 -32s-20.167 -20.333 -30.5 -37s-15.5 -34.667 -15.5 -54c0 -21.333 6.66699 -40.166 20 -56.499s31.333 -24.5 54 -24.5
c12 0 22.167 2 30.5 6s15.166 10.167 20.499 18.5s8.83301 14.333 10.5 18s4.16699 10.167 7.5 19.5c4 12.667 7.33301 22.167 10 28.5s8 12.833 16 19.5s18 10 30 10c15.333 0 28.333 -5.33301 39 -16s16 -25.334 16 -44.001c0 -34.667 -16.667 -65.667 -50 -93
s-81 -41 -143 -41c-61.333 0 -106.666 14.167 -135.999 42.5s-44 60.5 -44 96.5c0 20 4.66699 38.833 14 56.5s18.666 31.167 27.999 40.5s25 24 47 44c25.333 22.667 41.5 44.5 48.5 65.5s11.833 53.833 14.5 98.5c1.33301 18 3.16602 29 5.49902 33s8.5 6 18.5 6h29
c5.33301 -0.666992 8.83301 -2.16699 10.5 -4.5s2.83398 -7.83301 3.50098 -16.5zM133.001 641c0.666992 20 8.16797 36.834 22.501 50.501s31.5 20.5 51.5 20.5c22 0 39.833 -7.5 53.5 -22.5s20.5 -32.5 20.5 -52.5c0 -20.667 -7.33301 -38.334 -22 -53.001
s-32 -22 -52 -22c-20.667 0 -38.334 7.66699 -53.001 23s-21.667 34 -21 56z" />
    <glyph glyph-name="Agrave" unicode="&#xc0;" horiz-adv-x="604" 
d="M458 18l-73 203.001h-203l-71 -202c-3.33301 -8 -6.33301 -13.167 -9 -15.5s-8.33398 -3.5 -17.001 -3.5h-66c-12.667 0 -19 4.33301 -19 13c0 4.66699 2 11 6 19l244 655c2.66699 7.33301 5.5 12.333 8.5 15s8.16699 4 15.5 4h58c7.33301 0 12.333 -0.833008 15 -2.5
s5.66699 -5.83398 9 -12.501l244 -664c2.66699 -5.33301 4 -10 4 -14c0 -8.66699 -5.66699 -13 -17 -13h-101c-8.66699 0 -14.667 1 -18 3s-6.66602 7 -9.99902 15zM207 296.001h153l-77 231zM232 916.001l89 -99c7.33301 -8.66699 11 -18 11 -28
c0 -8 -2.5 -14.833 -7.5 -20.5s-10.833 -8.5 -17.5 -8.5c-4.66699 0 -12 3.33301 -22 10l-96 71c-16.667 15.333 -25 31.333 -25 48c0 12 3.5 22.333 10.5 31s15.833 13 26.5 13s21 -5.66699 31 -17z" />
    <glyph glyph-name="Aacute" unicode="&#xc1;" horiz-adv-x="604" 
d="M458 18l-73 203.001h-203l-71 -202c-3.33301 -8 -6.33301 -13.167 -9 -15.5s-8.33398 -3.5 -17.001 -3.5h-66c-12.667 0 -19 4.33301 -19 13c0 4.66699 2 11 6 19l244 655c2.66699 7.33301 5.5 12.333 8.5 15s8.16699 4 15.5 4h58c7.33301 0 12.333 -0.833008 15 -2.5
s5.66699 -5.83398 9 -12.501l244 -664c2.66699 -5.33301 4 -10 4 -14c0 -8.66699 -5.66699 -13 -17 -13h-101c-8.66699 0 -14.667 1 -18 3s-6.66602 7 -9.99902 15zM207 296.001h153l-77 231zM423 841.001l-96 -71c-10 -6.66699 -17.333 -10 -22 -10
c-6.66699 0 -12.5 2.83301 -17.5 8.5s-7.5 12.5 -7.5 20.5c0 10 3.66699 19.333 11 28l89 99c10 11.333 20.333 17 31 17s19.5 -4.33301 26.5 -13s10.5 -19 10.5 -31c0 -16.667 -8.33301 -32.667 -25 -48z" />
    <glyph glyph-name="Acircumflex" unicode="&#xc2;" horiz-adv-x="604" 
d="M458 18l-73 203.001h-203l-71 -202c-3.33301 -8 -6.33301 -13.167 -9 -15.5s-8.33398 -3.5 -17.001 -3.5h-66c-12.667 0 -19 4.33301 -19 13c0 4.66699 2 11 6 19l244 655c2.66699 7.33301 5.5 12.333 8.5 15s8.16699 4 15.5 4h58c7.33301 0 12.333 -0.833008 15 -2.5
s5.66699 -5.83398 9 -12.501l244 -664c2.66699 -5.33301 4 -10 4 -14c0 -8.66699 -5.66699 -13 -17 -13h-101c-8.66699 0 -14.667 1 -18 3s-6.66602 7 -9.99902 15zM207 296.001h153l-77 231zM268 812.001l-74.999 -47c-7.33301 -6 -14.333 -9 -21 -9
c-4.66699 0 -8.83398 2.33301 -12.501 7s-5.5 10 -5.5 16c0 10 7.66699 21.667 23 35c40 36 68 63 84 81c14 16.667 26.333 25 37 25c8.66699 0 20 -7.33301 34 -22c22 -24.667 50 -49.667 84 -75c7.33301 -6 12 -10 14 -12s4.66699 -4.83301 8 -8.5s5.33301 -6.66699 6 -9
s1 -5.5 1 -9.5c0 -7.33301 -2 -13.333 -6 -18s-8.33301 -7 -13 -7c-4 0 -10.667 2.33301 -20 7l-75 47c-14 8.66699 -24.333 13 -31 13c-7.33301 0 -18 -4.66699 -32 -14z" />
    <glyph glyph-name="Atilde" unicode="&#xc3;" horiz-adv-x="604" 
d="M458 18l-73 203.001h-203l-71 -202c-3.33301 -8 -6.33301 -13.167 -9 -15.5s-8.33398 -3.5 -17.001 -3.5h-66c-12.667 0 -19 4.33301 -19 13c0 4.66699 2 11 6 19l244 655c2.66699 7.33301 5.5 12.333 8.5 15s8.16699 4 15.5 4h58c7.33301 0 12.333 -0.833008 15 -2.5
s5.66699 -5.83398 9 -12.501l244 -664c2.66699 -5.33301 4 -10 4 -14c0 -8.66699 -5.66699 -13 -17 -13h-101c-8.66699 0 -14.667 1 -18 3s-6.66602 7 -9.99902 15zM207 296.001h153l-77 231zM302 793.001c-24.667 15.333 -43.668 22.999 -57.001 22.999
s-25.666 -5.66699 -36.999 -17c-10.667 -13.333 -17.834 -21.5 -21.501 -24.5s-8.16699 -4.5 -13.5 -4.5c-14 0 -21 9 -21 27c0 18.667 8 39.334 24 62.001s40 34 72 34c18.667 0 42.334 -9 71.001 -27c28 -16 48.333 -24 61 -24c14 0 27.667 6.66699 41 20
c12.667 17.333 23 26 31 26c13.333 0 20 -8.33301 20 -25c0 -22 -8 -43.667 -24 -65s-40 -32 -72 -32c-20 0 -44.667 9 -74 27z" />
    <glyph glyph-name="Adieresis" unicode="&#xc4;" horiz-adv-x="604" 
d="M458 18l-73 203.001h-203l-71 -202c-3.33301 -8 -6.33301 -13.167 -9 -15.5s-8.33398 -3.5 -17.001 -3.5h-66c-12.667 0 -19 4.33301 -19 13c0 4.66699 2 11 6 19l244 655c2.66699 7.33301 5.5 12.333 8.5 15s8.16699 4 15.5 4h58c7.33301 0 12.333 -0.833008 15 -2.5
s5.66699 -5.83398 9 -12.501l244 -664c2.66699 -5.33301 4 -10 4 -14c0 -8.66699 -5.66699 -13 -17 -13h-101c-8.66699 0 -14.667 1 -18 3s-6.66602 7 -9.99902 15zM207 296.001h153l-77 231zM272 834.001c0.666992 -16.667 -4.83301 -32 -16.5 -46s-29.167 -21 -52.5 -21
c-19.333 0 -35.833 5.5 -49.5 16.5s-20.5 26.5 -20.5 46.5s6.83301 35.833 20.5 47.5s30.5 17.5 50.5 17.5c18.667 0 34.5 -5.33301 47.5 -16s19.833 -25.667 20.5 -45zM469 834.001c0.666992 -16.667 -4.83301 -31.999 -16.5 -45.999s-29.167 -21 -52.5 -21
c-19.333 0 -35.833 5.66699 -49.5 17s-20.5 26.666 -20.5 45.999c0 20 6.83301 35.833 20.5 47.5s30.5 17.5 50.5 17.5c18 0 33.667 -5.33301 47 -16s20.333 -25.667 21 -45z" />
    <glyph glyph-name="Aring" unicode="&#xc5;" horiz-adv-x="604" 
d="M458 18l-73 203.001h-203l-71 -202c-3.33301 -8 -6.33301 -13.167 -9 -15.5s-8.33398 -3.5 -17.001 -3.5h-66c-12.667 0 -19 4.33301 -19 13c0 4.66699 2 11 6 19l244 655c2.66699 7.33301 5.5 12.333 8.5 15s8.16699 4 15.5 4h58c7.33301 0 12.333 -0.833008 15 -2.5
s5.66699 -5.83398 9 -12.501l244 -664c2.66699 -5.33301 4 -10 4 -14c0 -8.66699 -5.66699 -13 -17 -13h-101c-8.66699 0 -14.667 1 -18 3s-6.66602 7 -9.99902 15zM207 296.001h153l-77 231zM395 847.001c1.33301 -26.667 -6.66699 -49.333 -24 -68
s-39.666 -28 -66.999 -28s-49.833 9.16699 -67.5 27.5s-26.5 40.166 -26.5 65.499c0 26 9.16699 48 27.5 66s40.5 27 66.5 27c24.667 0 45.667 -8.66699 63 -26s26.666 -38.666 27.999 -63.999zM344 846.002c-0.666992 10.667 -4.83301 20 -12.5 28s-17.167 12 -28.5 12
c-12 0 -22 -4 -30 -12s-12 -18 -12 -30s4 -22 12 -30s18 -12 30 -12s22 4.33301 30 13s11.667 19 11 31z" />
    <glyph glyph-name="AE" unicode="&#xc6;" horiz-adv-x="792" 
d="M473 323l46.999 -230.999h217c8 0 13.333 -1.33301 16 -4s4 -8 4 -16v-53c0 -8 -1.5 -13.167 -4.5 -15.5s-8.16699 -3.5 -15.5 -3.5h-312c-6 0 -10.333 0.333008 -13 1s-5.16699 2.5 -7.5 5.5s-4.16602 7.5 -5.49902 13.5l-38 196h-186l-79 -197
c-3.33301 -8.66699 -6.5 -14 -9.5 -16s-8.16699 -3 -15.5 -3h-69c-12.667 0 -19 4.66699 -19 14c0 2 2.33301 8.33301 7 19l279 651c4.66699 10 8.5 16.167 11.5 18.5s9.16699 3.5 18.5 3.5h363c8 0 13.333 -1.33301 16 -4s4 -8.33398 4 -17.001v-52
c0 -8 -1.16699 -13.167 -3.5 -15.5s-7.83301 -3.5 -16.5 -3.5h-248l41 -203h207c8 0 13.333 -1.16699 16 -3.5s4 -7.5 4 -15.5v-52c0 -6.66699 -1.33301 -11.167 -4 -13.5s-8 -3.5 -16 -3.5h-189zM203.999 291.001h142l-47 241z" />
    <glyph glyph-name="Ccedilla" unicode="&#xc7;" horiz-adv-x="604" 
d="M302 -88l8.99512 75.9971c-44 6 -83.167 19.333 -117.5 40s-61.166 44 -80.499 70s-35.166 55.5 -47.499 88.5s-20.5 63 -24.5 90s-6 53.833 -6 80.5c0 104.667 28.833 191.667 86.5 261s136.5 104 236.5 104c68 0 123.833 -15.833 167.5 -47.5s65.5 -64.5 65.5 -98.5
c0 -16.667 -5.66699 -30.5 -17 -41.5s-25.666 -16.5 -42.999 -16.5c-10.667 0 -19.834 2.16699 -27.501 6.5s-13.334 8.83301 -17.001 13.5s-9.5 12.667 -17.5 24c-31.333 52 -72 78 -122 78c-48 0 -88 -22.167 -120 -66.5s-48 -105.166 -48 -182.499
c0 -94 20.5 -168.167 61.5 -222.5s91.833 -81.5 152.5 -81.5c41.333 0 82 13.667 122 41c17.333 12 29.666 18 36.999 18c8 0 15.167 -3 21.5 -9s9.5 -14 9.5 -24c0 -9.33301 -4.16699 -20.666 -12.5 -33.999s-20.666 -27.166 -36.999 -41.499
s-39.666 -26.666 -69.999 -36.999s-64.166 -15.833 -101.499 -16.5l-11 -55c16.667 0 31.334 -2.33301 44.001 -7s21.834 -10.167 27.501 -16.5s10.167 -13.5 13.5 -21.5s5.33301 -14 6 -18s1 -7.66699 1 -11c0 -24 -10.167 -44.667 -30.5 -62s-47.5 -26 -81.5 -26
c-19.333 0 -40.666 3.33301 -63.999 10s-35 16.667 -35 30s6.33301 20 19 20c0.666992 0 1.5 -0.166992 2.5 -0.5s3 -0.833008 6 -1.5s6.5 -1.33398 10.5 -2.00098c17.333 -4 33.666 -6 48.999 -6c14.667 0 27 3.33301 37 10s15 16.667 15 30c0 22 -16.333 33 -49 33
c-15.333 0 -22 7.33301 -20 22z" />
    <glyph glyph-name="Egrave" unicode="&#xc8;" horiz-adv-x="479" 
d="M392 323l-199.002 -0.00195312v-232h237c6 0 10.333 -0.333008 13 -1s5 -2.5 7 -5.5s3 -7.5 3 -13.5v-58c-1.33301 -5.33301 -3.5 -8.83301 -6.5 -10.5s-8.5 -2.5 -16.5 -2.5h-348c-9.33301 0 -15.666 1.33301 -18.999 4s-5 9 -5 19v656
c0 10.667 1.66699 17.834 5 21.501s9.66602 5.83398 18.999 6.50098h348c6 0 10.333 -0.166992 13 -0.5s5 -2 7 -5s3 -7.5 3 -13.5v-49c0.666992 -9.33301 -0.666016 -15.333 -3.99902 -18s-9.66602 -4 -18.999 -4h-237v-206h200c8 0 13.5 -1.16699 16.5 -3.5
s4.5 -7.5 4.5 -15.5v-49c0 -8.66699 -1.5 -14.167 -4.5 -16.5s-8.83301 -3.5 -17.5 -3.5zM179.998 915.998l89 -99c7.33301 -8.66699 11 -18 11 -28c0 -8 -2.5 -14.833 -7.5 -20.5s-10.833 -8.5 -17.5 -8.5c-4.66699 0 -12 3.33301 -22 10l-96 71
c-16.667 15.333 -25 31.333 -25 48c0 12 3.5 22.333 10.5 31s15.833 13 26.5 13s21 -5.66699 31 -17z" />
    <glyph glyph-name="Eacute" unicode="&#xc9;" horiz-adv-x="479" 
d="M392 323l-199.002 -0.00195312v-232h237c6 0 10.333 -0.333008 13 -1s5 -2.5 7 -5.5s3 -7.5 3 -13.5v-58c-1.33301 -5.33301 -3.5 -8.83301 -6.5 -10.5s-8.5 -2.5 -16.5 -2.5h-348c-9.33301 0 -15.666 1.33301 -18.999 4s-5 9 -5 19v656
c0 10.667 1.66699 17.834 5 21.501s9.66602 5.83398 18.999 6.50098h348c6 0 10.333 -0.166992 13 -0.5s5 -2 7 -5s3 -7.5 3 -13.5v-49c0.666992 -9.33301 -0.666016 -15.333 -3.99902 -18s-9.66602 -4 -18.999 -4h-237v-206h200c8 0 13.5 -1.16699 16.5 -3.5
s4.5 -7.5 4.5 -15.5v-49c0 -8.66699 -1.5 -14.167 -4.5 -16.5s-8.83301 -3.5 -17.5 -3.5zM370.998 840.998l-96 -71c-10 -6.66699 -17.333 -10 -22 -10c-6.66699 0 -12.5 2.83301 -17.5 8.5s-7.5 12.5 -7.5 20.5c0 10 3.66699 19.333 11 28l89 99c10 11.333 20.333 17 31 17
s19.5 -4.33301 26.5 -13s10.5 -19 10.5 -31c0 -16.667 -8.33301 -32.667 -25 -48z" />
    <glyph glyph-name="Ecircumflex" unicode="&#xca;" horiz-adv-x="479" 
d="M392 323l-199.002 -0.00195312v-232h237c6 0 10.333 -0.333008 13 -1s5 -2.5 7 -5.5s3 -7.5 3 -13.5v-58c-1.33301 -5.33301 -3.5 -8.83301 -6.5 -10.5s-8.5 -2.5 -16.5 -2.5h-348c-9.33301 0 -15.666 1.33301 -18.999 4s-5 9 -5 19v656
c0 10.667 1.66699 17.834 5 21.501s9.66602 5.83398 18.999 6.50098h348c6 0 10.333 -0.166992 13 -0.5s5 -2 7 -5s3 -7.5 3 -13.5v-49c0.666992 -9.33301 -0.666016 -15.333 -3.99902 -18s-9.66602 -4 -18.999 -4h-237v-206h200c8 0 13.5 -1.16699 16.5 -3.5
s4.5 -7.5 4.5 -15.5v-49c0 -8.66699 -1.5 -14.167 -4.5 -16.5s-8.83301 -3.5 -17.5 -3.5zM215.998 811.998l-74.999 -47c-7.33301 -6 -14.333 -9 -21 -9c-4.66699 0 -8.83398 2.33301 -12.501 7s-5.5 10 -5.5 16c0 10 7.66699 21.667 23 35c40 36 68 63 84 81
c14 16.667 26.333 25 37 25c8.66699 0 20 -7.33301 34 -22c22 -24.667 50 -49.667 84 -75c7.33301 -6 12 -10 14 -12s4.66699 -4.83301 8 -8.5s5.33301 -6.66699 6 -9s1 -5.5 1 -9.5c0 -7.33301 -2 -13.333 -6 -18s-8.33301 -7 -13 -7c-4 0 -10.667 2.33301 -20 7l-75 47
c-14 8.66699 -24.333 13 -31 13c-7.33301 0 -18 -4.66699 -32 -14z" />
    <glyph glyph-name="Edieresis" unicode="&#xcb;" horiz-adv-x="479" 
d="M392 323l-199.002 -0.00195312v-232h237c6 0 10.333 -0.333008 13 -1s5 -2.5 7 -5.5s3 -7.5 3 -13.5v-58c-1.33301 -5.33301 -3.5 -8.83301 -6.5 -10.5s-8.5 -2.5 -16.5 -2.5h-348c-9.33301 0 -15.666 1.33301 -18.999 4s-5 9 -5 19v656
c0 10.667 1.66699 17.834 5 21.501s9.66602 5.83398 18.999 6.50098h348c6 0 10.333 -0.166992 13 -0.5s5 -2 7 -5s3 -7.5 3 -13.5v-49c0.666992 -9.33301 -0.666016 -15.333 -3.99902 -18s-9.66602 -4 -18.999 -4h-237v-206h200c8 0 13.5 -1.16699 16.5 -3.5
s4.5 -7.5 4.5 -15.5v-49c0 -8.66699 -1.5 -14.167 -4.5 -16.5s-8.83301 -3.5 -17.5 -3.5zM218.998 833.998c0.666992 -16.667 -4.83301 -32 -16.5 -46s-29.167 -21 -52.5 -21c-19.333 0 -35.833 5.5 -49.5 16.5s-20.5 26.5 -20.5 46.5s6.83301 35.833 20.5 47.5
s30.5 17.5 50.5 17.5c18.667 0 34.5 -5.33301 47.5 -16s19.833 -25.667 20.5 -45zM415.998 833.998c0.666992 -16.667 -4.83301 -31.999 -16.5 -45.999s-29.167 -21 -52.5 -21c-19.333 0 -35.833 5.66699 -49.5 17s-20.5 26.666 -20.5 45.999c0 20 6.83301 35.833 20.5 47.5
s30.5 17.5 50.5 17.5c18 0 33.667 -5.33301 47 -16s20.333 -25.667 21 -45z" />
    <glyph glyph-name="Igrave" unicode="&#xcc;" horiz-adv-x="250" 
d="M194 685v-663.001c0 -8.66699 -1.83301 -14.5 -5.5 -17.5s-9.16699 -4.5 -16.5 -4.5h-93c-8 0.666992 -13.667 2.33398 -17 5.00098s-5 8.33398 -5 17.001v663c0.666992 8 2.16699 13.5 4.5 16.5s7.83301 4.5 16.5 4.5h95c8 0 13.5 -1.33301 16.5 -4
s4.5 -8.33398 4.5 -17.001zM55 915.999l89 -99c7.33301 -8.66699 11 -18 11 -28c0 -8 -2.5 -14.833 -7.5 -20.5s-10.833 -8.5 -17.5 -8.5c-4.66699 0 -12 3.33301 -22 10l-96 71c-16.667 15.333 -25 31.333 -25 48c0 12 3.5 22.333 10.5 31s15.833 13 26.5 13
s21 -5.66699 31 -17z" />
    <glyph glyph-name="Iacute" unicode="&#xcd;" horiz-adv-x="250" 
d="M194 685v-663.001c0 -8.66699 -1.83301 -14.5 -5.5 -17.5s-9.16699 -4.5 -16.5 -4.5h-93c-8 0.666992 -13.667 2.33398 -17 5.00098s-5 8.33398 -5 17.001v663c0.666992 8 2.16699 13.5 4.5 16.5s7.83301 4.5 16.5 4.5h95c8 0 13.5 -1.33301 16.5 -4
s4.5 -8.33398 4.5 -17.001zM246 840.999l-96 -71c-10 -6.66699 -17.333 -10 -22 -10c-6.66699 0 -12.5 2.83301 -17.5 8.5s-7.5 12.5 -7.5 20.5c0 10 3.66699 19.333 11 28l89 99c10 11.333 20.333 17 31 17s19.5 -4.33301 26.5 -13s10.5 -19 10.5 -31
c0 -16.667 -8.33301 -32.667 -25 -48z" />
    <glyph glyph-name="Icircumflex" unicode="&#xce;" horiz-adv-x="250" 
d="M194 685v-663.001c0 -8.66699 -1.83301 -14.5 -5.5 -17.5s-9.16699 -4.5 -16.5 -4.5h-93c-8 0.666992 -13.667 2.33398 -17 5.00098s-5 8.33398 -5 17.001v663c0.666992 8 2.16699 13.5 4.5 16.5s7.83301 4.5 16.5 4.5h95c8 0 13.5 -1.33301 16.5 -4
s4.5 -8.33398 4.5 -17.001zM91 811.999l-74.999 -47c-7.33301 -6 -14.333 -9 -21 -9c-4.66699 0 -8.83398 2.33301 -12.501 7s-5.5 10 -5.5 16c0 10 7.66699 21.667 23 35c40 36 68 63 84 81c14 16.667 26.333 25 37 25c8.66699 0 20 -7.33301 34 -22
c22 -24.667 50 -49.667 84 -75c7.33301 -6 12 -10 14 -12s4.66699 -4.83301 8 -8.5s5.33301 -6.66699 6 -9s1 -5.5 1 -9.5c0 -7.33301 -2 -13.333 -6 -18s-8.33301 -7 -13 -7c-4 0 -10.667 2.33301 -20 7l-75 47c-14 8.66699 -24.333 13 -31 13
c-7.33301 0 -18 -4.66699 -32 -14z" />
    <glyph glyph-name="Idieresis" unicode="&#xcf;" horiz-adv-x="250" 
d="M194 685v-663.001c0 -8.66699 -1.83301 -14.5 -5.5 -17.5s-9.16699 -4.5 -16.5 -4.5h-93c-8 0.666992 -13.667 2.33398 -17 5.00098s-5 8.33398 -5 17.001v663c0.666992 8 2.16699 13.5 4.5 16.5s7.83301 4.5 16.5 4.5h95c8 0 13.5 -1.33301 16.5 -4
s4.5 -8.33398 4.5 -17.001zM94 833.999c0.666992 -16.667 -4.83301 -32 -16.5 -46s-29.167 -21 -52.5 -21c-19.333 0 -35.833 5.5 -49.5 16.5s-20.5 26.5 -20.5 46.5s6.83301 35.833 20.5 47.5s30.5 17.5 50.5 17.5c18.667 0 34.5 -5.33301 47.5 -16
s19.833 -25.667 20.5 -45zM291 833.999c0.666992 -16.667 -4.83301 -31.999 -16.5 -45.999s-29.167 -21 -52.5 -21c-19.333 0 -35.833 5.66699 -49.5 17s-20.5 26.666 -20.5 45.999c0 20 6.83301 35.833 20.5 47.5s30.5 17.5 50.5 17.5c18 0 33.667 -5.33301 47 -16
s20.333 -25.667 21 -45z" />
    <glyph glyph-name="Eth" unicode="&#xd0;" horiz-adv-x="667" 
d="M58 36l0.00195312 305.999h-47c-6.66699 0.666992 -10.334 6 -11.001 16v47c0 8.66699 3.66699 14 11 16h47v244c0.666992 10.667 2 17.834 4 21.501s6.33301 6.5 13 8.5c32.667 12.667 89.334 19 170.001 19c117.333 0 209.666 -30.333 276.999 -91
c73.333 -65.333 110 -155 110 -269c0 -103.333 -31.667 -187.666 -95 -252.999c-72 -72.667 -177 -109 -315 -109c-72 0 -120 4.33301 -144 13c-12.667 3.33301 -19.334 13.666 -20.001 30.999zM194.002 626.999v-206.001h159c10.667 0 16.334 -3.33301 17.001 -10
c0.666992 -2 1 -19 1 -51c0 -7.33301 -1.33301 -12.166 -4 -14.499s-7.66699 -3.5 -15 -3.5h-158v-260c9.33301 -0.666992 19.666 -1 30.999 -1c96 0 167 31 213 93c33.333 46 50 107 50 183c0 72 -17.333 133 -52 183c-45.333 60 -111.333 90 -198 90
c-3.33301 0 -18 -1 -44 -3z" />
    <glyph glyph-name="Ntilde" unicode="&#xd1;" horiz-adv-x="667" 
d="M187 688l319 -447.001v445c0 7.33301 1.33301 12.5 4 15.5s8 4.5 16 4.5h63c8 0.666992 13.333 -0.5 16 -3.5s4 -8.5 4 -16.5v-666c0 -8 -1.5 -13.333 -4.5 -16s-8.5 -4 -16.5 -4h-56c-8.66699 1.33301 -17.334 8.33301 -26.001 21l-344 485v-484
c0 -8.66699 -1.33301 -14.5 -4 -17.5s-8 -4.5 -16 -4.5h-63c-8.66699 0 -14.5 1.16699 -17.5 3.5s-4.5 7.83301 -4.5 16.5v665c0 8.66699 1.66699 14.334 5 17.001s9 4 17 4h76c8.66699 0 14.834 -1 18.501 -3s8.16699 -7 13.5 -15zM323 792.999
c-24.667 15.333 -43.668 22.999 -57.001 22.999s-25.666 -5.66699 -36.999 -17c-10.667 -13.333 -17.834 -21.5 -21.501 -24.5s-8.16699 -4.5 -13.5 -4.5c-14 0 -21 9 -21 27c0 18.667 8 39.334 24 62.001s40 34 72 34c18.667 0 42.334 -9 71.001 -27
c28 -16 48.333 -24 61 -24c14 0 27.667 6.66699 41 20c12.667 17.333 23 26 31 26c13.333 0 20 -8.33301 20 -25c0 -22 -8 -43.667 -24 -65s-40 -32 -72 -32c-20 0 -44.667 9 -74 27z" />
    <glyph glyph-name="Ograve" unicode="&#xd2;" horiz-adv-x="708" 
d="M673 372c4.66699 -112 -23.166 -204.668 -83.499 -278.001s-138.5 -110 -234.5 -110c-90 0 -165.667 32.333 -227 97s-92 155 -92 271c0 107.333 28.667 196 86 266s135.666 105 234.999 105c95.333 0 170.833 -33.667 226.5 -101s85.5 -150.666 89.5 -249.999z
M532 369.999c-1.33301 80 -16.334 142.998 -45.001 188.998c-33.333 52 -77.666 78 -132.999 78c-27.333 0 -52.333 -6.66699 -75 -20c-68 -40 -102 -124.667 -102 -254c0 -37.333 2.66699 -71 8 -101c6.66699 -38 17.5 -70.167 32.5 -96.5s31.667 -45.166 50 -56.499
s34.5 -19.166 48.5 -23.499s27.333 -6.5 40 -6.5c58 0 103.667 29 137 87c27.333 49.333 40.333 117.333 39 204zM283.999 915.997l89 -99c7.33301 -8.66699 11 -18 11 -28c0 -8 -2.5 -14.833 -7.5 -20.5s-10.833 -8.5 -17.5 -8.5c-4.66699 0 -12 3.33301 -22 10l-96 71
c-16.667 15.333 -25 31.333 -25 48c0 12 3.5 22.333 10.5 31s15.833 13 26.5 13s21 -5.66699 31 -17z" />
    <glyph glyph-name="Oacute" unicode="&#xd3;" horiz-adv-x="708" 
d="M673 372c4.66699 -112 -23.166 -204.668 -83.499 -278.001s-138.5 -110 -234.5 -110c-90 0 -165.667 32.333 -227 97s-92 155 -92 271c0 107.333 28.667 196 86 266s135.666 105 234.999 105c95.333 0 170.833 -33.667 226.5 -101s85.5 -150.666 89.5 -249.999z
M532 369.999c-1.33301 80 -16.334 142.998 -45.001 188.998c-33.333 52 -77.666 78 -132.999 78c-27.333 0 -52.333 -6.66699 -75 -20c-68 -40 -102 -124.667 -102 -254c0 -37.333 2.66699 -71 8 -101c6.66699 -38 17.5 -70.167 32.5 -96.5s31.667 -45.166 50 -56.499
s34.5 -19.166 48.5 -23.499s27.333 -6.5 40 -6.5c58 0 103.667 29 137 87c27.333 49.333 40.333 117.333 39 204zM474.999 840.997l-96 -71c-10 -6.66699 -17.333 -10 -22 -10c-6.66699 0 -12.5 2.83301 -17.5 8.5s-7.5 12.5 -7.5 20.5c0 10 3.66699 19.333 11 28l89 99
c10 11.333 20.333 17 31 17s19.5 -4.33301 26.5 -13s10.5 -19 10.5 -31c0 -16.667 -8.33301 -32.667 -25 -48z" />
    <glyph glyph-name="Ocircumflex" unicode="&#xd4;" horiz-adv-x="708" 
d="M673 372c4.66699 -112 -23.166 -204.668 -83.499 -278.001s-138.5 -110 -234.5 -110c-90 0 -165.667 32.333 -227 97s-92 155 -92 271c0 107.333 28.667 196 86 266s135.666 105 234.999 105c95.333 0 170.833 -33.667 226.5 -101s85.5 -150.666 89.5 -249.999z
M532 369.999c-1.33301 80 -16.334 142.998 -45.001 188.998c-33.333 52 -77.666 78 -132.999 78c-27.333 0 -52.333 -6.66699 -75 -20c-68 -40 -102 -124.667 -102 -254c0 -37.333 2.66699 -71 8 -101c6.66699 -38 17.5 -70.167 32.5 -96.5s31.667 -45.166 50 -56.499
s34.5 -19.166 48.5 -23.499s27.333 -6.5 40 -6.5c58 0 103.667 29 137 87c27.333 49.333 40.333 117.333 39 204zM319.999 811.997l-74.999 -47c-7.33301 -6 -14.333 -9 -21 -9c-4.66699 0 -8.83398 2.33301 -12.501 7s-5.5 10 -5.5 16c0 10 7.66699 21.667 23 35
c40 36 68 63 84 81c14 16.667 26.333 25 37 25c8.66699 0 20 -7.33301 34 -22c22 -24.667 50 -49.667 84 -75c7.33301 -6 12 -10 14 -12s4.66699 -4.83301 8 -8.5s5.33301 -6.66699 6 -9s1 -5.5 1 -9.5c0 -7.33301 -2 -13.333 -6 -18s-8.33301 -7 -13 -7
c-4 0 -10.667 2.33301 -20 7l-75 47c-14 8.66699 -24.333 13 -31 13c-7.33301 0 -18 -4.66699 -32 -14z" />
    <glyph glyph-name="Otilde" unicode="&#xd5;" horiz-adv-x="708" 
d="M673 372c4.66699 -112 -23.166 -204.668 -83.499 -278.001s-138.5 -110 -234.5 -110c-90 0 -165.667 32.333 -227 97s-92 155 -92 271c0 107.333 28.667 196 86 266s135.666 105 234.999 105c95.333 0 170.833 -33.667 226.5 -101s85.5 -150.666 89.5 -249.999z
M532 369.999c-1.33301 80 -16.334 142.998 -45.001 188.998c-33.333 52 -77.666 78 -132.999 78c-27.333 0 -52.333 -6.66699 -75 -20c-68 -40 -102 -124.667 -102 -254c0 -37.333 2.66699 -71 8 -101c6.66699 -38 17.5 -70.167 32.5 -96.5s31.667 -45.166 50 -56.499
s34.5 -19.166 48.5 -23.499s27.333 -6.5 40 -6.5c58 0 103.667 29 137 87c27.333 49.333 40.333 117.333 39 204zM343.999 792.997c-24.667 15.333 -43.668 22.999 -57.001 22.999s-25.666 -5.66699 -36.999 -17c-10.667 -13.333 -17.834 -21.5 -21.501 -24.5
s-8.16699 -4.5 -13.5 -4.5c-14 0 -21 9 -21 27c0 18.667 8 39.334 24 62.001s40 34 72 34c18.667 0 42.334 -9 71.001 -27c28 -16 48.333 -24 61 -24c14 0 27.667 6.66699 41 20c12.667 17.333 23 26 31 26c13.333 0 20 -8.33301 20 -25c0 -22 -8 -43.667 -24 -65
s-40 -32 -72 -32c-20 0 -44.667 9 -74 27z" />
    <glyph glyph-name="Odieresis" unicode="&#xd6;" horiz-adv-x="708" 
d="M673 372c4.66699 -112 -23.166 -204.668 -83.499 -278.001s-138.5 -110 -234.5 -110c-90 0 -165.667 32.333 -227 97s-92 155 -92 271c0 107.333 28.667 196 86 266s135.666 105 234.999 105c95.333 0 170.833 -33.667 226.5 -101s85.5 -150.666 89.5 -249.999z
M532 369.999c-1.33301 80 -16.334 142.998 -45.001 188.998c-33.333 52 -77.666 78 -132.999 78c-27.333 0 -52.333 -6.66699 -75 -20c-68 -40 -102 -124.667 -102 -254c0 -37.333 2.66699 -71 8 -101c6.66699 -38 17.5 -70.167 32.5 -96.5s31.667 -45.166 50 -56.499
s34.5 -19.166 48.5 -23.499s27.333 -6.5 40 -6.5c58 0 103.667 29 137 87c27.333 49.333 40.333 117.333 39 204zM325.999 833.997c0.666992 -16.667 -4.83301 -32 -16.5 -46s-29.167 -21 -52.5 -21c-19.333 0 -35.833 5.5 -49.5 16.5s-20.5 26.5 -20.5 46.5
s6.83301 35.833 20.5 47.5s30.5 17.5 50.5 17.5c18.667 0 34.5 -5.33301 47.5 -16s19.833 -25.667 20.5 -45zM522.999 833.997c0.666992 -16.667 -4.83301 -31.999 -16.5 -45.999s-29.167 -21 -52.5 -21c-19.333 0 -35.833 5.66699 -49.5 17s-20.5 26.666 -20.5 45.999
c0 20 6.83301 35.833 20.5 47.5s30.5 17.5 50.5 17.5c18 0 33.667 -5.33301 47 -16s20.333 -25.667 21 -45z" />
    <glyph glyph-name="multiply" unicode="&#xd7;" horiz-adv-x="500" 
d="M307 293l150 -152l-56 -56l-150 150l-152 -150l-56 56l152 152l-152 150l56 55l152 -150l150 150l56 -55z" />
    <glyph glyph-name="Oslash" unicode="&#xd8;" horiz-adv-x="708" 
d="M658 734l-76.002 -108.001c62 -72.667 93 -160.667 93 -264c0 -112 -30.5 -203 -91.5 -273s-137.833 -105 -230.5 -105c-68.667 0 -131 21 -187 63l-71 -102c-4.66699 -6.66699 -8.66699 -10 -12 -10s-10.166 3.83301 -20.499 11.5s-15.5 13.5 -15.5 17.5c0 2 2 6 6 12
l75 107c-62 66.667 -93 152.334 -93 257.001c0 113.333 30 205.333 90 276s138 106 234 106c71.333 0 133 -19.667 185 -59l71 101c4.66699 6 8.33398 9 11.001 9s9.5 -3.66699 20.5 -11s16.5 -13 16.5 -17s-1.66699 -7.66699 -5 -11zM510.998 523.999l-278.001 -388.001
c32.667 -40 72.334 -60 119.001 -60c55.333 0 100.833 25.667 136.5 77s53.5 117.333 53.5 198c0 62.667 -10.333 120.334 -31 173.001zM204.997 190.998l278 388c-36 43.333 -76.667 65 -122 65c-49.333 0 -93.833 -23.5 -133.5 -70.5s-59.5 -116.5 -59.5 -208.5
c0 -64.667 12.333 -122.667 37 -174z" />
    <glyph glyph-name="Ugrave" unicode="&#xd9;" horiz-adv-x="583" 
d="M534 687l0.000976562 -480.003c-1.33301 -49.333 -8.33301 -86.333 -21 -111c-3.33301 -6.66699 -6.83301 -13.167 -10.5 -19.5s-11.334 -15.666 -23.001 -27.999s-24.834 -22.666 -39.501 -30.999s-34.834 -16 -60.501 -23s-54.167 -10.5 -85.5 -10.5
c-113.333 0 -187.666 37.333 -222.999 112c-14 29.333 -21 69 -21 119v472c0 8 1.33301 13.167 4 15.5s7.66699 3.5 15 3.5h98c8.66699 0 14.334 -1 17.001 -3s4 -7.33301 4 -16v-457c0 -12.667 0.5 -23.334 1.5 -32.001s3.66699 -20.667 8 -36s10.5 -27.666 18.5 -36.999
s20 -17.833 36 -25.5s35 -11.5 57 -11.5c78 0 117 44 117 132v465c0 8.66699 1.33301 14.334 4 17.001s8 4 16 4h67c8 0 13.5 -1.16699 16.5 -3.5s4.5 -7.5 4.5 -15.5zM232.001 915.997l89 -99c7.33301 -8.66699 11 -18 11 -28c0 -8 -2.5 -14.833 -7.5 -20.5
s-10.833 -8.5 -17.5 -8.5c-4.66699 0 -12 3.33301 -22 10l-96 71c-16.667 15.333 -25 31.333 -25 48c0 12 3.5 22.333 10.5 31s15.833 13 26.5 13s21 -5.66699 31 -17z" />
    <glyph glyph-name="Uacute" unicode="&#xda;" horiz-adv-x="583" 
d="M534 687l0.000976562 -480.003c-1.33301 -49.333 -8.33301 -86.333 -21 -111c-3.33301 -6.66699 -6.83301 -13.167 -10.5 -19.5s-11.334 -15.666 -23.001 -27.999s-24.834 -22.666 -39.501 -30.999s-34.834 -16 -60.501 -23s-54.167 -10.5 -85.5 -10.5
c-113.333 0 -187.666 37.333 -222.999 112c-14 29.333 -21 69 -21 119v472c0 8 1.33301 13.167 4 15.5s7.66699 3.5 15 3.5h98c8.66699 0 14.334 -1 17.001 -3s4 -7.33301 4 -16v-457c0 -12.667 0.5 -23.334 1.5 -32.001s3.66699 -20.667 8 -36s10.5 -27.666 18.5 -36.999
s20 -17.833 36 -25.5s35 -11.5 57 -11.5c78 0 117 44 117 132v465c0 8.66699 1.33301 14.334 4 17.001s8 4 16 4h67c8 0 13.5 -1.16699 16.5 -3.5s4.5 -7.5 4.5 -15.5zM423.001 840.997l-96 -71c-10 -6.66699 -17.333 -10 -22 -10c-6.66699 0 -12.5 2.83301 -17.5 8.5
s-7.5 12.5 -7.5 20.5c0 10 3.66699 19.333 11 28l89 99c10 11.333 20.333 17 31 17s19.5 -4.33301 26.5 -13s10.5 -19 10.5 -31c0 -16.667 -8.33301 -32.667 -25 -48z" />
    <glyph glyph-name="Ucircumflex" unicode="&#xdb;" horiz-adv-x="583" 
d="M534 687l0.000976562 -480.003c-1.33301 -49.333 -8.33301 -86.333 -21 -111c-3.33301 -6.66699 -6.83301 -13.167 -10.5 -19.5s-11.334 -15.666 -23.001 -27.999s-24.834 -22.666 -39.501 -30.999s-34.834 -16 -60.501 -23s-54.167 -10.5 -85.5 -10.5
c-113.333 0 -187.666 37.333 -222.999 112c-14 29.333 -21 69 -21 119v472c0 8 1.33301 13.167 4 15.5s7.66699 3.5 15 3.5h98c8.66699 0 14.334 -1 17.001 -3s4 -7.33301 4 -16v-457c0 -12.667 0.5 -23.334 1.5 -32.001s3.66699 -20.667 8 -36s10.5 -27.666 18.5 -36.999
s20 -17.833 36 -25.5s35 -11.5 57 -11.5c78 0 117 44 117 132v465c0 8.66699 1.33301 14.334 4 17.001s8 4 16 4h67c8 0 13.5 -1.16699 16.5 -3.5s4.5 -7.5 4.5 -15.5zM268.001 811.997l-74.999 -47c-7.33301 -6 -14.333 -9 -21 -9c-4.66699 0 -8.83398 2.33301 -12.501 7
s-5.5 10 -5.5 16c0 10 7.66699 21.667 23 35c40 36 68 63 84 81c14 16.667 26.333 25 37 25c8.66699 0 20 -7.33301 34 -22c22 -24.667 50 -49.667 84 -75c7.33301 -6 12 -10 14 -12s4.66699 -4.83301 8 -8.5s5.33301 -6.66699 6 -9s1 -5.5 1 -9.5
c0 -7.33301 -2 -13.333 -6 -18s-8.33301 -7 -13 -7c-4 0 -10.667 2.33301 -20 7l-75 47c-14 8.66699 -24.333 13 -31 13c-7.33301 0 -18 -4.66699 -32 -14z" />
    <glyph glyph-name="Udieresis" unicode="&#xdc;" horiz-adv-x="583" 
d="M534 687l0.000976562 -480.003c-1.33301 -49.333 -8.33301 -86.333 -21 -111c-3.33301 -6.66699 -6.83301 -13.167 -10.5 -19.5s-11.334 -15.666 -23.001 -27.999s-24.834 -22.666 -39.501 -30.999s-34.834 -16 -60.501 -23s-54.167 -10.5 -85.5 -10.5
c-113.333 0 -187.666 37.333 -222.999 112c-14 29.333 -21 69 -21 119v472c0 8 1.33301 13.167 4 15.5s7.66699 3.5 15 3.5h98c8.66699 0 14.334 -1 17.001 -3s4 -7.33301 4 -16v-457c0 -12.667 0.5 -23.334 1.5 -32.001s3.66699 -20.667 8 -36s10.5 -27.666 18.5 -36.999
s20 -17.833 36 -25.5s35 -11.5 57 -11.5c78 0 117 44 117 132v465c0 8.66699 1.33301 14.334 4 17.001s8 4 16 4h67c8 0 13.5 -1.16699 16.5 -3.5s4.5 -7.5 4.5 -15.5zM274.001 833.997c0.666992 -16.667 -4.83301 -32 -16.5 -46s-29.167 -21 -52.5 -21
c-19.333 0 -35.833 5.5 -49.5 16.5s-20.5 26.5 -20.5 46.5s6.83301 35.833 20.5 47.5s30.5 17.5 50.5 17.5c18.667 0 34.5 -5.33301 47.5 -16s19.833 -25.667 20.5 -45zM471.001 833.997c0.666992 -16.667 -4.83301 -31.999 -16.5 -45.999s-29.167 -21 -52.5 -21
c-19.333 0 -35.833 5.66699 -49.5 17s-20.5 26.666 -20.5 45.999c0 20 6.83301 35.833 20.5 47.5s30.5 17.5 50.5 17.5c18 0 33.667 -5.33301 47 -16s20.333 -25.667 21 -45z" />
    <glyph glyph-name="Yacute" unicode="&#xdd;" 
d="M533 675l-195 -361v-295c0 -8.66699 -1.66699 -14 -5 -16s-9 -3 -17 -3h-97c-8 -0 -13.333 1.33301 -16 4s-4 7.66699 -4 15v300l-191 356c-5.33301 8.66699 -8 14.667 -8 18c0 8.66699 6 13 18 13h107c8.66699 0 14.5 -1 17.5 -3s6.16699 -6.66699 9.5 -14l135 -258
l138 256c4.66699 8 8.5 13.167 11.5 15.5s8.5 3.5 16.5 3.5h69c12.667 0 19 -4 19 -12c0 -4 -2.66699 -10.333 -8 -19zM402 841l-96 -71c-10 -6.66699 -17.333 -10 -22 -10c-6.66699 0 -12.5 2.83301 -17.5 8.5s-7.5 12.5 -7.5 20.5c0 10 3.66699 19.333 11 28l89 99
c10 11.333 20.333 17 31 17s19.5 -4.33301 26.5 -13s10.5 -19 10.5 -31c0 -16.667 -8.33301 -32.667 -25 -48z" />
    <glyph glyph-name="Thorn" unicode="&#xde;" 
d="M171 0l-92 0.00195312c-8.66699 0 -14.5 1.5 -17.5 4.5s-4.5 8.83301 -4.5 17.5v663c0 8 1.33301 13.5 4 16.5s8.66699 4.83301 18 5.5h92c8.66699 0 14.5 -1.33301 17.5 -4s4.5 -8.33398 4.5 -17.001v-119c36.667 8.66699 71 13 103 13c44 0 81.833 -7 113.5 -21
s55 -29.667 70 -47s26.833 -37.833 35.5 -61.5s13.5 -41.167 14.5 -52.5s1.5 -22 1.5 -32c0 -56 -18.333 -103 -55 -141c-49.333 -50 -124.333 -75 -225 -75c-12.667 0 -32 1 -58 3v-132c0 -8.66699 -1.66699 -14.334 -5 -17.001s-9 -4 -17 -4zM193 497.002v-265
c12 -2 25.667 -3 41 -3c105.333 0 158 46.667 158 140c0 38 -8.66699 68.333 -26 91c-21.333 28.667 -56 43 -104 43c-22 0 -45 -2 -69 -6z" />
    <glyph glyph-name="germandbls" unicode="&#xdf;" 
d="M177 576l0.00292969 -555.997c-0.666992 -8.66699 -2.16699 -14.167 -4.5 -16.5s-7.83301 -3.5 -16.5 -3.5h-80c-9.33301 0.666992 -15.333 1.83398 -18 3.50098s-4.33398 6.83398 -5.00098 15.501v446c2 85.333 16 152.333 42 201c40 74.667 104 112 192 112
c51.333 0 92.333 -13.333 123 -40s46 -59.334 46 -98.001c0 -16.667 -3.33301 -33.667 -10 -51s-13 -30.666 -19 -39.999s-15 -22.333 -27 -39c-21.333 -28.667 -34.5 -47.667 -39.5 -57s-7.5 -19 -7.5 -29c0 -12.667 4 -23.834 12 -33.501s25.667 -26.5 53 -50.5
c23.333 -19.333 41.666 -35.833 54.999 -49.5s26.5 -33.167 39.5 -58.5s19.5 -52 19.5 -80c0 -46.667 -15.833 -85.834 -47.5 -117.501s-76.5 -47.5 -134.5 -47.5c-44 0 -75.833 8.16699 -95.5 24.5s-29.5 33.833 -29.5 52.5c0 13.333 4.66699 24.333 14 33s20.333 13 33 13
c12 0 25.667 -7 41 -21c20 -20 39.333 -30 58 -30c16 0 29.667 5.66699 41 17s17 26.666 17 45.999c0 13.333 -3.16699 26.166 -9.5 38.499s-12.5 21.666 -18.5 27.999s-15.333 15.166 -28 26.499l-60 50c-15.333 12.667 -27.166 23 -35.499 31s-16.833 20.167 -25.5 36.5
s-13 33.166 -13 50.499c0 14 2.66699 27.833 8 41.5s10.833 24.834 16.5 33.501s14.167 20.334 25.5 35.001c17.333 23.333 29.166 39.833 35.499 49.5s12.166 21 17.499 34s8 25.833 8 38.5c0 22.667 -7.66699 43 -23 61s-36.333 27 -63 27
c-56.667 0 -85.667 -42.333 -87 -127z" />
    <glyph glyph-name="agrave" unicode="&#xe0;" horiz-adv-x="458" 
d="M410 356l-0.00390625 -249.999c-0.666992 -24.667 -3.66699 -43.167 -9 -55.5s-17 -23.5 -35 -33.5c-36 -20 -85 -30 -147 -30c-9.33301 0 -18 0.333008 -26 1s-20.667 2 -38 4s-32.5 6.16699 -45.5 12.5s-26.5 14.333 -40.5 24s-24.833 23.167 -32.5 40.5
s-11.5 37 -11.5 59c0 40 14.667 74 44 102c14 14 32.5 26.333 55.5 37s44.833 19 65.5 25s54.667 15.333 102 28v51c0 12.667 -0.5 22.834 -1.5 30.501s-3.16699 17 -6.5 28s-9.5 19.167 -18.5 24.5s-20.5 8 -34.5 8c-11.333 0 -21.166 -1.66699 -29.499 -5
s-15.333 -8.83301 -21 -16.5s-9.5 -13.167 -11.5 -16.5s-4.66699 -9 -8 -17c-2.66699 -8.66699 -5.16699 -15 -7.5 -19s-5.5 -8.83301 -9.5 -14.5s-9.16699 -9.83398 -15.5 -12.501s-14.166 -4 -23.499 -4c-15.333 0 -28.166 4.83301 -38.499 14.5s-15.5 22.5 -15.5 38.5
c0 32 18.667 60.167 56 84.5s85 36.5 143 36.5c22 0 41.833 -2.16699 59.5 -6.5s32 -9.33301 43 -15s20.333 -13.834 28 -24.501s13.334 -20.167 17.001 -28.5s6.5 -19.666 8.5 -33.999s3.16699 -25.333 3.5 -33s0.5 -18.834 0.5 -33.501zM291.996 122.001v140.001
c-20 -6 -35.167 -10.833 -45.5 -14.5s-23 -9.16699 -38 -16.5s-26.167 -14.5 -33.5 -21.5s-13.833 -16.333 -19.5 -28s-8.5 -24.834 -8.5 -39.501c0 -25.333 7.33301 -46 22 -62s35 -24 61 -24c41.333 0 62 22 62 66zM166.996 708.002l79 -84.999
c9.33301 -10.667 14 -20.334 14 -29.001s-2.5 -15.167 -7.5 -19.5s-10.5 -6.5 -16.5 -6.5c-7.33301 0 -15.666 4 -24.999 12l-90 68c-12.667 12.667 -19 25.667 -19 39c0 11.333 3.16699 20.833 9.5 28.5s14.166 11.5 23.499 11.5c10 0 20.667 -6.33301 32 -19z" />
    <glyph glyph-name="aacute" unicode="&#xe1;" horiz-adv-x="458" 
d="M410 356l-0.00390625 -249.999c-0.666992 -24.667 -3.66699 -43.167 -9 -55.5s-17 -23.5 -35 -33.5c-36 -20 -85 -30 -147 -30c-9.33301 0 -18 0.333008 -26 1s-20.667 2 -38 4s-32.5 6.16699 -45.5 12.5s-26.5 14.333 -40.5 24s-24.833 23.167 -32.5 40.5
s-11.5 37 -11.5 59c0 40 14.667 74 44 102c14 14 32.5 26.333 55.5 37s44.833 19 65.5 25s54.667 15.333 102 28v51c0 12.667 -0.5 22.834 -1.5 30.501s-3.16699 17 -6.5 28s-9.5 19.167 -18.5 24.5s-20.5 8 -34.5 8c-11.333 0 -21.166 -1.66699 -29.499 -5
s-15.333 -8.83301 -21 -16.5s-9.5 -13.167 -11.5 -16.5s-4.66699 -9 -8 -17c-2.66699 -8.66699 -5.16699 -15 -7.5 -19s-5.5 -8.83301 -9.5 -14.5s-9.16699 -9.83398 -15.5 -12.501s-14.166 -4 -23.499 -4c-15.333 0 -28.166 4.83301 -38.499 14.5s-15.5 22.5 -15.5 38.5
c0 32 18.667 60.167 56 84.5s85 36.5 143 36.5c22 0 41.833 -2.16699 59.5 -6.5s32 -9.33301 43 -15s20.333 -13.834 28 -24.501s13.334 -20.167 17.001 -28.5s6.5 -19.666 8.5 -33.999s3.16699 -25.333 3.5 -33s0.5 -18.834 0.5 -33.501zM291.996 122.001v140.001
c-20 -6 -35.167 -10.833 -45.5 -14.5s-23 -9.16699 -38 -16.5s-26.167 -14.5 -33.5 -21.5s-13.833 -16.333 -19.5 -28s-8.5 -24.834 -8.5 -39.501c0 -25.333 7.33301 -46 22 -62s35 -24 61 -24c41.333 0 62 22 62 66zM346.996 648.002l-89 -68
c-9.33301 -8 -17.666 -12 -24.999 -12c-6 0 -11.5 2.16699 -16.5 6.5s-7.5 10.833 -7.5 19.5c0 10 4.66699 19.667 14 29l79 85c11.333 12.667 22 19 32 19c9.33301 0 17.166 -3.83301 23.499 -11.5s9.5 -17.167 9.5 -28.5c0 -14 -6.66699 -27 -20 -39z" />
    <glyph glyph-name="acircumflex" unicode="&#xe2;" horiz-adv-x="458" 
d="M410 356l-0.00390625 -249.999c-0.666992 -24.667 -3.66699 -43.167 -9 -55.5s-17 -23.5 -35 -33.5c-36 -20 -85 -30 -147 -30c-9.33301 0 -18 0.333008 -26 1s-20.667 2 -38 4s-32.5 6.16699 -45.5 12.5s-26.5 14.333 -40.5 24s-24.833 23.167 -32.5 40.5
s-11.5 37 -11.5 59c0 40 14.667 74 44 102c14 14 32.5 26.333 55.5 37s44.833 19 65.5 25s54.667 15.333 102 28v51c0 12.667 -0.5 22.834 -1.5 30.501s-3.16699 17 -6.5 28s-9.5 19.167 -18.5 24.5s-20.5 8 -34.5 8c-11.333 0 -21.166 -1.66699 -29.499 -5
s-15.333 -8.83301 -21 -16.5s-9.5 -13.167 -11.5 -16.5s-4.66699 -9 -8 -17c-2.66699 -8.66699 -5.16699 -15 -7.5 -19s-5.5 -8.83301 -9.5 -14.5s-9.16699 -9.83398 -15.5 -12.501s-14.166 -4 -23.499 -4c-15.333 0 -28.166 4.83301 -38.499 14.5s-15.5 22.5 -15.5 38.5
c0 32 18.667 60.167 56 84.5s85 36.5 143 36.5c22 0 41.833 -2.16699 59.5 -6.5s32 -9.33301 43 -15s20.333 -13.834 28 -24.501s13.334 -20.167 17.001 -28.5s6.5 -19.666 8.5 -33.999s3.16699 -25.333 3.5 -33s0.5 -18.834 0.5 -33.501zM291.996 122.001v140.001
c-20 -6 -35.167 -10.833 -45.5 -14.5s-23 -9.16699 -38 -16.5s-26.167 -14.5 -33.5 -21.5s-13.833 -16.333 -19.5 -28s-8.5 -24.834 -8.5 -39.501c0 -25.333 7.33301 -46 22 -62s35 -24 61 -24c41.333 0 62 22 62 66zM196.996 615.002l-60 -41
c-10.667 -6 -18.334 -9 -23.001 -9c-5.33301 0 -9.83301 2 -13.5 6s-5.5 9 -5.5 15c0 8 7.33301 18.333 22 31c32.667 27.333 59.667 53.666 81 78.999c12 14.667 22.333 22 31 22s18 -5 28 -15c26.667 -27.333 54.667 -53 84 -77c18.667 -15.333 28.667 -24.666 30 -27.999
c0.666992 -2 1 -4.66699 1 -8c0 -6 -2.16699 -11.333 -6.5 -16s-9.16602 -7 -14.499 -7c-6 0 -12.333 2.66699 -19 8l-68 42c-14.667 7.33301 -25.667 11 -33 11c-8 0 -19.333 -4.33301 -34 -13z" />
    <glyph glyph-name="atilde" unicode="&#xe3;" horiz-adv-x="458" 
d="M410 356l-0.00390625 -249.999c-0.666992 -24.667 -3.66699 -43.167 -9 -55.5s-17 -23.5 -35 -33.5c-36 -20 -85 -30 -147 -30c-9.33301 0 -18 0.333008 -26 1s-20.667 2 -38 4s-32.5 6.16699 -45.5 12.5s-26.5 14.333 -40.5 24s-24.833 23.167 -32.5 40.5
s-11.5 37 -11.5 59c0 40 14.667 74 44 102c14 14 32.5 26.333 55.5 37s44.833 19 65.5 25s54.667 15.333 102 28v51c0 12.667 -0.5 22.834 -1.5 30.501s-3.16699 17 -6.5 28s-9.5 19.167 -18.5 24.5s-20.5 8 -34.5 8c-11.333 0 -21.166 -1.66699 -29.499 -5
s-15.333 -8.83301 -21 -16.5s-9.5 -13.167 -11.5 -16.5s-4.66699 -9 -8 -17c-2.66699 -8.66699 -5.16699 -15 -7.5 -19s-5.5 -8.83301 -9.5 -14.5s-9.16699 -9.83398 -15.5 -12.501s-14.166 -4 -23.499 -4c-15.333 0 -28.166 4.83301 -38.499 14.5s-15.5 22.5 -15.5 38.5
c0 32 18.667 60.167 56 84.5s85 36.5 143 36.5c22 0 41.833 -2.16699 59.5 -6.5s32 -9.33301 43 -15s20.333 -13.834 28 -24.501s13.334 -20.167 17.001 -28.5s6.5 -19.666 8.5 -33.999s3.16699 -25.333 3.5 -33s0.5 -18.834 0.5 -33.501zM291.996 122.001v140.001
c-20 -6 -35.167 -10.833 -45.5 -14.5s-23 -9.16699 -38 -16.5s-26.167 -14.5 -33.5 -21.5s-13.833 -16.333 -19.5 -28s-8.5 -24.834 -8.5 -39.501c0 -25.333 7.33301 -46 22 -62s35 -24 61 -24c41.333 0 62 22 62 66zM237.996 604.002
c-31.333 20.667 -52.999 31.001 -64.999 31.001c-17.333 0 -32.666 -8.66699 -45.999 -26c-8.66699 -13.333 -16.667 -20 -24 -20c-14 0 -21 8.66699 -21 26c0 20.667 8.66699 41.167 26 61.5s39.666 30.5 66.999 30.5c19.333 0 41.666 -8.66699 66.999 -26
c24.667 -15.333 44 -23 58 -23c17.333 0 31.333 7 42 21c1.33301 2 2.83301 4 4.5 6s3 3.66699 4 5l3 4c1 1.33301 1.83301 2.33301 2.5 3l2.5 2.5l2 2c0.333008 0.333008 0.833008 0.666016 1.5 0.999023l2 1c0.666992 0.333008 1.5 0.5 2.5 0.5h2.5
c12 0 18 -8.33301 18 -25c0 -20 -8.16699 -40.667 -24.5 -62s-38.5 -32 -66.5 -32c-22 0 -41.333 6.33301 -58 19z" />
    <glyph glyph-name="adieresis" unicode="&#xe4;" horiz-adv-x="458" 
d="M410 356l-0.00390625 -249.999c-0.666992 -24.667 -3.66699 -43.167 -9 -55.5s-17 -23.5 -35 -33.5c-36 -20 -85 -30 -147 -30c-9.33301 0 -18 0.333008 -26 1s-20.667 2 -38 4s-32.5 6.16699 -45.5 12.5s-26.5 14.333 -40.5 24s-24.833 23.167 -32.5 40.5
s-11.5 37 -11.5 59c0 40 14.667 74 44 102c14 14 32.5 26.333 55.5 37s44.833 19 65.5 25s54.667 15.333 102 28v51c0 12.667 -0.5 22.834 -1.5 30.501s-3.16699 17 -6.5 28s-9.5 19.167 -18.5 24.5s-20.5 8 -34.5 8c-11.333 0 -21.166 -1.66699 -29.499 -5
s-15.333 -8.83301 -21 -16.5s-9.5 -13.167 -11.5 -16.5s-4.66699 -9 -8 -17c-2.66699 -8.66699 -5.16699 -15 -7.5 -19s-5.5 -8.83301 -9.5 -14.5s-9.16699 -9.83398 -15.5 -12.501s-14.166 -4 -23.499 -4c-15.333 0 -28.166 4.83301 -38.499 14.5s-15.5 22.5 -15.5 38.5
c0 32 18.667 60.167 56 84.5s85 36.5 143 36.5c22 0 41.833 -2.16699 59.5 -6.5s32 -9.33301 43 -15s20.333 -13.834 28 -24.501s13.334 -20.167 17.001 -28.5s6.5 -19.666 8.5 -33.999s3.16699 -25.333 3.5 -33s0.5 -18.834 0.5 -33.501zM291.996 122.001v140.001
c-20 -6 -35.167 -10.833 -45.5 -14.5s-23 -9.16699 -38 -16.5s-26.167 -14.5 -33.5 -21.5s-13.833 -16.333 -19.5 -28s-8.5 -24.834 -8.5 -39.501c0 -25.333 7.33301 -46 22 -62s35 -24 61 -24c41.333 0 62 22 62 66zM204.996 656.002
c0.666992 -17.333 -4.83203 -32.334 -16.499 -45.001s-28.167 -19 -49.5 -19c-19.333 0 -35 5.83301 -47 17.5s-18 26.5 -18 44.5c0 18.667 6.66699 33.667 20 45s29 17 47 17c17.333 0 32.166 -5.66699 44.499 -17s18.833 -25.666 19.5 -42.999zM392.997 656.001
c0.666992 -17.333 -4.66699 -32.334 -16 -45.001s-27.666 -19 -48.999 -19c-20 0 -36 5.83301 -48 17.5s-18 26.167 -18 43.5c0 18.667 6.66699 33.834 20 45.501s29 17.5 47 17.5c17.333 0 32.166 -5.5 44.499 -16.5s18.833 -25.5 19.5 -43.5z" />
    <glyph glyph-name="aring" unicode="&#xe5;" horiz-adv-x="458" 
d="M410 356l-0.00390625 -249.999c-0.666992 -24.667 -3.66699 -43.167 -9 -55.5s-17 -23.5 -35 -33.5c-36 -20 -85 -30 -147 -30c-9.33301 0 -18 0.333008 -26 1s-20.667 2 -38 4s-32.5 6.16699 -45.5 12.5s-26.5 14.333 -40.5 24s-24.833 23.167 -32.5 40.5
s-11.5 37 -11.5 59c0 40 14.667 74 44 102c14 14 32.5 26.333 55.5 37s44.833 19 65.5 25s54.667 15.333 102 28v51c0 12.667 -0.5 22.834 -1.5 30.501s-3.16699 17 -6.5 28s-9.5 19.167 -18.5 24.5s-20.5 8 -34.5 8c-11.333 0 -21.166 -1.66699 -29.499 -5
s-15.333 -8.83301 -21 -16.5s-9.5 -13.167 -11.5 -16.5s-4.66699 -9 -8 -17c-2.66699 -8.66699 -5.16699 -15 -7.5 -19s-5.5 -8.83301 -9.5 -14.5s-9.16699 -9.83398 -15.5 -12.501s-14.166 -4 -23.499 -4c-15.333 0 -28.166 4.83301 -38.499 14.5s-15.5 22.5 -15.5 38.5
c0 32 18.667 60.167 56 84.5s85 36.5 143 36.5c22 0 41.833 -2.16699 59.5 -6.5s32 -9.33301 43 -15s20.333 -13.834 28 -24.501s13.334 -20.167 17.001 -28.5s6.5 -19.666 8.5 -33.999s3.16699 -25.333 3.5 -33s0.5 -18.834 0.5 -33.501zM291.996 122.001v140.001
c-20 -6 -35.167 -10.833 -45.5 -14.5s-23 -9.16699 -38 -16.5s-26.167 -14.5 -33.5 -21.5s-13.833 -16.333 -19.5 -28s-8.5 -24.834 -8.5 -39.501c0 -25.333 7.33301 -46 22 -62s35 -24 61 -24c41.333 0 62 22 62 66zM316.996 651.002
c0 -24.667 -7.83398 -44.833 -23.501 -60.5s-35.5 -23.5 -59.5 -23.5c-23.333 0 -43.166 8 -59.499 24s-24.5 36 -24.5 60c0 23.333 8 43 24 59s36 24 60 24c22.667 0 42.167 -7.5 58.5 -22.5s24.5 -35.167 24.5 -60.5zM272.995 653.003
c-0.666992 11.333 -4.66797 20.333 -12.001 27s-16.333 10 -27 10c-11.333 0 -20.666 -3.83301 -27.999 -11.5s-11 -16.834 -11 -27.501c0 -11.333 3.83301 -20.666 11.5 -27.999s16.834 -11 27.501 -11c10 0 19.167 3.83301 27.5 11.5s12.166 17.5 11.499 29.5z" />
    <glyph glyph-name="ae" unicode="&#xe6;" horiz-adv-x="729" 
d="M661 295l-250 -35.9951c4 -45.333 16.333 -83.333 37 -114c23.333 -32 53 -48 89 -48c42 0 76 19.667 102 59c10.667 16.667 18 27.167 22 31.5s9.33301 6.5 16 6.5s12.667 -2.66699 18 -8s8 -13.333 8 -24c0 -14.667 -3.5 -31.334 -10.5 -50.001
s-17.333 -37.667 -31 -57s-32.834 -35.5 -57.501 -48.5s-52 -19.5 -82 -19.5c-40 0 -76 13.333 -108 40c-15.333 13.333 -29.666 31 -42.999 53c-6 -10.667 -11.5 -19.167 -16.5 -25.5s-14 -15.833 -27 -28.5s-30.333 -22.334 -52 -29.001s-46.834 -10 -75.501 -10
c-54.667 0 -97.5 13.833 -128.5 41.5s-46.5 61.167 -46.5 100.5c0 24.667 5.83301 46.5 17.5 65.5s25.834 34.333 42.501 46s38.5 22 65.5 31s51.167 15.5 72.5 19.5s47.333 8.33301 78 13c-2.66699 52.667 -5.66699 86 -9 100c-8.66699 39.333 -30 59 -64 59
c-14.667 0 -27 -3.5 -37 -10.5s-16.667 -13.833 -20 -20.5s-7.33301 -16.334 -12 -29.001c-4.66699 -11.333 -8.5 -19.833 -11.5 -25.5s-8.66699 -11.667 -17 -18s-18.5 -9.5 -30.5 -9.5c-14 0 -26.167 4.83301 -36.5 14.5s-15.5 22.834 -15.5 39.501
c0 28 16.333 56.167 49 84.5s80.334 42.5 143.001 42.5c24.667 0 46.167 -2.83301 64.5 -8.5s32.5 -13.834 42.5 -24.501s17 -19.167 21 -25.5s8.33301 -14.5 13 -24.5c35.333 55.333 83.666 83 144.999 83c34.667 0 64.667 -7.83301 90 -23.5s43.833 -35 55.5 -58
s20 -44 25 -63s7.5 -35.833 7.5 -50.5c0 -10.667 -2.16699 -18.834 -6.5 -24.501s-9 -9.33398 -14 -11.001s-12.5 -3.5 -22.5 -5.5zM409 319.005l180 26.001c-2 41.333 -11.167 70.166 -27.5 86.499s-34.5 24.5 -54.5 24.5c-26.667 0 -49.5 -11.833 -68.5 -35.5
s-28.833 -57.5 -29.5 -101.5zM303 245.006c-16.667 -2.66699 -30.501 -4.99902 -41.501 -6.99902s-24.5 -5.5 -40.5 -10.5s-28.667 -11 -38 -18s-17.666 -16.5 -24.999 -28.5s-11 -25.667 -11 -41c0 -22.667 6.83301 -42.334 20.5 -59.001s32.167 -25 55.5 -25
c54.667 0 82 44 82 132c0 18 -0.666992 37 -2 57z" />
    <glyph glyph-name="ccedilla" unicode="&#xe7;" horiz-adv-x="458" 
d="M190 -88l8.99609 78.9951c-54.667 12 -96.167 42.833 -124.5 92.5s-42.5 107.167 -42.5 172.5c0 34.667 4.33301 67.834 13 99.501s21.5 60.834 38.5 87.501s40.5 48 70.5 64s64.333 24 103 24c52 0 93.167 -14.333 123.5 -43s45.5 -57.667 45.5 -87
c0 -17.333 -5.33301 -31.166 -16 -41.499s-23 -15.5 -37 -15.5c-10.667 0 -20 3 -28 9s-13.5 11.667 -16.5 17s-6.83301 13 -11.5 23c-18.667 40 -44 60 -76 60c-30 0 -54.667 -15.333 -74 -46s-29 -68.334 -29 -113.001c0 -54 12.333 -100 37 -138s56.334 -57 95.001 -57
c40 0 73.667 22.333 101 67c5.33301 8 9 13.333 11 16s4.83301 5.33398 8.5 8.00098s7.83398 4 12.501 4c17.333 0 26 -11.667 26 -35c0 -22 -5.66699 -45.167 -17 -69.5s-31.333 -47.166 -60 -68.499s-62.334 -32.666 -101.001 -33.999l-12 -58
c16.667 0 31.334 -2.33301 44.001 -7s21.834 -10.167 27.501 -16.5s10.167 -13.5 13.5 -21.5s5.33301 -14 6 -18s1 -7.66699 1 -11c0 -24 -10.167 -44.667 -30.5 -62s-47.5 -26 -81.5 -26c-19.333 0 -40.833 3.33301 -64.5 10s-35.5 16.667 -35.5 30s6.33301 20 19 20l19 -4
c18.667 -4 35.334 -6 50.001 -6s27 3.33301 37 10s15 16.667 15 30c0 22 -16.333 33 -49 33c-15.333 0 -22 7.33301 -20 22z" />
    <glyph glyph-name="egrave" unicode="&#xe8;" horiz-adv-x="479" 
d="M414 303l-276.999 -40.999c4 -32.667 11.167 -60.5 21.5 -83.5s22.5 -40 36.5 -51s27.333 -18.833 40 -23.5s26 -7 40 -7c46 0 85.667 22 119 66c8.66699 12 15 19.833 19 23.5s9 5.5 15 5.5c6.66699 0 12.667 -2.83301 18 -8.5s8 -13.167 8 -22.5
c0 -6.66699 -1.66699 -16.167 -5 -28.5s-9.83301 -27.166 -19.5 -44.499s-21.5 -33.333 -35.5 -48s-33.167 -27.167 -57.5 -37.5s-51.166 -15.5 -80.499 -15.5c-67.333 0 -121.5 23.833 -162.5 71.5s-61.5 114.834 -61.5 201.501c0 47.333 6.5 89.166 19.5 125.499
s30.5 64.666 52.5 84.999s45.833 35.5 71.5 45.5s52.5 15 80.5 15c36.667 0 68.5 -7.33301 95.5 -22s47 -32.834 60 -54.501s22.5 -42 28.5 -61s9 -35.833 9 -50.5c0 -10.667 -2.33301 -19.167 -7 -25.5s-8.83398 -10 -12.501 -11s-8.83398 -2.16699 -15.501 -3.5z
M132.001 324.001l192.001 31c-2 30.667 -11.333 55.167 -28 73.5s-36.334 27.5 -59.001 27.5c-32.667 0 -57.667 -12.5 -75 -37.5s-27.333 -56.5 -30 -94.5zM182.002 708.001l79 -84.999c9.33301 -10.667 14 -20.334 14 -29.001s-2.5 -15.167 -7.5 -19.5
s-10.5 -6.5 -16.5 -6.5c-7.33301 0 -15.666 4 -24.999 12l-90 68c-12.667 12.667 -19 25.667 -19 39c0 11.333 3.16699 20.833 9.5 28.5s14.166 11.5 23.499 11.5c10 0 20.667 -6.33301 32 -19z" />
    <glyph glyph-name="eacute" unicode="&#xe9;" horiz-adv-x="479" 
d="M414 303l-276.999 -40.999c4 -32.667 11.167 -60.5 21.5 -83.5s22.5 -40 36.5 -51s27.333 -18.833 40 -23.5s26 -7 40 -7c46 0 85.667 22 119 66c8.66699 12 15 19.833 19 23.5s9 5.5 15 5.5c6.66699 0 12.667 -2.83301 18 -8.5s8 -13.167 8 -22.5
c0 -6.66699 -1.66699 -16.167 -5 -28.5s-9.83301 -27.166 -19.5 -44.499s-21.5 -33.333 -35.5 -48s-33.167 -27.167 -57.5 -37.5s-51.166 -15.5 -80.499 -15.5c-67.333 0 -121.5 23.833 -162.5 71.5s-61.5 114.834 -61.5 201.501c0 47.333 6.5 89.166 19.5 125.499
s30.5 64.666 52.5 84.999s45.833 35.5 71.5 45.5s52.5 15 80.5 15c36.667 0 68.5 -7.33301 95.5 -22s47 -32.834 60 -54.501s22.5 -42 28.5 -61s9 -35.833 9 -50.5c0 -10.667 -2.33301 -19.167 -7 -25.5s-8.83398 -10 -12.501 -11s-8.83398 -2.16699 -15.501 -3.5z
M132.001 324.001l192.001 31c-2 30.667 -11.333 55.167 -28 73.5s-36.334 27.5 -59.001 27.5c-32.667 0 -57.667 -12.5 -75 -37.5s-27.333 -56.5 -30 -94.5zM362.002 648.001l-89 -68c-9.33301 -8 -17.666 -12 -24.999 -12c-6 0 -11.5 2.16699 -16.5 6.5
s-7.5 10.833 -7.5 19.5c0 10 4.66699 19.667 14 29l79 85c11.333 12.667 22 19 32 19c9.33301 0 17.166 -3.83301 23.499 -11.5s9.5 -17.167 9.5 -28.5c0 -14 -6.66699 -27 -20 -39z" />
    <glyph glyph-name="ecircumflex" unicode="&#xea;" horiz-adv-x="479" 
d="M414 303l-276.999 -40.999c4 -32.667 11.167 -60.5 21.5 -83.5s22.5 -40 36.5 -51s27.333 -18.833 40 -23.5s26 -7 40 -7c46 0 85.667 22 119 66c8.66699 12 15 19.833 19 23.5s9 5.5 15 5.5c6.66699 0 12.667 -2.83301 18 -8.5s8 -13.167 8 -22.5
c0 -6.66699 -1.66699 -16.167 -5 -28.5s-9.83301 -27.166 -19.5 -44.499s-21.5 -33.333 -35.5 -48s-33.167 -27.167 -57.5 -37.5s-51.166 -15.5 -80.499 -15.5c-67.333 0 -121.5 23.833 -162.5 71.5s-61.5 114.834 -61.5 201.501c0 47.333 6.5 89.166 19.5 125.499
s30.5 64.666 52.5 84.999s45.833 35.5 71.5 45.5s52.5 15 80.5 15c36.667 0 68.5 -7.33301 95.5 -22s47 -32.834 60 -54.501s22.5 -42 28.5 -61s9 -35.833 9 -50.5c0 -10.667 -2.33301 -19.167 -7 -25.5s-8.83398 -10 -12.501 -11s-8.83398 -2.16699 -15.501 -3.5z
M132.001 324.001l192.001 31c-2 30.667 -11.333 55.167 -28 73.5s-36.334 27.5 -59.001 27.5c-32.667 0 -57.667 -12.5 -75 -37.5s-27.333 -56.5 -30 -94.5zM212.002 615.001l-60 -41c-10.667 -6 -18.334 -9 -23.001 -9c-5.33301 0 -9.83301 2 -13.5 6s-5.5 9 -5.5 15
c0 8 7.33301 18.333 22 31c32.667 27.333 59.667 53.666 81 78.999c12 14.667 22.333 22 31 22s18 -5 28 -15c26.667 -27.333 54.667 -53 84 -77c18.667 -15.333 28.667 -24.666 30 -27.999c0.666992 -2 1 -4.66699 1 -8c0 -6 -2.16699 -11.333 -6.5 -16
s-9.16602 -7 -14.499 -7c-6 0 -12.333 2.66699 -19 8l-68 42c-14.667 7.33301 -25.667 11 -33 11c-8 0 -19.333 -4.33301 -34 -13z" />
    <glyph glyph-name="edieresis" unicode="&#xeb;" horiz-adv-x="479" 
d="M414 303l-276.999 -40.999c4 -32.667 11.167 -60.5 21.5 -83.5s22.5 -40 36.5 -51s27.333 -18.833 40 -23.5s26 -7 40 -7c46 0 85.667 22 119 66c8.66699 12 15 19.833 19 23.5s9 5.5 15 5.5c6.66699 0 12.667 -2.83301 18 -8.5s8 -13.167 8 -22.5
c0 -6.66699 -1.66699 -16.167 -5 -28.5s-9.83301 -27.166 -19.5 -44.499s-21.5 -33.333 -35.5 -48s-33.167 -27.167 -57.5 -37.5s-51.166 -15.5 -80.499 -15.5c-67.333 0 -121.5 23.833 -162.5 71.5s-61.5 114.834 -61.5 201.501c0 47.333 6.5 89.166 19.5 125.499
s30.5 64.666 52.5 84.999s45.833 35.5 71.5 45.5s52.5 15 80.5 15c36.667 0 68.5 -7.33301 95.5 -22s47 -32.834 60 -54.501s22.5 -42 28.5 -61s9 -35.833 9 -50.5c0 -10.667 -2.33301 -19.167 -7 -25.5s-8.83398 -10 -12.501 -11s-8.83398 -2.16699 -15.501 -3.5z
M132.001 324.001l192.001 31c-2 30.667 -11.333 55.167 -28 73.5s-36.334 27.5 -59.001 27.5c-32.667 0 -57.667 -12.5 -75 -37.5s-27.333 -56.5 -30 -94.5zM220.002 656.001c0.666992 -17.333 -4.83203 -32.334 -16.499 -45.001s-28.167 -19 -49.5 -19
c-19.333 0 -35 5.83301 -47 17.5s-18 26.5 -18 44.5c0 18.667 6.66699 33.667 20 45s29 17 47 17c17.333 0 32.166 -5.66699 44.499 -17s18.833 -25.666 19.5 -42.999zM408.003 656c0.666992 -17.333 -4.66699 -32.334 -16 -45.001s-27.666 -19 -48.999 -19
c-20 0 -36 5.83301 -48 17.5s-18 26.167 -18 43.5c0 18.667 6.66699 33.834 20 45.501s29 17.5 47 17.5c17.333 0 32.166 -5.5 44.499 -16.5s18.833 -25.5 19.5 -43.5z" />
    <glyph glyph-name="igrave" unicode="&#xec;" horiz-adv-x="229" 
d="M179 496l0.000976562 -474.001c0 -8 -1.33301 -13.667 -4 -17s-8.66699 -5 -18 -5h-87c-7.33301 0 -12 1.33301 -14 4s-3 8.33398 -3 17.001v476c0 8 1.16699 13.5 3.5 16.5s7.5 4.5 15.5 4.5h85c9.33301 0 15.166 -1.5 17.499 -4.5s3.83301 -8.83301 4.5 -17.5z
M47.001 707.999l79 -84.999c9.33301 -10.667 14 -20.334 14 -29.001s-2.5 -15.167 -7.5 -19.5s-10.5 -6.5 -16.5 -6.5c-7.33301 0 -15.666 4 -24.999 12l-90 68c-12.667 12.667 -19 25.667 -19 39c0 11.333 3.16699 20.833 9.5 28.5s14.166 11.5 23.499 11.5
c10 0 20.667 -6.33301 32 -19z" />
    <glyph glyph-name="iacute" unicode="&#xed;" horiz-adv-x="229" 
d="M179 496l0.000976562 -474.001c0 -8 -1.33301 -13.667 -4 -17s-8.66699 -5 -18 -5h-87c-7.33301 0 -12 1.33301 -14 4s-3 8.33398 -3 17.001v476c0 8 1.16699 13.5 3.5 16.5s7.5 4.5 15.5 4.5h85c9.33301 0 15.166 -1.5 17.499 -4.5s3.83301 -8.83301 4.5 -17.5z
M227.001 647.999l-89 -68c-9.33301 -8 -17.666 -12 -24.999 -12c-6 0 -11.5 2.16699 -16.5 6.5s-7.5 10.833 -7.5 19.5c0 10 4.66699 19.667 14 29l79 85c11.333 12.667 22 19 32 19c9.33301 0 17.166 -3.83301 23.499 -11.5s9.5 -17.167 9.5 -28.5
c0 -14 -6.66699 -27 -20 -39z" />
    <glyph glyph-name="icircumflex" unicode="&#xee;" horiz-adv-x="229" 
d="M179 496l0.000976562 -474.001c0 -8 -1.33301 -13.667 -4 -17s-8.66699 -5 -18 -5h-87c-7.33301 0 -12 1.33301 -14 4s-3 8.33398 -3 17.001v476c0 8 1.16699 13.5 3.5 16.5s7.5 4.5 15.5 4.5h85c9.33301 0 15.166 -1.5 17.499 -4.5s3.83301 -8.83301 4.5 -17.5z
M77.001 614.999l-60 -41c-10.667 -6 -18.334 -9 -23.001 -9c-5.33301 0 -9.83301 2 -13.5 6s-5.5 9 -5.5 15c0 8 7.33301 18.333 22 31c32.667 27.333 59.667 53.666 81 78.999c12 14.667 22.333 22 31 22s18 -5 28 -15c26.667 -27.333 54.667 -53 84 -77
c18.667 -15.333 28.667 -24.666 30 -27.999c0.666992 -2 1 -4.66699 1 -8c0 -6 -2.16699 -11.333 -6.5 -16s-9.16602 -7 -14.499 -7c-6 0 -12.333 2.66699 -19 8l-68 42c-14.667 7.33301 -25.667 11 -33 11c-8 0 -19.333 -4.33301 -34 -13z" />
    <glyph glyph-name="idieresis" unicode="&#xef;" horiz-adv-x="229" 
d="M179 496l0.000976562 -474.001c0 -8 -1.33301 -13.667 -4 -17s-8.66699 -5 -18 -5h-87c-7.33301 0 -12 1.33301 -14 4s-3 8.33398 -3 17.001v476c0 8 1.16699 13.5 3.5 16.5s7.5 4.5 15.5 4.5h85c9.33301 0 15.166 -1.5 17.499 -4.5s3.83301 -8.83301 4.5 -17.5z
M85.001 655.999c0.666992 -17.333 -4.83203 -32.334 -16.499 -45.001s-28.167 -19 -49.5 -19c-19.333 0 -35 5.83301 -47 17.5s-18 26.5 -18 44.5c0 18.667 6.66699 33.667 20 45s29 17 47 17c17.333 0 32.166 -5.66699 44.499 -17s18.833 -25.666 19.5 -42.999z
M273.002 655.998c0.666992 -17.333 -4.66699 -32.334 -16 -45.001s-27.666 -19 -48.999 -19c-20 0 -36 5.83301 -48 17.5s-18 26.167 -18 43.5c0 18.667 6.66699 33.834 20 45.501s29 17.5 47 17.5c17.333 0 32.166 -5.5 44.499 -16.5s18.833 -25.5 19.5 -43.5z" />
    <glyph glyph-name="eth" unicode="&#xf0;" 
d="M348 501l2.99707 -2.99512c0 5.33301 -7 23.666 -21 54.999c-11.333 24 -23.666 44.667 -36.999 62l-114 -37c-5.33301 -2.66699 -10.333 -4 -15 -4s-10.334 6.5 -17.001 19.5s-10 21.167 -10 24.5s4.33301 6.66602 13 9.99902l107 36
c-13.333 16.667 -23.333 28.334 -30 35.001c-20.667 19.333 -31 30.666 -31 33.999c0 4 1.16699 7 3.5 9s7.5 5 15.5 9l53 20c8.66699 3.33301 14.667 5 18 5c8.66699 0 21.334 -7.5 38.001 -22.5s32.334 -32.5 47.001 -52.5l60 21c6.66699 1.33301 10.334 2 11.001 2
c4 0 9.5 -7.16699 16.5 -21.5s10.5 -22.5 10.5 -24.5c0 -3.33301 -4.33301 -6.33301 -13 -9l-50 -16c68.667 -105.333 103 -223.333 103 -354c0 -37.333 -3.5 -72.833 -10.5 -106.5s-18.833 -66.834 -35.5 -99.501s-41.5 -58.834 -74.5 -78.501s-72.5 -29.5 -118.5 -29.5
c-71.333 0 -128.833 25.5 -172.5 76.5s-65.5 115.833 -65.5 194.5c0 83.333 22.667 149.666 68 198.999s97.333 74 156 74c36 0 66.667 -9.33301 92 -28zM378.997 268.005c-1.33301 51.333 -12.166 95.166 -32.499 131.499s-47.5 54.5 -81.5 54.5
c-32.667 0 -58.334 -17.167 -77.001 -51.5s-28 -78.166 -28 -131.499c0 -56 10.667 -103.833 32 -143.5s49 -59.5 83 -59.5c34.667 0 61 19.833 79 59.5s26.333 86.5 25 140.5z" />
    <glyph glyph-name="ntilde" unicode="&#xf1;" horiz-adv-x="521" 
d="M467 373l0.000976562 -352.001c0 -8.66699 -1.5 -14.334 -4.5 -17.001s-8.83301 -4 -17.5 -4h-80c-9.33301 0 -15.333 1.66699 -18 5s-4 9.33301 -4 18v338c0 14 -0.666992 25.333 -2 34s-4.33301 19 -9 31s-13.334 21.167 -26.001 27.5s-29 9.5 -49 9.5
c-53.333 0 -80 -28 -80 -84v-355c0 -10 -1.66699 -16.5 -5 -19.5s-9.66602 -4.5 -18.999 -4.5h-79c-8 0 -13.5 1.33301 -16.5 4s-4.5 8.33398 -4.5 17.001v395c0 16 0.666992 28 2 36s5.5 16.333 12.5 25s17.833 16.334 32.5 23.001c45.333 20.667 101.666 31 168.999 31
c70 0 120.667 -13 152 -39c14 -11.333 24.667 -24.833 32 -40.5s11.5 -28.667 12.5 -39s1.5 -23.5 1.5 -39.5zM263.001 603.999c-31.333 20.667 -52.999 31.001 -64.999 31.001c-17.333 0 -32.666 -8.66699 -45.999 -26c-8.66699 -13.333 -16.667 -20 -24 -20
c-14 0 -21 8.66699 -21 26c0 20.667 8.66699 41.167 26 61.5s39.666 30.5 66.999 30.5c19.333 0 41.666 -8.66699 66.999 -26c24.667 -15.333 44 -23 58 -23c17.333 0 31.333 7 42 21c1.33301 2 2.83301 4 4.5 6s3 3.66699 4 5l3 4c1 1.33301 1.83301 2.33301 2.5 3l2.5 2.5
l2 2c0.333008 0.333008 0.833008 0.666016 1.5 0.999023l2 1c0.666992 0.333008 1.5 0.5 2.5 0.5h2.5c12 0 18 -8.33301 18 -25c0 -20 -8.16699 -40.667 -24.5 -62s-38.5 -32 -66.5 -32c-22 0 -41.333 6.33301 -58 19z" />
    <glyph glyph-name="ograve" unicode="&#xf2;" 
d="M509 265c1.33301 -77.333 -19.5 -143 -62.5 -197s-101.833 -81 -176.5 -81c-72 0 -129.667 25.667 -173 77s-65 116.333 -65 195c0 79.333 22 144.5 66 195.5s102 76.5 174 76.5c51.333 0 95.5 -14.167 132.5 -42.5s63.333 -61.833 79 -100.5s24.167 -79.667 25.5 -123z
M379 271c-2.66699 58 -14.5 103.503 -35.5 136.503s-46.833 49.5 -77.5 49.5c-32.667 0 -58.334 -17.333 -77.001 -52s-28 -78.334 -28 -131.001c0 -56.667 10.833 -104.834 32.5 -144.501s48.834 -59.5 81.501 -59.5c32 0 58 19.167 78 57.5s28.667 86.166 26 143.499z
M204 708.003l79 -84.999c9.33301 -10.667 14 -20.334 14 -29.001s-2.5 -15.167 -7.5 -19.5s-10.5 -6.5 -16.5 -6.5c-7.33301 0 -15.666 4 -24.999 12l-90 68c-12.667 12.667 -19 25.667 -19 39c0 11.333 3.16699 20.833 9.5 28.5s14.166 11.5 23.499 11.5
c10 0 20.667 -6.33301 32 -19z" />
    <glyph glyph-name="oacute" unicode="&#xf3;" 
d="M509 265c1.33301 -77.333 -19.5 -143 -62.5 -197s-101.833 -81 -176.5 -81c-72 0 -129.667 25.667 -173 77s-65 116.333 -65 195c0 79.333 22 144.5 66 195.5s102 76.5 174 76.5c51.333 0 95.5 -14.167 132.5 -42.5s63.333 -61.833 79 -100.5s24.167 -79.667 25.5 -123z
M379 271c-2.66699 58 -14.5 103.503 -35.5 136.503s-46.833 49.5 -77.5 49.5c-32.667 0 -58.334 -17.333 -77.001 -52s-28 -78.334 -28 -131.001c0 -56.667 10.833 -104.834 32.5 -144.501s48.834 -59.5 81.501 -59.5c32 0 58 19.167 78 57.5s28.667 86.166 26 143.499z
M384 648.003l-89 -68c-9.33301 -8 -17.666 -12 -24.999 -12c-6 0 -11.5 2.16699 -16.5 6.5s-7.5 10.833 -7.5 19.5c0 10 4.66699 19.667 14 29l79 85c11.333 12.667 22 19 32 19c9.33301 0 17.166 -3.83301 23.499 -11.5s9.5 -17.167 9.5 -28.5c0 -14 -6.66699 -27 -20 -39z
" />
    <glyph glyph-name="ocircumflex" unicode="&#xf4;" 
d="M509 265c1.33301 -77.333 -19.5 -143 -62.5 -197s-101.833 -81 -176.5 -81c-72 0 -129.667 25.667 -173 77s-65 116.333 -65 195c0 79.333 22 144.5 66 195.5s102 76.5 174 76.5c51.333 0 95.5 -14.167 132.5 -42.5s63.333 -61.833 79 -100.5s24.167 -79.667 25.5 -123z
M379 271c-2.66699 58 -14.5 103.503 -35.5 136.503s-46.833 49.5 -77.5 49.5c-32.667 0 -58.334 -17.333 -77.001 -52s-28 -78.334 -28 -131.001c0 -56.667 10.833 -104.834 32.5 -144.501s48.834 -59.5 81.501 -59.5c32 0 58 19.167 78 57.5s28.667 86.166 26 143.499z
M234 615.003l-60 -41c-10.667 -6 -18.334 -9 -23.001 -9c-5.33301 0 -9.83301 2 -13.5 6s-5.5 9 -5.5 15c0 8 7.33301 18.333 22 31c32.667 27.333 59.667 53.666 81 78.999c12 14.667 22.333 22 31 22s18 -5 28 -15c26.667 -27.333 54.667 -53 84 -77
c18.667 -15.333 28.667 -24.666 30 -27.999c0.666992 -2 1 -4.66699 1 -8c0 -6 -2.16699 -11.333 -6.5 -16s-9.16602 -7 -14.499 -7c-6 0 -12.333 2.66699 -19 8l-68 42c-14.667 7.33301 -25.667 11 -33 11c-8 0 -19.333 -4.33301 -34 -13z" />
    <glyph glyph-name="otilde" unicode="&#xf5;" 
d="M509 265c1.33301 -77.333 -19.5 -143 -62.5 -197s-101.833 -81 -176.5 -81c-72 0 -129.667 25.667 -173 77s-65 116.333 -65 195c0 79.333 22 144.5 66 195.5s102 76.5 174 76.5c51.333 0 95.5 -14.167 132.5 -42.5s63.333 -61.833 79 -100.5s24.167 -79.667 25.5 -123z
M379 271c-2.66699 58 -14.5 103.503 -35.5 136.503s-46.833 49.5 -77.5 49.5c-32.667 0 -58.334 -17.333 -77.001 -52s-28 -78.334 -28 -131.001c0 -56.667 10.833 -104.834 32.5 -144.501s48.834 -59.5 81.501 -59.5c32 0 58 19.167 78 57.5s28.667 86.166 26 143.499z
M275 604.003c-31.333 20.667 -52.999 31.001 -64.999 31.001c-17.333 0 -32.666 -8.66699 -45.999 -26c-8.66699 -13.333 -16.667 -20 -24 -20c-14 0 -21 8.66699 -21 26c0 20.667 8.66699 41.167 26 61.5s39.666 30.5 66.999 30.5c19.333 0 41.666 -8.66699 66.999 -26
c24.667 -15.333 44 -23 58 -23c17.333 0 31.333 7 42 21c1.33301 2 2.83301 4 4.5 6s3 3.66699 4 5l3 4c1 1.33301 1.83301 2.33301 2.5 3l2.5 2.5l2 2c0.333008 0.333008 0.833008 0.666016 1.5 0.999023l2 1c0.666992 0.333008 1.5 0.5 2.5 0.5h2.5
c12 0 18 -8.33301 18 -25c0 -20 -8.16699 -40.667 -24.5 -62s-38.5 -32 -66.5 -32c-22 0 -41.333 6.33301 -58 19z" />
    <glyph glyph-name="odieresis" unicode="&#xf6;" 
d="M509 265c1.33301 -77.333 -19.5 -143 -62.5 -197s-101.833 -81 -176.5 -81c-72 0 -129.667 25.667 -173 77s-65 116.333 -65 195c0 79.333 22 144.5 66 195.5s102 76.5 174 76.5c51.333 0 95.5 -14.167 132.5 -42.5s63.333 -61.833 79 -100.5s24.167 -79.667 25.5 -123z
M379 271c-2.66699 58 -14.5 103.503 -35.5 136.503s-46.833 49.5 -77.5 49.5c-32.667 0 -58.334 -17.333 -77.001 -52s-28 -78.334 -28 -131.001c0 -56.667 10.833 -104.834 32.5 -144.501s48.834 -59.5 81.501 -59.5c32 0 58 19.167 78 57.5s28.667 86.166 26 143.499z
M211 656.003c0.666992 -17.333 -4.83203 -32.334 -16.499 -45.001s-28.167 -19 -49.5 -19c-19.333 0 -35 5.83301 -47 17.5s-18 26.5 -18 44.5c0 18.667 6.66699 33.667 20 45s29 17 47 17c17.333 0 32.166 -5.66699 44.499 -17s18.833 -25.666 19.5 -42.999z
M399.001 656.002c0.666992 -17.333 -4.66699 -32.334 -16 -45.001s-27.666 -19 -48.999 -19c-20 0 -36 5.83301 -48 17.5s-18 26.167 -18 43.5c0 18.667 6.66699 33.834 20 45.501s29 17.5 47 17.5c17.333 0 32.166 -5.5 44.499 -16.5s18.833 -25.5 19.5 -43.5z" />
    <glyph glyph-name="divide" unicode="&#xf7;" horiz-adv-x="500" 
d="M308 145c-0.666992 -16.667 -6.5 -30 -17.5 -40s-24.5 -15 -40.5 -15c-14.667 0 -27.5 5.16699 -38.5 15.5s-16.5 23.5 -16.5 39.5c0 16.667 5.5 30.334 16.5 41.001s24.167 16 39.5 16c16 0 29.5 -5.33301 40.5 -16s16.5 -24.334 16.5 -41.001zM308 435
c0 -13.333 -4.83203 -26.001 -14.499 -38.001s-23.5 -18 -41.5 -18c-16.667 0 -30.334 5.33301 -41.001 16s-16 23.667 -16 39c0 16.667 5.5 30.334 16.5 41.001s24.5 16 40.5 16c16.667 0 30.167 -5.66699 40.5 -17s15.5 -24.333 15.5 -39zM500.001 329.999v-79h-500v79
h500z" />
    <glyph glyph-name="oslash" unicode="&#xf8;" 
d="M505 538l-61.001 -83c43.333 -54 65 -120.333 65 -199c0 -76.667 -22.333 -140.667 -67 -192s-102.334 -77 -173.001 -77c-55.333 0 -103 16.667 -143 50l-57 -80c-5.33301 -5.33301 -9 -8 -11 -8c-3.33301 0 -9.16602 3.16699 -17.499 9.5s-12.5 11.166 -12.5 14.499
c0 4 2.33301 8.66699 7 14l59 80c-41.333 53.333 -62 117 -62 191c0 76.667 21.833 141.334 65.5 194.001s102.834 79 177.501 79c54 0 100 -15 138 -45l59 80c4 5.33301 7.66699 8 11 8s8.83301 -3.16699 16.5 -9.5s11.5 -11.5 11.5 -15.5c0 -3.33301 -2 -7 -6 -11z
M371.999 356l-186 -238c21.333 -37.333 50.333 -56 87 -56c35.333 0 63.833 17.5 85.5 52.5s32.5 78.167 32.5 129.5c0 24 -6.33301 61.333 -19 112zM169.999 171l186 238.001c-22.667 37.333 -51 56 -85 56c-33.333 0 -61.5 -16.333 -84.5 -49
s-34.5 -77.334 -34.5 -134.001c0 -33.333 6 -70.333 18 -111z" />
    <glyph glyph-name="ugrave" unicode="&#xf9;" horiz-adv-x="521" 
d="M469 497l-0.000976562 -373c0 -26 -2.16699 -45.833 -6.5 -59.5s-15.166 -26.5 -32.499 -38.5c-42.667 -26 -100.334 -39 -173.001 -39c-45.333 0 -82.833 5.16699 -112.5 15.5s-50.667 24.833 -63 43.5s-20.333 35.5 -24 50.5s-5.5 32.833 -5.5 53.5v349
c0 12.667 7 19 21 19h82c8 0.666992 13.667 -0.5 17 -3.5s5 -8.5 5 -16.5v-335c0 -12 0.666992 -21.833 2 -29.5s4.33301 -17.167 9 -28.5s13.5 -20 26.5 -26s29.5 -9 49.5 -9c18.667 0 34 2.33301 46 7s20.333 11.834 25 21.501s7.5 18 8.5 25s1.5 16.167 1.5 27.5v346
c0 8 1.5 13.5 4.5 16.5s8.5 4.5 16.5 4.5h79c8.66699 0 14.834 -1.33301 18.501 -4s5.5 -8.33398 5.5 -17.001zM191.999 708l79 -84.999c9.33301 -10.667 14 -20.334 14 -29.001s-2.5 -15.167 -7.5 -19.5s-10.5 -6.5 -16.5 -6.5c-7.33301 0 -15.666 4 -24.999 12l-90 68
c-12.667 12.667 -19 25.667 -19 39c0 11.333 3.16699 20.833 9.5 28.5s14.166 11.5 23.499 11.5c10 0 20.667 -6.33301 32 -19z" />
    <glyph glyph-name="uacute" unicode="&#xfa;" horiz-adv-x="521" 
d="M469 497l-0.000976562 -373c0 -26 -2.16699 -45.833 -6.5 -59.5s-15.166 -26.5 -32.499 -38.5c-42.667 -26 -100.334 -39 -173.001 -39c-45.333 0 -82.833 5.16699 -112.5 15.5s-50.667 24.833 -63 43.5s-20.333 35.5 -24 50.5s-5.5 32.833 -5.5 53.5v349
c0 12.667 7 19 21 19h82c8 0.666992 13.667 -0.5 17 -3.5s5 -8.5 5 -16.5v-335c0 -12 0.666992 -21.833 2 -29.5s4.33301 -17.167 9 -28.5s13.5 -20 26.5 -26s29.5 -9 49.5 -9c18.667 0 34 2.33301 46 7s20.333 11.834 25 21.501s7.5 18 8.5 25s1.5 16.167 1.5 27.5v346
c0 8 1.5 13.5 4.5 16.5s8.5 4.5 16.5 4.5h79c8.66699 0 14.834 -1.33301 18.501 -4s5.5 -8.33398 5.5 -17.001zM371.999 648l-89 -68c-9.33301 -8 -17.666 -12 -24.999 -12c-6 0 -11.5 2.16699 -16.5 6.5s-7.5 10.833 -7.5 19.5c0 10 4.66699 19.667 14 29l79 85
c11.333 12.667 22 19 32 19c9.33301 0 17.166 -3.83301 23.499 -11.5s9.5 -17.167 9.5 -28.5c0 -14 -6.66699 -27 -20 -39z" />
    <glyph glyph-name="ucircumflex" unicode="&#xfb;" horiz-adv-x="521" 
d="M469 497l-0.000976562 -373c0 -26 -2.16699 -45.833 -6.5 -59.5s-15.166 -26.5 -32.499 -38.5c-42.667 -26 -100.334 -39 -173.001 -39c-45.333 0 -82.833 5.16699 -112.5 15.5s-50.667 24.833 -63 43.5s-20.333 35.5 -24 50.5s-5.5 32.833 -5.5 53.5v349
c0 12.667 7 19 21 19h82c8 0.666992 13.667 -0.5 17 -3.5s5 -8.5 5 -16.5v-335c0 -12 0.666992 -21.833 2 -29.5s4.33301 -17.167 9 -28.5s13.5 -20 26.5 -26s29.5 -9 49.5 -9c18.667 0 34 2.33301 46 7s20.333 11.834 25 21.501s7.5 18 8.5 25s1.5 16.167 1.5 27.5v346
c0 8 1.5 13.5 4.5 16.5s8.5 4.5 16.5 4.5h79c8.66699 0 14.834 -1.33301 18.501 -4s5.5 -8.33398 5.5 -17.001zM221.999 615l-60 -41c-10.667 -6 -18.334 -9 -23.001 -9c-5.33301 0 -9.83301 2 -13.5 6s-5.5 9 -5.5 15c0 8 7.33301 18.333 22 31
c32.667 27.333 59.667 53.666 81 78.999c12 14.667 22.333 22 31 22s18 -5 28 -15c26.667 -27.333 54.667 -53 84 -77c18.667 -15.333 28.667 -24.666 30 -27.999c0.666992 -2 1 -4.66699 1 -8c0 -6 -2.16699 -11.333 -6.5 -16s-9.16602 -7 -14.499 -7
c-6 0 -12.333 2.66699 -19 8l-68 42c-14.667 7.33301 -25.667 11 -33 11c-8 0 -19.333 -4.33301 -34 -13z" />
    <glyph glyph-name="udieresis" unicode="&#xfc;" horiz-adv-x="521" 
d="M469 497l-0.000976562 -373c0 -26 -2.16699 -45.833 -6.5 -59.5s-15.166 -26.5 -32.499 -38.5c-42.667 -26 -100.334 -39 -173.001 -39c-45.333 0 -82.833 5.16699 -112.5 15.5s-50.667 24.833 -63 43.5s-20.333 35.5 -24 50.5s-5.5 32.833 -5.5 53.5v349
c0 12.667 7 19 21 19h82c8 0.666992 13.667 -0.5 17 -3.5s5 -8.5 5 -16.5v-335c0 -12 0.666992 -21.833 2 -29.5s4.33301 -17.167 9 -28.5s13.5 -20 26.5 -26s29.5 -9 49.5 -9c18.667 0 34 2.33301 46 7s20.333 11.834 25 21.501s7.5 18 8.5 25s1.5 16.167 1.5 27.5v346
c0 8 1.5 13.5 4.5 16.5s8.5 4.5 16.5 4.5h79c8.66699 0 14.834 -1.33301 18.501 -4s5.5 -8.33398 5.5 -17.001zM226.999 656c0.666992 -17.333 -4.83203 -32.334 -16.499 -45.001s-28.167 -19 -49.5 -19c-19.333 0 -35 5.83301 -47 17.5s-18 26.5 -18 44.5
c0 18.667 6.66699 33.667 20 45s29 17 47 17c17.333 0 32.166 -5.66699 44.499 -17s18.833 -25.666 19.5 -42.999zM415 655.999c0.666992 -17.333 -4.66699 -32.334 -16 -45.001s-27.666 -19 -48.999 -19c-20 0 -36 5.83301 -48 17.5s-18 26.167 -18 43.5
c0 18.667 6.66699 33.834 20 45.501s29 17.5 47 17.5c17.333 0 32.166 -5.5 44.499 -16.5s18.833 -25.5 19.5 -43.5z" />
    <glyph glyph-name="yacute" unicode="&#xfd;" horiz-adv-x="479" 
d="M474 485l-200.001 -554.001c-6.66699 -17.333 -12.334 -31.5 -17.001 -42.5s-12.5 -25.667 -23.5 -44s-22.667 -33 -35 -44s-28.166 -20.833 -47.499 -29.5s-40.666 -13 -63.999 -13c-29.333 0 -51.333 6 -66 18s-22 26.667 -22 44c0 15.333 5.16699 28.166 15.5 38.499
s23.166 15.5 38.499 15.5c4.66699 0 14.5 -1.83301 29.5 -5.5s25.167 -5.5 30.5 -5.5c19.333 0 35.5 8.83301 48.5 26.5s26.833 48.834 41.5 93.501l-193 503c-3.33301 9.33301 -5 15.333 -5 18c0 9.33301 6.33301 14 19 14h92c6.66699 0 11.334 -0.666992 14.001 -2
s4.66699 -3 6 -5s3.33301 -7 6 -15l118 -346l111 346c3.33301 9.33301 6.5 15.333 9.5 18s9.16699 4 18.5 4h60c13.333 0 20 -4.66699 20 -14c0 -3.33301 -1.66699 -9.66602 -5 -18.999zM350.999 647.999l-89 -68c-9.33301 -8 -17.666 -12 -24.999 -12
c-6 0 -11.5 2.16699 -16.5 6.5s-7.5 10.833 -7.5 19.5c0 10 4.66699 19.667 14 29l79 85c11.333 12.667 22 19 32 19c9.33301 0 17.166 -3.83301 23.499 -11.5s9.5 -17.167 9.5 -28.5c0 -14 -6.66699 -27 -20 -39z" />
    <glyph glyph-name="thorn" unicode="&#xfe;" horiz-adv-x="521" 
d="M157 -235l-77.999 -0.00195312c-9.33301 0 -15.833 1.33301 -19.5 4s-5.5 8.33398 -5.5 17.001v958c0 8.66699 1.33301 14.334 4 17.001s8 4.33398 16 5.00098h79c9.33301 0 15.666 -1.33301 18.999 -4s5 -8.66699 5 -18v-235c30.667 16 65 24 103 24
c66 0 117.333 -23.833 154 -71.5s55 -107.5 55 -179.5c0 -76.667 -19.5 -144.834 -58.5 -204.501s-93.167 -89.5 -162.5 -89.5c-34 0 -64.333 8.66699 -91 26v-228c0 -8 -1.5 -13.5 -4.5 -16.5s-8.16699 -4.5 -15.5 -4.5zM177.001 387.998v-297.002
c25.333 -15.333 49 -23 71 -23c36 0 64 18.333 84 55s30 83.334 30 140.001c0 22 -1.83301 43.667 -5.5 65s-9.66699 42.333 -18 63s-20.5 37.334 -36.5 50.001s-35 19 -57 19c-16 0 -29 -2.16699 -39 -6.5s-16.833 -10.833 -20.5 -19.5s-6 -16 -7 -22s-1.5 -14 -1.5 -24z
" />
    <glyph glyph-name="ydieresis" unicode="&#xff;" horiz-adv-x="479" 
d="M474 485l-200.001 -554.001c-6.66699 -17.333 -12.334 -31.5 -17.001 -42.5s-12.5 -25.667 -23.5 -44s-22.667 -33 -35 -44s-28.166 -20.833 -47.499 -29.5s-40.666 -13 -63.999 -13c-29.333 0 -51.333 6 -66 18s-22 26.667 -22 44c0 15.333 5.16699 28.166 15.5 38.499
s23.166 15.5 38.499 15.5c4.66699 0 14.5 -1.83301 29.5 -5.5s25.167 -5.5 30.5 -5.5c19.333 0 35.5 8.83301 48.5 26.5s26.833 48.834 41.5 93.501l-193 503c-3.33301 9.33301 -5 15.333 -5 18c0 9.33301 6.33301 14 19 14h92c6.66699 0 11.334 -0.666992 14.001 -2
s4.66699 -3 6 -5s3.33301 -7 6 -15l118 -346l111 346c3.33301 9.33301 6.5 15.333 9.5 18s9.16699 4 18.5 4h60c13.333 0 20 -4.66699 20 -14c0 -3.33301 -1.66699 -9.66602 -5 -18.999zM219.999 655.999c0.666992 -17.333 -4.83203 -32.334 -16.499 -45.001
s-28.167 -19 -49.5 -19c-19.333 0 -35 5.83301 -47 17.5s-18 26.5 -18 44.5c0 18.667 6.66699 33.667 20 45s29 17 47 17c17.333 0 32.166 -5.66699 44.499 -17s18.833 -25.666 19.5 -42.999zM408 655.998c0.666992 -17.333 -4.66699 -32.334 -16 -45.001
s-27.666 -19 -48.999 -19c-20 0 -36 5.83301 -48 17.5s-18 26.167 -18 43.5c0 18.667 6.66699 33.834 20 45.501s29 17.5 47 17.5c17.333 0 32.166 -5.5 44.499 -16.5s18.833 -25.5 19.5 -43.5z" />
    <glyph glyph-name="dotlessi" unicode="&#x131;" horiz-adv-x="229" 
d="M179 496l0.000976562 -474.001c0 -8 -1.33301 -13.667 -4 -17s-8.66699 -5 -18 -5h-87c-7.33301 0 -12 1.33301 -14 4s-3 8.33398 -3 17.001v476c0 8 1.16699 13.5 3.5 16.5s7.5 4.5 15.5 4.5h85c9.33301 0 15.166 -1.5 17.499 -4.5s3.83301 -8.83301 4.5 -17.5z" />
    <glyph glyph-name="Lslash" unicode="&#x141;" horiz-adv-x="458" 
d="M317 442l-123.998 -79v-271h229c8.66699 0 14.167 -1.33301 16.5 -4s3.5 -8 3.5 -16v-52c-0.666992 -8.66699 -2.33398 -14.167 -5.00098 -16.5s-8.33398 -3.5 -17.001 -3.5h-342c-7.33301 0 -12.5 1.16699 -15.5 3.5s-4.5 7.83301 -4.5 16.5v256l-38 -24
c-4 -2.66699 -7.33301 -4 -10 -4c-6.66699 0 -10 5.33301 -10 16v49c0 10 5 18.333 15 25l43 28v320c0 8 1.5 13.333 4.5 16s8.5 4 16.5 4h93c8 0 13.5 -1.33301 16.5 -4s4.5 -8 4.5 -16v-233l115 75c8 4 12.667 6 14 6c6 0 9 -5.33301 9 -16v-54
c0 -8.66699 -4.66699 -16 -14 -22z" />
    <glyph glyph-name="lslash" unicode="&#x142;" horiz-adv-x="229" 
d="M216 476l-40.001 -36.001v-419c0 -8.66699 -1.5 -14.334 -4.5 -17.001s-8.83301 -4 -17.5 -4h-79c-9.33301 0 -15.5 1.16699 -18.5 3.5s-4.5 8.16602 -4.5 17.499v307l-27 -24c-4 -4 -8 -6 -12 -6c-8.66699 0 -13 6.66699 -13 20v41
c0.666992 6.66699 5.33398 14.334 14.001 23.001l38 34v330c0 6 1 10.333 3 13s4.33301 4.33398 7 5.00098s7 1 13 1h79c9.33301 0 15.333 -1 18 -3s4 -7.33301 4 -16v-218c20.667 18.667 32 28.334 34 29.001c12.667 7.33301 19 2 19 -16
c0 -24.667 -0.666992 -40.167 -2 -46.5s-5 -12.5 -11 -18.5z" />
    <glyph glyph-name="OE" unicode="&#x152;" horiz-adv-x="917" 
d="M871 0h-356.002c-12.667 -0 -19.667 3.33301 -21 10c-0.666992 2 -1 16 -1 42c-43.333 -45.333 -99.333 -68 -168 -68c-86.667 0 -156.5 34 -209.5 102s-79.5 156.667 -79.5 266c0 118 27.5 209.333 82.5 274s125.833 97 212.5 97c64.667 0 118.667 -22.667 162 -68
c0 29.333 1.66699 45.333 5 48c2.66699 2 8 3 16 3h357c8.66699 0 14.167 -1.33301 16.5 -4s3.5 -7.66699 3.5 -15v-49c0 -6 -0.166992 -10.167 -0.5 -12.5s-2 -4.5 -5 -6.5s-7.5 -3 -13.5 -3h-250v-204h213c8.66699 0 14.334 -1 17.001 -3s4.33398 -7 5.00098 -15v-50
c0 -8.66699 -1.33301 -14.167 -4 -16.5s-8.66699 -3.5 -18 -3.5h-213v-232h249c6 0 10.5 -0.833008 13.5 -2.5s4.83301 -3.66699 5.5 -6s1 -6.5 1 -12.5v-52c0 -12.667 -6.66699 -19 -20 -19zM492.998 259l-0.000976562 180.998c0 37.333 -4.83301 69.833 -14.5 97.5
s-20.667 47.834 -33 60.501s-26.666 22.667 -42.999 30s-28 11.5 -35 12.5s-13.5 1.5 -19.5 1.5c-47.333 0 -88 -24 -122 -72s-51 -116 -51 -204c0 -37.333 3.33301 -73.666 10 -108.999c10.667 -53.333 30 -97.166 58 -131.499s64.333 -51.5 109 -51.5
c42.667 0 79 20.333 109 61c21.333 31.333 32 72.666 32 123.999z" />
    <glyph glyph-name="oe" unicode="&#x153;" horiz-adv-x="792" 
d="M729 298l-263.001 -37.0029c8 -54 20.667 -93 38 -117c23.333 -31.333 53.666 -47 90.999 -47c42.667 0 79.667 22.667 111 68l11 16.5c2 3 5 5.83301 9 8.5s8.66699 4 14 4c16.667 0 25 -11.667 25 -35c0 -10 -1.83301 -21.667 -5.5 -35s-10 -28.166 -19 -44.499
s-20.167 -31.333 -33.5 -45s-30.666 -25 -51.999 -34s-44.666 -13.5 -69.999 -13.5c-43.333 0 -81.333 13 -114 39c-20 16.667 -37 38.334 -51 65.001c-6.66699 -12.667 -13 -23.167 -19 -31.5s-15.333 -19 -28 -32s-29 -23 -49 -30s-42.667 -10.5 -68 -10.5
c-68.667 0 -123.167 24.833 -163.5 74.5s-60.5 116.167 -60.5 199.5c0 77.333 19.667 141.833 59 193.5s94.333 77.5 165 77.5c25.333 0 47.833 -3.33301 67.5 -10s36 -16.5 49 -29.5s22.5 -23.667 28.5 -32s12.667 -19.166 20 -32.499c32.667 68.667 86 103 160 103
c33.333 0 62.833 -6.83301 88.5 -20.5s45 -31 58 -52s22.667 -41.667 29 -62s9.5 -39.5 9.5 -57.5c0 -10.667 -2 -19 -6 -25s-8.16699 -9.83301 -12.5 -11.5s-10.5 -3.16699 -18.5 -4.5zM463.999 320.997l187.001 27c-2 24.667 -6.83301 45.167 -14.5 61.5
s-16.834 27.5 -27.501 33.5s-19.167 9.83301 -25.5 11.5s-12.833 2.5 -19.5 2.5c-30 0 -54.667 -14.333 -74 -43c-13.333 -20 -22 -51 -26 -93zM357 277.997c-4 54.667 -15.665 99.666 -34.998 134.999c-18 31.333 -41.333 47 -70 47c-18.667 0 -34.834 -6.5 -48.501 -19.5
s-23.834 -29.667 -30.501 -50s-11.667 -40.666 -15 -60.999s-5 -40.166 -5 -59.499c0 -54.667 9.83301 -101.834 29.5 -141.501s46.5 -59.5 80.5 -59.5c34.667 0 59.167 17 73.5 51s21.5 75.667 21.5 125c0 14.667 -0.333008 25.667 -1 33z" />
    <glyph glyph-name="Scaron" unicode="&#x160;" 
d="M292 430l46.9951 -23.002c18 -9.33301 32 -16.833 42 -22.5s23.833 -15.5 41.5 -29.5s31.167 -27.667 40.5 -41s18 -31 26 -53s12 -45.667 12 -71c0 -63.333 -21.667 -113.5 -65 -150.5s-98.666 -55.5 -165.999 -55.5c-72.667 0 -129 18.167 -169 54.5
s-60 72.833 -60 109.5c0 20 6.16699 35.167 18.5 45.5s25.833 15.5 40.5 15.5c12.667 0 23.834 -3.5 33.501 -10.5s16.5 -13.5 20.5 -19.5s9.66699 -15.333 17 -28c26 -54 62 -81 108 -81c27.333 0 49.833 8.66699 67.5 26s26.5 40 26.5 68c0 17.333 -2.66699 32.333 -8 45
s-15.166 24.834 -29.499 36.501s-27.166 21 -38.499 28s-30 17.167 -56 30.5l-55 28c-15.333 8.66699 -28.166 16.5 -38.499 23.5s-24.333 18.667 -42 35s-31.334 36.166 -41.001 59.499s-14.5 49 -14.5 77c0 59.333 19.833 106.666 59.5 141.999s91.167 53 154.5 53
c61.333 0 111.833 -14.167 151.5 -42.5s59.5 -58.5 59.5 -90.5c0 -16.667 -5.5 -30.5 -16.5 -41.5s-24.5 -16.5 -40.5 -16.5c-10.667 0 -20.167 2.5 -28.5 7.5s-14.333 9.83301 -18 14.5s-8.5 12 -14.5 22c-8 12.667 -15 22.834 -21 30.501s-16 15.834 -30 24.501
s-29.333 13 -46 13c-25.333 0 -46.166 -8.5 -62.499 -25.5s-24.5 -38.167 -24.5 -63.5c0 -15.333 2.66699 -29.166 8 -41.499s14.333 -23.5 27 -33.5s24.5 -18 35.5 -24s27.167 -14.333 48.5 -25zM299.995 864.998l75.001 47.001c7.33301 6 14 9 20 9
c4.66699 0 9 -2.33301 13 -7s6 -10 6 -16c0 -6.66699 -1.33301 -11.834 -4 -15.501s-9 -10.167 -19 -19.5c-39.333 -35.333 -67.333 -62.333 -84 -81c-14.667 -16.667 -27 -25 -37 -25s-21.333 7.33301 -34 22c-22.667 24.667 -50.667 49.667 -84 75
c-19.333 15.333 -29 28.333 -29 39c0 7.33301 2 13.5 6 18.5s8.33301 7.5 13 7.5s11 -2.66699 19 -8l76 -47c11.333 -8.66699 21.666 -13 30.999 -13c7.33301 0 18 4.66699 32 14z" />
    <glyph glyph-name="scaron" unicode="&#x161;" horiz-adv-x="437" 
d="M233 321l49.998 -23c16 -7.33301 29 -14.166 39 -20.499s22 -15.666 36 -27.999s24.667 -27.333 32 -45s11 -37.834 11 -60.501c0 -16 -2.5 -32.167 -7.5 -48.5s-13.667 -33.166 -26 -50.499s-31 -31.333 -56 -42s-55.167 -16 -90.5 -16
c-61.333 0 -107.666 13.5 -138.999 40.5s-47 53.833 -47 80.5c0 15.333 4.83301 28.166 14.5 38.499s21.834 15.5 36.501 15.5c8.66699 0 16.834 -2.16699 24.501 -6.5s13.167 -8.66602 16.5 -12.999l15 -19.5c10.667 -14.667 18.667 -25.334 24 -32.001
s13.166 -13 23.499 -19s21.833 -9 34.5 -9c18 0 33 5.83301 45 17.5s18 26.5 18 44.5c0 22 -10.667 42.667 -32 62c-8.66699 6 -42 23 -100 51c-73.333 34 -110 82.667 -110 146c0 40 14.333 74.5 43 103.5s72.334 43.5 131.001 43.5c54.667 0 96 -11.667 124 -35
s42 -47.333 42 -72c0 -14 -4.5 -25.667 -13.5 -35s-20.5 -14 -34.5 -14s-24.833 3.5 -32.5 10.5s-15.167 17.167 -22.5 30.5c-17.333 32.667 -40 49 -68 49c-18.667 0 -33.334 -6.33301 -44.001 -19s-16 -26.334 -16 -41.001c0 -15.333 4.66699 -29 14 -41
s18.5 -20.5 27.5 -25.5s21.5 -10.833 37.5 -17.5zM249.998 668l61 41c10.667 6 18.334 9 23.001 9c5.33301 0 9.83301 -2 13.5 -6s5.5 -9 5.5 -15c0 -8 -7.33301 -18.333 -22 -31c-33.333 -28 -60.333 -54.333 -81 -79c-12 -14.667 -22.667 -22 -32 -22c-8 0 -17 5 -27 15
c-30 30.667 -58 56.334 -84 77.001c-14.667 11.333 -23.5 18.666 -26.5 21.999s-4.5 8 -4.5 14s2.16699 11.333 6.5 16s9.16602 7 14.499 7c6 0 12.333 -2.66699 19 -8l68 -42c13.333 -7.33301 24.333 -11 33 -11c10.667 0 21.667 4.33301 33 13z" />
    <glyph glyph-name="Ydieresis" unicode="&#x178;" 
d="M533 675l-195 -361v-295c0 -8.66699 -1.66699 -14 -5 -16s-9 -3 -17 -3h-97c-8 -0 -13.333 1.33301 -16 4s-4 7.66699 -4 15v300l-191 356c-5.33301 8.66699 -8 14.667 -8 18c0 8.66699 6 13 18 13h107c8.66699 0 14.5 -1 17.5 -3s6.16699 -6.66699 9.5 -14l135 -258
l138 256c4.66699 8 8.5 13.167 11.5 15.5s8.5 3.5 16.5 3.5h69c12.667 0 19 -4 19 -12c0 -4 -2.66699 -10.333 -8 -19zM250 834c0.666992 -16.667 -4.83301 -32 -16.5 -46s-29.167 -21 -52.5 -21c-19.333 0 -35.833 5.5 -49.5 16.5s-20.5 26.5 -20.5 46.5
s6.83301 35.833 20.5 47.5s30.5 17.5 50.5 17.5c18.667 0 34.5 -5.33301 47.5 -16s19.833 -25.667 20.5 -45zM447 834c0.666992 -16.667 -4.83301 -31.999 -16.5 -45.999s-29.167 -21 -52.5 -21c-19.333 0 -35.833 5.66699 -49.5 17s-20.5 26.666 -20.5 45.999
c0 20 6.83301 35.833 20.5 47.5s30.5 17.5 50.5 17.5c18 0 33.667 -5.33301 47 -16s20.333 -25.667 21 -45z" />
    <glyph glyph-name="Zcaron" unicode="&#x17d;" horiz-adv-x="500" 
d="M474 675l-278.002 -584.002h257c4.66699 0 7.83398 -0.166992 9.50098 -0.5s3.66699 -0.833008 6 -1.5s3.83301 -2.16699 4.5 -4.5s1 -5.5 1 -9.5v-59c0 -5.33301 -1 -9.16602 -3 -11.499s-4.16699 -3.66602 -6.5 -3.99902s-6.16602 -0.5 -11.499 -0.5h-408
c-17.333 0 -26 4 -26 12c0 2 2.33301 8 7 18l279 587h-241c-8 0 -13.167 1.33301 -15.5 4s-3.5 8 -3.5 16v50c0 7.33301 1.33301 12.333 4 15s8 4 16 4h394c12.667 0 19 -4.66699 19 -14c0 -3.33301 -1.33301 -9 -4 -17zM288.998 864.998l75.001 47.001c7.33301 6 14 9 20 9
c4.66699 0 9 -2.33301 13 -7s6 -10 6 -16c0 -6.66699 -1.33301 -11.834 -4 -15.501s-9 -10.167 -19 -19.5c-39.333 -35.333 -67.333 -62.333 -84 -81c-14.667 -16.667 -27 -25 -37 -25s-21.333 7.33301 -34 22c-22.667 24.667 -50.667 49.667 -84 75
c-19.333 15.333 -29 28.333 -29 39c0 7.33301 2 13.5 6 18.5s8.33301 7.5 13 7.5s11 -2.66699 19 -8l76 -47c11.333 -8.66699 21.666 -13 30.999 -13c7.33301 0 18 4.66699 32 14z" />
    <glyph glyph-name="zcaron" unicode="&#x17e;" horiz-adv-x="417" 
d="M382 486l-200.001 -415h186c13.333 0 20 -5.33301 20 -16c0 -28.667 -0.333008 -44 -1 -46c-1.33301 -6 -7.66602 -9 -18.999 -9h-325c-12 0 -18 4 -18 12c0 2.66699 2.33301 9.33398 7 20.001l203 415h-173c-7.33301 0 -12.333 1 -15 3s-4 6.33301 -4 13
c0 27.333 0.333008 41.666 1 42.999c0.666992 8 6.66699 12 18 12h304c14.667 0 22 -4.66699 22 -14c0 -4 -2 -10 -6 -18zM249.999 668l61 41c10.667 6 18.334 9 23.001 9c5.33301 0 9.83301 -2 13.5 -6s5.5 -9 5.5 -15c0 -8 -7.33301 -18.333 -22 -31
c-33.333 -28 -60.333 -54.333 -81 -79c-12 -14.667 -22.667 -22 -32 -22c-8 0 -17 5 -27 15c-30 30.667 -58 56.334 -84 77.001c-14.667 11.333 -23.5 18.666 -26.5 21.999s-4.5 8 -4.5 14s2.16699 11.333 6.5 16s9.16602 7 14.499 7c6 0 12.333 -2.66699 19 -8l68 -42
c13.333 -7.33301 24.333 -11 33 -11c10.667 0 21.667 4.33301 33 13z" />
    <glyph glyph-name="florin" unicode="&#x192;" horiz-adv-x="313" 
d="M289 405l-74.999 0.00292969l-28 -260c-11.333 -96.667 -32.333 -171 -63 -223c-22 -36.667 -48.667 -65.334 -80 -86.001s-61.333 -31 -90 -31c-19.333 0 -35.833 4.66699 -49.5 14s-20.5 22.666 -20.5 39.999c0 14 5 25.5 15 34.5s22 13.5 36 13.5c8 0 15.333 -2 22 -6
c16 -7.33301 27.333 -11 34 -11c10.667 0 19.667 3 27 9s12 11.5 14 16.5s4 11.167 6 18.5c3.33301 10.667 10.333 61 21 151l33 320h-55c-4.66699 0 -8 0.166992 -10 0.5s-3.83301 1.33301 -5.5 3s-2.5 4.5 -2.5 8.5c0 14 1.16699 24.333 3.5 31s5 10.5 8 11.5
s7.5 1.5 13.5 1.5h53c12 72.667 29.667 127.667 53 165c15.333 24 35.666 45.167 60.999 63.5s54 27.5 86 27.5c16 0 29.167 -3.83301 39.5 -11.5s15.5 -18.834 15.5 -33.501c0 -16 -5.16699 -28.5 -15.5 -37.5s-21.833 -13.5 -34.5 -13.5
c-3.33301 0 -9.33301 0.666992 -18 2s-14.667 2 -18 2c-17.333 0 -31.833 -7.33301 -43.5 -22s-17.5 -37.667 -17.5 -69c0 -32 4.66699 -56.333 14 -73h77c12 0 18 -4 18 -12c0 -10 -1.33301 -21.667 -4 -35c-2 -6 -8.66699 -9 -20 -9z" />
    <glyph glyph-name="circumflex" unicode="&#x2c6;" horiz-adv-x="271" 
d="M99 615l-60 -41c-10.667 -6 -18.334 -9 -23.001 -9c-5.33301 0 -9.83301 2 -13.5 6s-5.5 9 -5.5 15c0 8 7.33301 18.333 22 31c32.667 27.333 59.667 53.666 81 78.999c12 14.667 22.333 22 31 22s18 -5 28 -15c26.667 -27.333 54.667 -53 84 -77
c18.667 -15.333 28.667 -24.666 30 -27.999c0.666992 -2 1 -4.66699 1 -8c0 -6 -2.16699 -11.333 -6.5 -16s-9.16602 -7 -14.499 -7c-6 0 -12.333 2.66699 -19 8l-68 42c-14.667 7.33301 -25.667 11 -33 11c-8 0 -19.333 -4.33301 -34 -13z" />
    <glyph glyph-name="caron" unicode="&#x2c7;" horiz-adv-x="271" 
d="M171 668l61 41c10.667 6 18.334 9 23.001 9c5.33301 0 9.83301 -2 13.5 -6s5.5 -9 5.5 -15c0 -8 -7.33301 -18.333 -22 -31c-33.333 -28 -60.333 -54.333 -81 -79c-12 -14.667 -22.667 -22 -32 -22c-8 0 -17 5 -27 15c-30 30.667 -58 56.334 -84 77.001
c-14.667 11.333 -23.5 18.666 -26.5 21.999s-4.5 8 -4.5 14s2.16699 11.333 6.5 16s9.16602 7 14.499 7c6 0 12.333 -2.66699 19 -8l68 -42c13.333 -7.33301 24.333 -11 33 -11c10.667 0 21.667 4.33301 33 13z" />
    <glyph glyph-name="breve" unicode="&#x2d8;" horiz-adv-x="271" 
d="M58 701c4 -10.667 7.16699 -18.5 9.5 -23.5s6.5 -11.167 12.5 -18.5s13.667 -12.666 23 -15.999s21 -5 35 -5c36 0 60 16.667 72 50c2 7.33301 3.5 12.5 4.5 15.5s2.5 6.16699 4.5 9.5s4 5.33301 6 6s5 1 9 1c15.333 0 23 -10.333 23 -31c0 -32.667 -11 -61 -33 -85
s-51 -36 -87 -36c-37.333 0 -67.333 12.167 -90 36.5s-34 53.166 -34 86.499c0 19.333 8 29 24 29c8.66699 0 15.667 -6.33301 21 -19z" />
    <glyph glyph-name="dotaccent" unicode="&#x2d9;" horiz-adv-x="271" 
d="M201 656c0.666992 -17.333 -4.83301 -32.333 -16.5 -45s-28.167 -19 -49.5 -19c-20 0 -35.833 6 -47.5 18s-17.5 26.667 -17.5 44c0 18.667 6.5 33.667 19.5 45s28.5 17 46.5 17s33.167 -5.5 45.5 -16.5s18.833 -25.5 19.5 -43.5z" />
    <glyph glyph-name="ring" unicode="&#x2da;" horiz-adv-x="271" 
d="M219 651c0 -24.667 -7.83398 -44.833 -23.501 -60.5s-35.5 -23.5 -59.5 -23.5c-23.333 0 -43.166 8 -59.499 24s-24.5 36 -24.5 60c0 23.333 8 43 24 59s36 24 60 24c22.667 0 42.167 -7.5 58.5 -22.5s24.5 -35.167 24.5 -60.5zM174.999 653.001
c-0.666992 11.333 -4.66797 20.333 -12.001 27s-16.333 10 -27 10c-11.333 0 -20.666 -3.83301 -27.999 -11.5s-11 -16.834 -11 -27.501c0 -11.333 3.83301 -20.666 11.5 -27.999s16.834 -11 27.501 -11c10 0 19.167 3.83301 27.5 11.5s12.166 17.5 11.499 29.5z" />
    <glyph glyph-name="ogonek" unicode="&#x2db;" horiz-adv-x="271" 
d="M164 19l58.002 9.99707c-10.667 -9.33301 -18.334 -16.666 -23.001 -21.999c-30 -28 -51.167 -50.5 -63.5 -67.5s-18.5 -32.833 -18.5 -47.5c0 -12 3.5 -22.833 10.5 -32.5s18.5 -14.5 34.5 -14.5c2 0 9.66699 1.33301 23 4s21.333 4 24 4c5.33301 0 10 -1.83301 14 -5.5
s6 -8.16699 6 -13.5c0 -12 -9.66699 -22.167 -29 -30.5s-40.333 -12.5 -63 -12.5c-30 0 -53.333 8.5 -70 25.5s-25 36.833 -25 59.5c0 16.667 3.16699 31.834 9.5 45.501s16.666 26.834 30.999 39.501s26.5 22.5 36.5 29.5s25 16.5 45 28.5z" />
    <glyph glyph-name="tilde" unicode="&#x2dc;" horiz-adv-x="271" 
d="M139 604c-31.333 20.667 -52.999 31.001 -64.999 31.001c-17.333 0 -32.666 -8.66699 -45.999 -26c-8.66699 -13.333 -16.667 -20 -24 -20c-14 0 -21 8.66699 -21 26c0 20.667 8.66699 41.167 26 61.5s39.666 30.5 66.999 30.5c19.333 0 41.666 -8.66699 66.999 -26
c24.667 -15.333 44 -23 58 -23c17.333 0 31.333 7 42 21c1.33301 2 2.83301 4 4.5 6s3 3.66699 4 5l3 4c1 1.33301 1.83301 2.33301 2.5 3l2.5 2.5l2 2c0.333008 0.333008 0.833008 0.666016 1.5 0.999023l2 1c0.666992 0.333008 1.5 0.5 2.5 0.5h2.5
c12 0 18 -8.33301 18 -25c0 -20 -8.16699 -40.667 -24.5 -62s-38.5 -32 -66.5 -32c-22 0 -41.333 6.33301 -58 19z" />
    <glyph glyph-name="hungarumlaut" unicode="&#x2dd;" horiz-adv-x="271" 
d="M239 662l-67 -83c-8 -8 -15.333 -12 -22 -12c-6 0 -11 1.83301 -15 5.5s-6 8.16699 -6 13.5c0 4.66699 2.66699 12 8 22l50 89c11.333 19.333 23.333 29 36 29c8.66699 0 16 -3 22 -9s9 -13.333 9 -22c0 -9.33301 -5 -20.333 -15 -33zM125 662l-67 -83
c-6.66699 -8 -14 -12 -22 -12c-6 0 -10.833 1.83301 -14.5 5.5s-5.5 8.16699 -5.5 13.5c0 4.66699 2.66699 12 8 22l49 89c11.333 19.333 23.333 29 36 29c8.66699 0 16 -3 22 -9s9 -13.333 9 -22c0 -9.33301 -5 -20.333 -15 -33z" />
    <glyph glyph-name="endash" unicode="&#x2013;" horiz-adv-x="562" 
d="M69 324l401.999 -0.000976562c12.667 0 20 -3.66699 22 -11c0.666992 -2 1 -17 1 -45c0 -8 -1.66699 -13 -5 -15s-9.33301 -3 -18 -3h-400c-12.667 0 -20 3.66699 -22 11c-0.666992 2.66699 -1 17.334 -1 44.001c0.666992 7.33301 2.33398 12.333 5.00098 15s8 4 16 4z
" />
    <glyph glyph-name="emdash" unicode="&#x2014;" horiz-adv-x="708" 
d="M78 324h553c6.66699 0 11.5 -1 14.5 -3s4.5 -6.66699 4.5 -14c0 -18.667 -0.833008 -30 -2.5 -34s-7.5 -6 -17.5 -6h-552c-10 0 -15.833 2 -17.5 6s-2.5 15.667 -2.5 35c0 10.667 6.66699 16 20 16z" />
    <glyph glyph-name="quoteleft" unicode="&#x2018;" horiz-adv-x="250" 
d="M181 697c-24.667 -30 -37 -53.667 -37 -71c0 -11.333 5.33301 -24 16 -38c18.667 -22 28 -40.333 28 -55c0 -16 -5.66699 -29.167 -17 -39.5s-25.333 -15.5 -42 -15.5c-20 0 -37.333 7.83301 -52 23.5s-22 38.167 -22 67.5c0 42 14.167 81.333 42.5 118
s51.833 55 70.5 55c6.66699 0 12.167 -2.33301 16.5 -7s6.5 -10 6.5 -16s-3.33301 -13.333 -10 -22z" />
    <glyph glyph-name="quoteright" unicode="&#x2019;" horiz-adv-x="250" 
d="M69 522c24.667 30 36.999 53.668 36.999 71.001c0 12 -5.33301 24.667 -16 38c-18.667 22 -28 40.333 -28 55c0 16 5.66699 29.333 17 40s25.333 16 42 16c20.667 0 38.167 -7.83301 52.5 -23.5s21.5 -38.167 21.5 -67.5c0 -42.667 -14.167 -82.167 -42.5 -118.5
s-52.166 -54.5 -71.499 -54.5c-6.66699 0 -12 2.16699 -16 6.5s-6 9.5 -6 15.5c0 7.33301 3.33301 14.666 10 21.999z" />
    <glyph glyph-name="quotesinglbase" unicode="&#x201a;" horiz-adv-x="250" 
d="M69 -76c24.667 30 37.001 53.668 37.001 71.001c0 12 -5.33301 24.667 -16 38c-18.667 22 -28 40.333 -28 55c0 15.333 5.66699 28.333 17 39s25.333 16 42 16c20.667 0 38.167 -7.66699 52.5 -23s21.5 -38 21.5 -68c0 -42 -14.333 -81.333 -43 -118
s-52.334 -55 -71.001 -55c-6 0 -11.167 2.33301 -15.5 7s-6.5 10 -6.5 16c0 7.33301 3.33301 14.666 10 21.999z" />
    <glyph glyph-name="quotedblleft" unicode="&#x201c;" horiz-adv-x="417" 
d="M348 697c-24.667 -31.333 -37 -55.001 -37 -71.001c0 -11.333 5.33301 -24 16 -38c18.667 -20.667 28 -39 28 -55s-5.66699 -29.167 -17 -39.5s-25.333 -15.5 -42 -15.5c-20 0 -37.167 7.66699 -51.5 23s-21.5 38 -21.5 68c0 42.667 14.167 82.167 42.5 118.5
s51.833 54.5 70.5 54.5c6.66699 0 12.167 -2.33301 16.5 -7s6.5 -10 6.5 -16c0 -5.33301 -3.66699 -12.666 -11 -21.999zM180 696.999c-24.667 -30.667 -37 -54.334 -37 -71.001c0 -11.333 5.33301 -24 16 -38c19.333 -21.333 29 -39.666 29 -54.999
s-5.66699 -28.333 -17 -39s-25.333 -16 -42 -16c-20.667 0 -38.167 7.66699 -52.5 23s-21.5 38 -21.5 68c0 42.667 14.167 82.167 42.5 118.5s51.833 54.5 70.5 54.5c6.66699 0 12.167 -2.33301 16.5 -7s6.5 -10 6.5 -16c0 -6.66699 -3.66699 -14 -11 -22z" />
    <glyph glyph-name="quotedblright" unicode="&#x201d;" horiz-adv-x="417" 
d="M69 522c24 31.333 36 54.998 36 70.998c0 12.667 -5 25.334 -15 38.001l-16.5 19.5c-3 3.66699 -5.83301 8.83398 -8.5 15.501s-4 13.334 -4 20.001c0 16 5.83301 29.333 17.5 40s25.5 16 41.5 16c20 0 37.333 -7.83301 52 -23.5s22 -38.5 22 -68.5
c0 -42.667 -14.167 -82 -42.5 -118s-51.833 -54 -70.5 -54c-6.66699 0 -12.167 2.16699 -16.5 6.5s-6.5 9.5 -6.5 15.5c0 5.33301 3.66699 12.666 11 21.999zM237 521.998c24 31.333 36 54.998 36 70.998c0 10 -5 22.667 -15 38l-16.5 19.5
c-3 3.66699 -5.83301 8.83398 -8.5 15.501s-4 13.334 -4 20.001c0 16 5.83301 29.333 17.5 40s25.5 16 41.5 16c20 0 37.333 -7.66699 52 -23s22 -38 22 -68c0 -42.667 -14.167 -82.167 -42.5 -118.5s-51.833 -54.5 -70.5 -54.5c-6.66699 0 -12.167 2.16699 -16.5 6.5
s-6.5 9.5 -6.5 15.5c0 6.66699 3.66699 14 11 22z" />
    <glyph glyph-name="quotedblbase" unicode="&#x201e;" horiz-adv-x="417" 
d="M69 -76c24 31.333 36 54.999 36 70.999c0 11.333 -5 24 -15 38l-16.5 19.5c-3 3.66699 -5.83301 8.83398 -8.5 15.501s-4 13.334 -4 20.001c0 16 5.83301 29.167 17.5 39.5s25.5 15.5 41.5 15.5c20 0 37.333 -7.66699 52 -23s22 -38 22 -68
c0 -42.667 -14.167 -82.167 -42.5 -118.5s-51.833 -54.5 -70.5 -54.5c-6.66699 0 -12.167 2.33301 -16.5 7s-6.5 10 -6.5 16c0 5.33301 3.66699 12.666 11 21.999zM237 -76.001c24 31.333 36 55 36 71c0 12.667 -5 25.334 -15 38.001c-19.333 21.333 -29 39.666 -29 54.999
c0 16 5.83301 29.167 17.5 39.5s25.5 15.5 41.5 15.5c20 0 37.333 -7.5 52 -22.5s22 -37.833 22 -68.5c0 -42.667 -14.167 -82.167 -42.5 -118.5s-51.833 -54.5 -70.5 -54.5c-6.66699 0 -12.167 2.33301 -16.5 7s-6.5 10 -6.5 16c0 6.66699 3.66699 14 11 22z" />
    <glyph glyph-name="dagger" unicode="&#x2020;" horiz-adv-x="479" 
d="M432 401l-148.001 11.9951l22 -389c0.666992 -9.33301 -0.333008 -15.5 -3 -18.5s-8.33398 -4.5 -17.001 -4.5h-90c-9.33301 0 -15.333 1.5 -18 4.5s-4 9.16699 -4 18.5l22 389l-149 -12c-10 -0.666992 -16.5 0.5 -19.5 3.5s-4.5 9.16699 -4.5 18.5v64
c0.666992 8.66699 2.33398 14.334 5.00098 17.001s8.33398 3.66699 17.001 3l151 -12l-22 190c-0.666992 8.66699 0.666016 14.334 3.99902 17.001s9.33301 4 18 4h86c8.66699 0 14.5 -1.16699 17.5 -3.5s4.16699 -8.16602 3.5 -17.499l-19 -190l150 12
c8.66699 0.666992 14.5 -0.166016 17.5 -2.49902s4.5 -8.16602 4.5 -17.499v-65c0 -8.66699 -1.66699 -14.5 -5 -17.5s-9.66602 -4.16699 -18.999 -3.5z" />
    <glyph glyph-name="daggerdbl" unicode="&#x2021;" horiz-adv-x="500" 
d="M447 180l-154.002 12.9961l18 -172c1.33301 -8 0.666016 -13.5 -2.00098 -16.5s-8 -4.5 -16 -4.5h-85c-8 0 -13.333 1.33301 -16 4s-3.66699 8.33398 -3 17.001l19 172l-154 -13c-9.33301 -0.666992 -15.333 0.5 -18 3.5s-4 8.5 -4 16.5v63c0 13.333 7 19 21 17l155 -12
v206l-154 -12c-9.33301 -0.666992 -15.333 0.333008 -18 3s-4 8 -4 16v64c0 13.333 7 19 21 17l155 -13l-20 138c-0.666992 6 -0.166992 10.333 1.5 13s3.83398 4.33398 6.50098 5.00098s6.33398 1 11.001 1h87c8.66699 0 14 -1.5 16 -4.5s2.33301 -8.16699 1 -15.5
l-18 -137l154 13c8.66699 0.666992 14.334 -0.166016 17.001 -2.49902s4 -7.5 4 -15.5v-64c0 -7.33301 -1.33301 -12.333 -4 -15s-8 -3.66699 -16 -3l-155 12v-206l155 12c8 0.666992 13.333 -0.166016 16 -2.49902s4 -7.5 4 -15.5v-64c0 -7.33301 -1.5 -12.333 -4.5 -15
s-8.5 -3.66699 -16.5 -3z" />
    <glyph glyph-name="bullet" unicode="&#x2022;" horiz-adv-x="333" 
d="M297 353c0 -38 -12.168 -69.167 -36.501 -93.5s-55.166 -36.5 -92.499 -36.5c-36.667 0 -67.667 12.5 -93 37.5s-38 55.833 -38 92.5c0 35.333 12.667 65.833 38 91.5s56.333 38.5 93 38.5c35.333 0 65.5 -12 90.5 -36s37.833 -55.333 38.5 -94z" />
    <glyph glyph-name="ellipsis" unicode="&#x2026;" horiz-adv-x="1000" 
d="M240 66c-0.666992 -20 -7.83301 -36.999 -21.5 -50.999s-30.834 -21 -51.501 -21s-38.167 7.16699 -52.5 21.5s-21.5 32.166 -21.5 53.499c0 22.667 7.66699 40.667 23 54s32 20 50 20c20.667 0 38.334 -7.5 53.001 -22.5s21.667 -33.167 21 -54.5zM573.001 66.001
c-0.666992 -20 -8.00098 -36.999 -22.001 -50.999s-31 -21 -51 -21c-20.667 0 -38.167 7.16699 -52.5 21.5s-21.5 32.166 -21.5 53.499c0 22.667 7.66699 40.667 23 54s32 20 50 20c20.667 0 38.334 -7.5 53.001 -22.5s21.667 -33.167 21 -54.5zM906 66.002
c-0.666992 -20 -7.83301 -36.999 -21.5 -50.999s-30.834 -21 -51.501 -21s-38.167 7.16699 -52.5 21.5s-21.5 32.166 -21.5 53.499c0 22.667 7.66699 40.667 23 54s32 20 50 20c20.667 0 38.334 -7.5 53.001 -22.5s21.667 -33.167 21 -54.5z" />
    <glyph glyph-name="perthousand" unicode="&#x2030;" horiz-adv-x="1125" 
d="M304 487c0 -69.333 -12 -125.333 -36 -168s-57.667 -64 -101 -64c-42 0 -75.5 20.333 -100.5 61s-37.5 97.334 -37.5 170.001c0 73.333 12.833 130.166 38.5 170.499s59.167 60.5 100.5 60.5c42.667 0 76 -21.167 100 -63.5s36 -97.833 36 -166.5zM224 493
c0 116.667 -19.333 175 -58 175c-38 0 -57 -57 -57 -171c0 -124.667 19.333 -187 58 -187c38 0 57 61 57 183zM763 222c0 -69.333 -12.1689 -125.333 -36.502 -168s-58.166 -64 -101.499 -64c-41.333 0 -74.666 20 -99.999 60s-38 97 -38 171s12.833 131 38.5 171
s59.167 60 100.5 60c43.333 0 77 -21 101 -63s36 -97.667 36 -167zM682.998 228c0 116.667 -19.667 175 -59 175c-38 0 -57 -57 -57 -171c0 -124.667 19.333 -187 58 -187s58 61 58 183zM597.998 677l-346.999 -658.002c-4.66699 -8.66699 -8.33398 -14 -11.001 -16
s-7.66699 -3 -15 -3c-18 0 -29 0.333008 -33 1s-6 3.33398 -6 8.00098c0 2.66699 2.33301 9.33398 7 20.001l348 658c4.66699 8 8.5 13.167 11.5 15.5s8.16699 3.5 15.5 3.5c25.333 0 38 -3.33301 38 -10c0 -2.66699 -2.66699 -9 -8 -19zM1096 221.998
c0 -69.333 -12.001 -125.333 -36.001 -168s-57.667 -64 -101 -64c-41.333 0 -74.666 20 -99.999 60s-38 97 -38 171s12.833 131 38.5 171s59.167 60 100.5 60c42.667 0 76 -21.167 100 -63.5s36 -97.833 36 -166.5zM1016 227.998c0 116.667 -19.333 175 -58 175
c-38 0 -57 -57 -57 -171c0 -124.667 19.333 -187 58 -187c38 0 57 61 57 183z" />
    <glyph glyph-name="guilsinglleft" unicode="&#x2039;" horiz-adv-x="271" 
d="M161 250l53.002 -95.9971c4 -8 6 -14.667 6 -20c0 -6 -2 -11.167 -6 -15.5s-9.33301 -6.5 -16 -6.5c-8 0 -16.667 6.33301 -26 19c-40.667 56 -78.334 99 -113.001 129c-14.667 11.333 -22 21.666 -22 30.999c0 8 5.66699 17 17 27c32.667 27.333 67 64 103 110
c13.333 18 22 28.833 26 32.5s9 5.5 15 5.5c5.33301 0 10.166 -2.16699 14.499 -6.5s6.5 -9.5 6.5 -15.5c0 -6.66699 -2.33301 -13.334 -7 -20.001l-52 -95c-8.66699 -16 -13 -28.667 -13 -38c0 -8.66699 4.66699 -22.334 14 -41.001z" />
    <glyph glyph-name="guilsinglright" unicode="&#x203a;" horiz-adv-x="271" 
d="M110 329l-53.001 94.999c-4 8 -6 14.667 -6 20c0 6 2 11.167 6 15.5s9 6.5 15 6.5c8.66699 0 17.667 -6.33301 27 -19c40.667 -56 78.334 -99 113.001 -129c14.667 -11.333 22 -21.666 22 -30.999c0 -8 -5.66699 -17 -17 -27c-36 -30 -70.333 -66.667 -103 -110
c-13.333 -18 -22 -28.833 -26 -32.5s-9 -5.5 -15 -5.5s-11.167 2.16699 -15.5 6.5s-6.5 9.5 -6.5 15.5c0 4 2.33301 10.667 7 20l53 96c8.66699 14.667 13 27 13 37c0 9.33301 -4.66699 23.333 -14 42z" />
    <glyph glyph-name="fraction" unicode="&#x2044;" horiz-adv-x="125" 
d="M265 677l-346.999 -658.002c-4.66699 -8.66699 -8.5 -14 -11.5 -16s-8.16699 -3 -15.5 -3c-18 0 -28.833 0.333008 -32.5 1s-5.5 3.33398 -5.5 8.00098s2.33301 11.334 7 20.001l348 658c4 8 7.66699 13.167 11 15.5s8.66602 3.5 15.999 3.5c25.333 0 38 -3.33301 38 -10
c0 -2.66699 -2.66699 -9 -8 -19z" />
    <glyph glyph-name="trademark" unicode="&#x2122;" horiz-adv-x="687" 
d="M636 706v-332h-57l2 205l3 68l-16 -56l-68 -217h-52l-67 217l-17 55l4 -67l2 -205h-56v332h79l83 -262l81 262h79zM181 657v-283h-58v283h-107v49h270v-49h-105z" />
    <glyph glyph-name="minus" unicode="&#x2212;" horiz-adv-x="500" 
d="M500 333v-81h-500v81h500z" />
    <glyph glyph-name="fi" unicode="&#xfb01;" horiz-adv-x="521" 
d="M276 462l-75.0029 0.00195312v-439c0 -10 -1.66699 -16.333 -5 -19s-8.66602 -4 -15.999 -4h-80c-8.66699 -0.666992 -14.5 0.666016 -17.5 3.99902s-4.5 9.66602 -4.5 18.999v439h-54c-8 0 -13.333 0.833008 -16 2.5s-4 6.5 -4 14.5c0 18 0.833008 29 2.5 33
s7.5 6 17.5 6h54c3.33301 71.333 15 126.333 35 165c13.333 24.667 31.833 46 55.5 64s50.834 27 81.501 27c18 0 32.5 -4.5 43.5 -13.5s16.5 -21.5 16.5 -37.5c0 -14.667 -4.66699 -25.834 -14 -33.501s-19.333 -11.5 -30 -11.5c-2 0 -8.16699 0.666992 -18.5 2
s-16.5 2 -18.5 2c-15.333 0 -27.833 -6 -37.5 -18s-14.5 -29.667 -14.5 -53c0 -39.333 7.33301 -70.333 22 -93h77c4.66699 0 8.16699 -0.166992 10.5 -0.5s4.5 -1.66602 6.5 -3.99902s3 -5.83301 3 -10.5c0 -19.333 -0.333008 -30 -1 -32
c-1.33301 -6 -7.66602 -9 -18.999 -9zM469.997 496.002l0.000976562 -473.999c0 -8.66699 -1.33301 -14.5 -4 -17.5s-8.66699 -4.5 -18 -4.5h-87c-7.33301 -0.666992 -12 0.5 -14 3.5s-3 8.83301 -3 17.5v476c0 7.33301 1.16699 12.666 3.5 15.999s7.5 5 15.5 5h85
c9.33301 0 15.166 -1.5 17.499 -4.5s3.83301 -8.83301 4.5 -17.5zM472.998 653.003c0.666992 -18.667 -5.16797 -33.832 -17.501 -45.499s-28.166 -17.5 -47.499 -17.5c-20.667 0 -37.167 5.5 -49.5 16.5s-18.5 25.5 -18.5 43.5s6 33 18 45s28.667 18 50 18
c20 0 35.667 -5.83301 47 -17.5s17.333 -25.834 18 -42.501z" />
    <glyph glyph-name="fl" unicode="&#xfb02;" horiz-adv-x="521" 
d="M276 462l-75.0039 0.00195312v-439c0 -10 -1.66699 -16.333 -5 -19s-8.66602 -4 -15.999 -4h-80c-8.66699 -0.666992 -14.5 0.666016 -17.5 3.99902s-4.5 9.66602 -4.5 18.999v439h-54c-8 0 -13.333 0.833008 -16 2.5s-4 6.5 -4 14.5c0 18 0.833008 29 2.5 33
s7.5 6 17.5 6h54c3.33301 71.333 15 126.333 35 165c13.333 24.667 31.833 46 55.5 64s50.834 27 81.501 27c18.667 0 33.334 -4.5 44.001 -13.5s16 -21.5 16 -37.5c0 -14.667 -4.66699 -25.834 -14 -33.501s-19.333 -11.5 -30 -11.5c-2 0 -8.16699 0.666992 -18.5 2
s-16.5 2 -18.5 2c-15.333 0 -27.833 -6 -37.5 -18s-14.5 -29.667 -14.5 -53c0 -39.333 7.33301 -70.333 22 -93h77c4.66699 0 8.16699 -0.166992 10.5 -0.5s4.5 -1.66602 6.5 -3.99902s3 -5.83301 3 -10.5c0 -19.333 -0.333008 -30 -1 -32
c-1.33301 -6 -7.66602 -9 -18.999 -9zM343.996 21.002v725c0 8 1.5 13.167 4.5 15.5s9.16699 3.5 18.5 3.5h79c9.33301 0 15.333 -1 18 -3s4 -7.33301 4 -16v-725c0 -9.33301 -1.5 -15.166 -4.5 -17.499s-8.83301 -3.5 -17.5 -3.5h-79c-9.33301 0 -15.5 1.16699 -18.5 3.5
s-4.5 8.16602 -4.5 17.499z" />
    <glyph glyph-name=".null" horiz-adv-x="0" 
 />
    <glyph glyph-name="nonmarkingreturn" horiz-adv-x="333" 
 />
  </font>
</defs>
</svg>
